Spritulo.ufo3
<glyph name="exclam" format="2">
  <advance width="214"/>
  <unicode hex="0021"/>
  <outline>
    <contour>
      <point x="148" y="322" type="curve" smooth="yes"/>
      <point x="148" y="313"/>
      <point x="146" y="266"/>
      <point x="112" y="266" type="curve" smooth="yes"/>
      <point x="102" y="266"/>
      <point x="94" y="280"/>
      <point x="84" y="312" type="curve" smooth="yes"/>
      <point x="78" y="332"/>
      <point x="70" y="342"/>
      <point x="66" y="502" type="curve" smooth="yes"/>
      <point x="66" y="540"/>
      <point x="64" y="584"/>
      <point x="64" y="630" type="curve" smooth="yes"/>
      <point x="64" y="740" type="line" smooth="yes"/>
      <point x="64" y="766"/>
      <point x="62" y="786"/>
      <point x="62" y="802" type="curve" smooth="yes"/>
      <point x="62" y="876"/>
      <point x="66" y="894"/>
      <point x="94" y="894" type="curve" smooth="yes"/>
      <point x="106" y="894"/>
      <point x="108" y="888"/>
      <point x="122" y="878" type="curve" smooth="yes"/>
      <point x="131" y="870"/>
      <point x="144" y="860"/>
      <point x="144" y="778" type="curve" smooth="yes"/>
      <point x="144" y="770"/>
      <point x="142" y="750"/>
      <point x="142" y="718" type="curve" smooth="yes"/>
      <point x="142" y="636" type="line" smooth="yes"/>
      <point x="142" y="451"/>
      <point x="148" y="357"/>
    </contour>
    <contour>
      <point x="88" y="136" type="curve" smooth="yes"/>
      <point x="130" y="136"/>
      <point x="142" y="128"/>
      <point x="162" y="72" type="curve" smooth="yes"/>
      <point x="166" y="58"/>
      <point x="170" y="46"/>
      <point x="170" y="32" type="curve" smooth="yes"/>
      <point x="170" y="12"/>
      <point x="148" y="-6"/>
      <point x="96" y="-6" type="curve" smooth="yes"/>
      <point x="64" y="-6"/>
      <point x="56" y="22"/>
      <point x="56" y="72" type="curve" smooth="yes"/>
      <point x="56" y="104"/>
      <point x="62" y="136"/>
    </contour>
  </outline>
</glyph>
<glyph name="quotedbl" format="2">
  <advance width="414"/>
  <unicode hex="0022"/>
  <outline>
    <contour>
      <point x="342" y="613" type="curve" smooth="yes"/>
      <point x="342" y="580"/>
      <point x="332" y="578"/>
      <point x="324" y="578" type="curve" smooth="yes"/>
      <point x="308" y="578"/>
      <point x="290" y="588"/>
      <point x="278" y="606" type="curve" smooth="yes"/>
      <point x="241" y="663"/>
      <point x="237" y="734"/>
      <point x="237" y="800" type="curve" smooth="yes"/>
      <point x="237" y="878"/>
      <point x="241" y="918"/>
      <point x="245" y="920" type="curve"/>
      <point x="247" y="926"/>
      <point x="258" y="928"/>
      <point x="272" y="928" type="curve" smooth="yes"/>
      <point x="300" y="928"/>
      <point x="320" y="902"/>
      <point x="320" y="822" type="curve" smooth="yes"/>
      <point x="320" y="652"/>
      <point x="342" y="705"/>
    </contour>
    <contour>
      <point x="72" y="818" type="curve" smooth="yes"/>
      <point x="72" y="864"/>
      <point x="82" y="882"/>
      <point x="90" y="888" type="curve" smooth="yes"/>
      <point x="96" y="892"/>
      <point x="106" y="892"/>
      <point x="118" y="892" type="curve" smooth="yes"/>
      <point x="144" y="892"/>
      <point x="154" y="886"/>
      <point x="154" y="820" type="curve" smooth="yes"/>
      <point x="154" y="792"/>
      <point x="154" y="772"/>
      <point x="156" y="760" type="curve" smooth="yes"/>
      <point x="162" y="718"/>
      <point x="182" y="656"/>
      <point x="182" y="626" type="curve" smooth="yes"/>
      <point x="182" y="610"/>
      <point x="155" y="576"/>
      <point x="148" y="576" type="curve" smooth="yes"/>
      <point x="140" y="576"/>
      <point x="124" y="578"/>
      <point x="110" y="610" type="curve" smooth="yes"/>
      <point x="74" y="691"/>
      <point x="72" y="727"/>
    </contour>
  </outline>
</glyph>
<glyph name="numbersign" format="2">
  <advance width="536"/>
  <unicode hex="0023"/>
  <outline>
    <contour>
      <point x="226" y="96" type="curve" smooth="yes"/>
      <point x="226" y="65"/>
      <point x="254" y="79"/>
      <point x="254" y="54" type="curve" smooth="yes"/>
      <point x="254" y="34"/>
      <point x="239" y="12"/>
      <point x="218" y="12" type="curve" smooth="yes"/>
      <point x="206" y="12"/>
      <point x="186" y="24"/>
      <point x="172" y="30" type="curve" smooth="yes"/>
      <point x="152" y="40"/>
      <point x="146" y="64"/>
      <point x="146" y="98" type="curve" smooth="yes"/>
      <point x="146" y="184"/>
      <point x="148" y="256"/>
      <point x="148" y="280" type="curve"/>
      <point x="108" y="280" type="line" smooth="yes"/>
      <point x="75" y="280"/>
      <point x="36" y="281"/>
      <point x="24" y="318" type="curve"/>
      <point x="22" y="328"/>
      <point x="20" y="334"/>
      <point x="20" y="336" type="curve" smooth="yes"/>
      <point x="20" y="356"/>
      <point x="42" y="376"/>
      <point x="64" y="376" type="curve" smooth="yes"/>
      <point x="88" y="376"/>
      <point x="122" y="360"/>
      <point x="154" y="360" type="curve"/>
      <point x="158" y="396"/>
      <point x="168" y="496"/>
      <point x="168" y="530" type="curve"/>
      <point x="148" y="530"/>
      <point x="110" y="524"/>
      <point x="106" y="520" type="curve"/>
      <point x="100" y="516"/>
      <point x="94" y="514"/>
      <point x="84" y="514" type="curve" smooth="yes"/>
      <point x="68" y="514"/>
      <point x="52" y="516"/>
      <point x="40" y="526" type="curve"/>
      <point x="26" y="536"/>
      <point x="16" y="538"/>
      <point x="16" y="560" type="curve" smooth="yes"/>
      <point x="16" y="601"/>
      <point x="23" y="602"/>
      <point x="74" y="606" type="curve"/>
      <point x="128" y="612"/>
      <point x="154" y="620"/>
      <point x="174" y="620" type="curve"/>
      <point x="176" y="640"/>
      <point x="182" y="678"/>
      <point x="182" y="720" type="curve" smooth="yes"/>
      <point x="182" y="763"/>
      <point x="182" y="805"/>
      <point x="225" y="805" type="curve" smooth="yes"/>
      <point x="228" y="805"/>
      <point x="231" y="804"/>
      <point x="234" y="804" type="curve" smooth="yes"/>
      <point x="262" y="799"/>
      <point x="262" y="792"/>
      <point x="262" y="764" type="curve" smooth="yes"/>
      <point x="262" y="736"/>
      <point x="262" y="666"/>
      <point x="256" y="634" type="curve"/>
      <point x="296" y="638"/>
      <point x="324" y="642"/>
      <point x="368" y="642" type="curve"/>
      <point x="370" y="716"/>
      <point x="376" y="738"/>
      <point x="406" y="738" type="curve" smooth="yes"/>
      <point x="424" y="738"/>
      <point x="445" y="720"/>
      <point x="445" y="695" type="curve" smooth="yes"/>
      <point x="445" y="686"/>
      <point x="436" y="668"/>
      <point x="436" y="644" type="curve"/>
      <point x="468" y="644"/>
      <point x="486" y="642"/>
      <point x="496" y="630" type="curve" smooth="yes"/>
      <point x="510" y="612"/>
      <point x="514" y="608"/>
      <point x="514" y="600" type="curve" smooth="yes"/>
      <point x="514" y="579"/>
      <point x="500" y="558"/>
      <point x="478" y="554" type="curve"/>
      <point x="475" y="554" type="line" smooth="yes"/>
      <point x="467" y="554"/>
      <point x="463" y="559"/>
      <point x="449" y="559" type="curve" smooth="yes"/>
      <point x="446" y="559"/>
      <point x="442" y="559"/>
      <point x="438" y="558" type="curve"/>
      <point x="438" y="528"/>
      <point x="440" y="430"/>
      <point x="440" y="412" type="curve"/>
      <point x="452" y="416"/>
      <point x="462" y="416"/>
      <point x="490" y="416" type="curve" smooth="yes"/>
      <point x="518" y="416"/>
      <point x="530" y="412"/>
      <point x="530" y="384" type="curve" smooth="yes"/>
      <point x="530" y="352"/>
      <point x="520" y="342"/>
      <point x="488" y="340" type="curve" smooth="yes"/>
      <point x="472" y="338"/>
      <point x="458" y="338"/>
      <point x="442" y="334" type="curve"/>
      <point x="442" y="281"/>
      <point x="434" y="306"/>
      <point x="434" y="182" type="curve" smooth="yes"/>
      <point x="434" y="148"/>
      <point x="426" y="132"/>
      <point x="418" y="128" type="curve" smooth="yes"/>
      <point x="408" y="122"/>
      <point x="402" y="120"/>
      <point x="400" y="120" type="curve" smooth="yes"/>
      <point x="382" y="120"/>
      <point x="362" y="140"/>
      <point x="362" y="212" type="curve" smooth="yes"/>
      <point x="362" y="310" type="line"/>
      <point x="330" y="300"/>
      <point x="274" y="286"/>
      <point x="234" y="280" type="curve"/>
      <point x="228" y="234"/>
      <point x="226" y="138"/>
    </contour>
    <contour>
      <point x="246" y="542" type="curve"/>
      <point x="242" y="516"/>
      <point x="234" y="418"/>
      <point x="234" y="368" type="curve"/>
      <point x="250" y="368"/>
      <point x="334" y="390"/>
      <point x="362" y="398" type="curve"/>
      <point x="362" y="552" type="line"/>
      <point x="312" y="552"/>
      <point x="286" y="546"/>
    </contour>
  </outline>
</glyph>
<glyph name="dollar" format="2">
  <advance width="458"/>
  <unicode hex="0024"/>
  <outline>
    <contour>
      <point x="332" y="316" type="line"/>
      <point x="346" y="324"/>
      <point x="364" y="338"/>
      <point x="370" y="344" type="curve"/>
      <point x="364" y="352"/>
      <point x="336" y="362"/>
      <point x="326" y="368" type="curve"/>
    </contour>
    <contour>
      <point x="246" y="472" type="curve"/>
      <point x="246" y="492"/>
      <point x="238" y="515"/>
      <point x="238" y="616" type="curve" smooth="yes"/>
      <point x="238" y="678" type="line"/>
      <point x="210" y="674"/>
      <point x="188" y="668"/>
      <point x="148" y="636" type="curve" smooth="yes"/>
      <point x="116" y="610"/>
      <point x="100" y="592"/>
      <point x="100" y="582" type="curve" smooth="yes"/>
      <point x="100" y="570"/>
      <point x="110" y="552"/>
      <point x="130" y="528" type="curve"/>
      <point x="144" y="514"/>
      <point x="226" y="472"/>
    </contour>
    <contour>
      <point x="54" y="320" type="curve" smooth="yes"/>
      <point x="81" y="320"/>
      <point x="84" y="278"/>
      <point x="170" y="278" type="curve" smooth="yes"/>
      <point x="206" y="278"/>
      <point x="232" y="280"/>
      <point x="258" y="290" type="curve"/>
      <point x="252" y="320"/>
      <point x="252" y="358"/>
      <point x="250" y="380" type="curve"/>
      <point x="242" y="386"/>
      <point x="212" y="396"/>
      <point x="192" y="406" type="curve"/>
      <point x="176" y="416"/>
      <point x="158" y="418"/>
      <point x="142" y="428" type="curve" smooth="yes"/>
      <point x="126" y="438"/>
      <point x="112" y="444"/>
      <point x="102" y="448" type="curve" smooth="yes"/>
      <point x="54" y="472"/>
      <point x="28" y="528"/>
      <point x="28" y="580" type="curve" smooth="yes"/>
      <point x="28" y="604"/>
      <point x="28" y="620"/>
      <point x="32" y="628" type="curve" smooth="yes"/>
      <point x="50" y="670"/>
      <point x="147" y="760"/>
      <point x="198" y="770" type="curve" smooth="yes"/>
      <point x="204" y="772"/>
      <point x="226" y="772"/>
      <point x="236" y="772" type="curve"/>
      <point x="236" y="822" type="line" smooth="yes"/>
      <point x="236" y="856"/>
      <point x="238" y="878"/>
      <point x="244" y="880" type="curve" smooth="yes"/>
      <point x="250" y="882"/>
      <point x="254" y="890"/>
      <point x="254" y="902" type="curve" smooth="yes"/>
      <point x="254" y="912"/>
      <point x="256" y="920"/>
      <point x="264" y="922" type="curve" smooth="yes"/>
      <point x="272" y="924"/>
      <point x="276" y="926"/>
      <point x="278" y="926" type="curve" smooth="yes"/>
      <point x="296" y="926"/>
      <point x="306" y="902"/>
      <point x="306" y="856" type="curve" smooth="yes"/>
      <point x="306" y="826" type="line" smooth="yes"/>
      <point x="306" y="806"/>
      <point x="310" y="782"/>
      <point x="310" y="768" type="curve"/>
      <point x="324" y="758"/>
      <point x="340" y="756"/>
      <point x="372" y="726" type="curve" smooth="yes"/>
      <point x="400" y="700"/>
      <point x="414" y="674"/>
      <point x="414" y="650" type="curve" smooth="yes"/>
      <point x="414" y="648"/>
      <point x="412" y="648"/>
      <point x="412" y="646" type="curve" smooth="yes"/>
      <point x="412" y="640" type="line"/>
      <point x="408" y="624"/>
      <point x="400" y="616"/>
      <point x="390" y="616" type="curve" smooth="yes"/>
      <point x="365" y="616"/>
      <point x="331" y="663"/>
      <point x="314" y="676" type="curve"/>
      <point x="320" y="614"/>
      <point x="316" y="556"/>
      <point x="320" y="500" type="curve"/>
      <point x="320" y="456" type="line"/>
      <point x="350" y="442"/>
      <point x="398" y="420"/>
      <point x="414" y="410" type="curve" smooth="yes"/>
      <point x="432" y="398"/>
      <point x="450" y="368"/>
      <point x="450" y="344" type="curve" smooth="yes"/>
      <point x="450" y="314"/>
      <point x="398" y="266"/>
      <point x="340" y="240" type="curve"/>
      <point x="344" y="222"/>
      <point x="340" y="176"/>
      <point x="346" y="136" type="curve"/>
      <point x="350" y="102"/>
      <point x="352" y="72"/>
      <point x="378" y="50" type="curve"/>
      <point x="388" y="44"/>
      <point x="390" y="36"/>
      <point x="390" y="32" type="curve" smooth="yes"/>
      <point x="390" y="12"/>
      <point x="340" y="-28"/>
      <point x="322" y="-28" type="curve" smooth="yes"/>
      <point x="310" y="-28"/>
      <point x="272" y="28"/>
      <point x="272" y="60" type="curve" smooth="yes"/>
      <point x="272" y="142"/>
      <point x="270" y="180"/>
      <point x="262" y="212" type="curve"/>
      <point x="234" y="198"/>
      <point x="208" y="196"/>
      <point x="154" y="196" type="curve" smooth="yes"/>
      <point x="102" y="196"/>
      <point x="62" y="202"/>
      <point x="40" y="222" type="curve" smooth="yes"/>
      <point x="26" y="236"/>
      <point x="18" y="252"/>
      <point x="18" y="268" type="curve" smooth="yes"/>
      <point x="18" y="294"/>
      <point x="36" y="320"/>
    </contour>
  </outline>
</glyph>
<glyph name="percent" format="2">
  <advance width="884"/>
  <unicode hex="0025"/>
  <outline>
    <contour>
      <point x="294" y="714" type="curve" smooth="yes"/>
      <point x="294" y="734"/>
      <point x="278" y="724"/>
      <point x="278" y="764" type="curve" smooth="yes"/>
      <point x="278" y="804"/>
      <point x="284" y="824"/>
      <point x="316" y="824" type="curve" smooth="yes"/>
      <point x="338" y="824"/>
      <point x="354" y="816"/>
      <point x="362" y="790" type="curve" smooth="yes"/>
      <point x="370" y="762"/>
      <point x="400" y="748"/>
      <point x="436" y="748" type="curve" smooth="yes"/>
      <point x="478" y="748"/>
      <point x="586" y="802"/>
      <point x="616" y="838" type="curve" smooth="yes"/>
      <point x="622" y="846"/>
      <point x="626" y="848"/>
      <point x="634" y="848" type="curve" smooth="yes"/>
      <point x="654" y="848"/>
      <point x="674" y="828"/>
      <point x="674" y="798" type="curve" smooth="yes"/>
      <point x="674" y="786"/>
      <point x="668" y="770"/>
      <point x="662" y="766" type="curve" smooth="yes"/>
      <point x="656" y="762"/>
      <point x="624" y="710"/>
      <point x="562" y="582" type="curve" smooth="yes"/>
      <point x="560" y="578"/>
      <point x="383" y="221"/>
      <point x="364" y="184" type="curve" smooth="yes"/>
      <point x="338" y="138"/>
      <point x="322" y="110"/>
      <point x="320" y="90" type="curve" smooth="yes"/>
      <point x="318" y="66"/>
      <point x="282" y="34"/>
      <point x="256" y="34" type="curve" smooth="yes"/>
      <point x="240" y="34"/>
      <point x="232" y="52"/>
      <point x="232" y="86" type="curve" smooth="yes"/>
      <point x="232" y="110"/>
      <point x="238" y="128"/>
      <point x="248" y="138" type="curve" smooth="yes"/>
      <point x="262" y="152"/>
      <point x="302" y="224"/>
      <point x="308" y="234" type="curve" smooth="yes"/>
      <point x="352" y="318"/>
      <point x="396" y="408"/>
      <point x="420" y="456" type="curve" smooth="yes"/>
      <point x="490" y="596" type="line"/>
      <point x="520" y="660"/>
      <point x="526" y="664"/>
      <point x="540" y="704" type="curve"/>
      <point x="518" y="690"/>
      <point x="474" y="668"/>
      <point x="434" y="668" type="curve" smooth="yes"/>
      <point x="416" y="668"/>
      <point x="384" y="670"/>
      <point x="364" y="684" type="curve"/>
      <point x="354" y="642"/>
      <point x="296" y="574"/>
      <point x="274" y="552" type="curve" smooth="yes"/>
      <point x="232" y="510"/>
      <point x="184" y="488"/>
      <point x="134" y="488" type="curve" smooth="yes"/>
      <point x="96" y="488"/>
      <point x="84" y="504"/>
      <point x="62" y="528" type="curve" smooth="yes"/>
      <point x="34" y="560"/>
      <point x="20" y="570"/>
      <point x="20" y="622" type="curve" smooth="yes"/>
      <point x="20" y="684"/>
      <point x="30" y="738"/>
      <point x="50" y="786" type="curve"/>
      <point x="62" y="812"/>
      <point x="126" y="874"/>
      <point x="154" y="886" type="curve"/>
      <point x="170" y="894"/>
      <point x="184" y="896"/>
      <point x="192" y="896" type="curve" smooth="yes"/>
      <point x="226" y="896"/>
      <point x="290" y="856"/>
      <point x="290" y="842" type="curve" smooth="yes"/>
      <point x="290" y="810"/>
      <point x="240" y="796"/>
      <point x="186" y="790" type="curve" smooth="yes"/>
      <point x="140" y="784"/>
      <point x="106" y="716"/>
      <point x="106" y="662" type="curve" smooth="yes"/>
      <point x="106" y="614"/>
      <point x="137" y="580"/>
      <point x="154" y="580" type="curve" smooth="yes"/>
      <point x="196" y="580"/>
      <point x="224" y="604"/>
      <point x="256" y="640" type="curve"/>
      <point x="282" y="672"/>
      <point x="294" y="696"/>
    </contour>
    <contour>
      <point x="664" y="108" type="curve" smooth="yes"/>
      <point x="720" y="108"/>
      <point x="788" y="162"/>
      <point x="788" y="222" type="curve" smooth="yes"/>
      <point x="788" y="260"/>
      <point x="788" y="270"/>
      <point x="756" y="286" type="curve" smooth="yes"/>
      <point x="738" y="296"/>
      <point x="718" y="300"/>
      <point x="698" y="300" type="curve" smooth="yes"/>
      <point x="664" y="300"/>
      <point x="656" y="292"/>
      <point x="640" y="266" type="curve" smooth="yes"/>
      <point x="626" y="242"/>
      <point x="620" y="228"/>
      <point x="620" y="178" type="curve" smooth="yes"/>
      <point x="620" y="132"/>
      <point x="634" y="108"/>
    </contour>
    <contour>
      <point x="612" y="374" type="curve" smooth="yes"/>
      <point x="630" y="394"/>
      <point x="670" y="402"/>
      <point x="682" y="402" type="curve" smooth="yes"/>
      <point x="720" y="402"/>
      <point x="742" y="382"/>
      <point x="762" y="376" type="curve"/>
      <point x="870" y="350"/>
      <point x="876" y="280"/>
      <point x="876" y="230" type="curve" smooth="yes"/>
      <point x="876" y="206"/>
      <point x="862" y="162"/>
      <point x="828" y="110" type="curve"/>
      <point x="776" y="36"/>
      <point x="708" y="18"/>
      <point x="652" y="18" type="curve" smooth="yes"/>
      <point x="568" y="18"/>
      <point x="534" y="96"/>
      <point x="534" y="182" type="curve" smooth="yes"/>
      <point x="534" y="260"/>
      <point x="544" y="298"/>
    </contour>
  </outline>
</glyph>
<glyph name="ampersand" format="2">
  <advance width="628"/>
  <unicode hex="0026"/>
  <outline>
    <contour>
      <point x="208" y="356" type="curve"/>
      <point x="160" y="322"/>
      <point x="122" y="286"/>
      <point x="122" y="248" type="curve" smooth="yes"/>
      <point x="122" y="208"/>
      <point x="195" y="128"/>
      <point x="234" y="128" type="curve" smooth="yes"/>
      <point x="262" y="128"/>
      <point x="282" y="150"/>
      <point x="300" y="174" type="curve" smooth="yes"/>
      <point x="316" y="194"/>
      <point x="326" y="204"/>
      <point x="332" y="216" type="curve"/>
      <point x="302" y="242"/>
      <point x="246" y="308"/>
    </contour>
    <contour>
      <point x="250" y="822" type="curve" smooth="yes"/>
      <point x="213" y="822"/>
      <point x="206" y="738"/>
      <point x="206" y="710" type="curve" smooth="yes"/>
      <point x="206" y="708"/>
      <point x="207" y="586"/>
      <point x="236" y="514" type="curve"/>
      <point x="294" y="572"/>
      <point x="344" y="640"/>
      <point x="344" y="698" type="curve" smooth="yes"/>
      <point x="344" y="730"/>
      <point x="328" y="762"/>
      <point x="316" y="782" type="curve" smooth="yes"/>
      <point x="298" y="812"/>
      <point x="282" y="822"/>
    </contour>
    <contour>
      <point x="124" y="728" type="curve" smooth="yes"/>
      <point x="124" y="815"/>
      <point x="144" y="908"/>
      <point x="250" y="908" type="curve" smooth="yes"/>
      <point x="338" y="908"/>
      <point x="366" y="872"/>
      <point x="402" y="798" type="curve" smooth="yes"/>
      <point x="414" y="774"/>
      <point x="426" y="730"/>
      <point x="426" y="694" type="curve" smooth="yes"/>
      <point x="426" y="636"/>
      <point x="406" y="596"/>
      <point x="384" y="560" type="curve" smooth="yes"/>
      <point x="352" y="506"/>
      <point x="292" y="440"/>
      <point x="274" y="416" type="curve"/>
      <point x="330" y="342"/>
      <point x="330" y="342"/>
      <point x="342" y="332" type="curve" smooth="yes"/>
      <point x="354" y="322"/>
      <point x="368" y="300"/>
      <point x="384" y="288" type="curve"/>
      <point x="430" y="367"/>
      <point x="475" y="506"/>
      <point x="476" y="508" type="curve" smooth="yes"/>
      <point x="478" y="516"/>
      <point x="494" y="526"/>
      <point x="512" y="526" type="curve" smooth="yes"/>
      <point x="536" y="526"/>
      <point x="582" y="512"/>
      <point x="582" y="494" type="curve" smooth="yes"/>
      <point x="582" y="480"/>
      <point x="566" y="450"/>
      <point x="558" y="442" type="curve" smooth="yes"/>
      <point x="552" y="436"/>
      <point x="534" y="400"/>
      <point x="528" y="388" type="curve"/>
      <point x="512" y="342"/>
      <point x="482" y="292"/>
      <point x="450" y="224" type="curve"/>
      <point x="468" y="202"/>
      <point x="482" y="182"/>
      <point x="520" y="152" type="curve" smooth="yes"/>
      <point x="560" y="120"/>
      <point x="582" y="116"/>
      <point x="610" y="106" type="curve"/>
      <point x="628" y="98"/>
      <point x="640" y="90"/>
      <point x="640" y="78" type="curve" smooth="yes"/>
      <point x="640" y="66"/>
      <point x="632" y="14"/>
      <point x="616" y="14" type="curve" smooth="yes"/>
      <point x="580" y="14"/>
      <point x="556" y="29"/>
      <point x="510" y="56" type="curve"/>
      <point x="478" y="72"/>
      <point x="458" y="90"/>
      <point x="434" y="114" type="curve" smooth="yes"/>
      <point x="424" y="124"/>
      <point x="404" y="142"/>
      <point x="396" y="150" type="curve"/>
      <point x="363" y="101"/>
      <point x="297" y="36"/>
      <point x="236" y="36" type="curve" smooth="yes"/>
      <point x="222" y="36"/>
      <point x="206" y="38"/>
      <point x="192" y="46" type="curve" smooth="yes"/>
      <point x="156" y="64"/>
      <point x="114" y="110"/>
      <point x="82" y="148" type="curve" smooth="yes"/>
      <point x="42" y="198"/>
      <point x="42" y="234"/>
      <point x="42" y="266" type="curve" smooth="yes"/>
      <point x="42" y="324"/>
      <point x="78" y="360"/>
      <point x="166" y="442" type="curve"/>
      <point x="132" y="509"/>
      <point x="124" y="651"/>
    </contour>
  </outline>
</glyph>
<glyph name="quotesingle" format="2">
  <advance width="185"/>
  <unicode hex="0027"/>
  <outline>
    <contour>
      <point x="45" y="862" type="curve" smooth="yes"/>
      <point x="45" y="891"/>
      <point x="70" y="914"/>
      <point x="95" y="914" type="curve" smooth="yes"/>
      <point x="129" y="914"/>
      <point x="140" y="861"/>
      <point x="140" y="834" type="curve" smooth="yes"/>
      <point x="140" y="808"/>
      <point x="134" y="784"/>
      <point x="130" y="754" type="curve" smooth="yes"/>
      <point x="126" y="720"/>
      <point x="126" y="678"/>
      <point x="122" y="666" type="curve" smooth="yes"/>
      <point x="118" y="656"/>
      <point x="103" y="638"/>
      <point x="89" y="638" type="curve" smooth="yes"/>
      <point x="77" y="638"/>
      <point x="53" y="652"/>
      <point x="49" y="662" type="curve" smooth="yes"/>
      <point x="45" y="672"/>
      <point x="45" y="692"/>
      <point x="45" y="724" type="curve" smooth="yes"/>
      <point x="45" y="746"/>
      <point x="45" y="772"/>
      <point x="47" y="804" type="curve" smooth="yes"/>
      <point x="47" y="814"/>
      <point x="49" y="820"/>
      <point x="49" y="828" type="curve" smooth="yes"/>
      <point x="49" y="865"/>
      <point x="45" y="843"/>
    </contour>
  </outline>
</glyph>
<glyph name="parenleft" format="2">
  <advance width="396"/>
  <unicode hex="0028"/>
  <outline>
    <contour>
      <point x="80" y="586" type="curve" smooth="yes"/>
      <point x="111" y="679"/>
      <point x="214" y="826"/>
      <point x="324" y="826" type="curve" smooth="yes"/>
      <point x="338" y="826"/>
      <point x="348" y="820"/>
      <point x="348" y="792" type="curve" smooth="yes"/>
      <point x="348" y="760"/>
      <point x="344" y="756"/>
      <point x="320" y="748" type="curve" smooth="yes"/>
      <point x="273" y="733"/>
      <point x="208" y="660"/>
      <point x="186" y="616" type="curve"/>
      <point x="146" y="547"/>
      <point x="114" y="400"/>
      <point x="114" y="324" type="curve" smooth="yes"/>
      <point x="114" y="228"/>
      <point x="147" y="35"/>
      <point x="192" y="-54" type="curve"/>
      <point x="211" y="-100"/>
      <point x="251" y="-182"/>
      <point x="310" y="-182" type="curve" smooth="yes"/>
      <point x="322" y="-182"/>
      <point x="328" y="-180"/>
      <point x="340" y="-180" type="curve" smooth="yes"/>
      <point x="352" y="-180"/>
      <point x="362" y="-192"/>
      <point x="362" y="-208" type="curve" smooth="yes"/>
      <point x="362" y="-240"/>
      <point x="322" y="-270"/>
      <point x="308" y="-270" type="curve" smooth="yes"/>
      <point x="153" y="-270"/>
      <point x="80" y="-13"/>
      <point x="62" y="108" type="curve" smooth="yes"/>
      <point x="52" y="180"/>
      <point x="38" y="228"/>
      <point x="38" y="304" type="curve" smooth="yes"/>
      <point x="38" y="407"/>
      <point x="47" y="486"/>
    </contour>
  </outline>
</glyph>
<glyph name="parenright" format="2">
  <advance width="412"/>
  <unicode hex="0029"/>
  <outline>
    <contour>
      <point x="254" y="66" type="curve" smooth="yes"/>
      <point x="258" y="78"/>
      <point x="296" y="204"/>
      <point x="296" y="258" type="curve" smooth="yes"/>
      <point x="296" y="352"/>
      <point x="284" y="364"/>
      <point x="272" y="434" type="curve" smooth="yes"/>
      <point x="243" y="597"/>
      <point x="48" y="773"/>
      <point x="48" y="820" type="curve" smooth="yes"/>
      <point x="48" y="832"/>
      <point x="74" y="860"/>
      <point x="100" y="860" type="curve" smooth="yes"/>
      <point x="132" y="860"/>
      <point x="144" y="812"/>
      <point x="174" y="780" type="curve" smooth="yes"/>
      <point x="262" y="684"/>
      <point x="276" y="666"/>
      <point x="292" y="624" type="curve" smooth="yes"/>
      <point x="323" y="546"/>
      <point x="371" y="427"/>
      <point x="371" y="285" type="curve" smooth="yes"/>
      <point x="371" y="284"/>
      <point x="370" y="192"/>
      <point x="352" y="138" type="curve" smooth="yes"/>
      <point x="332" y="78"/>
      <point x="310" y="-26"/>
      <point x="224" y="-152" type="curve" smooth="yes"/>
      <point x="206" y="-177"/>
      <point x="120" y="-290"/>
      <point x="90" y="-290" type="curve" smooth="yes"/>
      <point x="76" y="-290"/>
      <point x="50" y="-272"/>
      <point x="50" y="-254" type="curve" smooth="yes"/>
      <point x="50" y="-236"/>
      <point x="70" y="-216"/>
      <point x="86" y="-198" type="curve" smooth="yes"/>
      <point x="106" y="-176"/>
      <point x="138" y="-146"/>
      <point x="148" y="-136" type="curve"/>
      <point x="192" y="-84"/>
      <point x="240" y="26"/>
    </contour>
  </outline>
</glyph>
<glyph name="asterisk" format="2">
  <advance width="460"/>
  <unicode hex="002A"/>
  <outline>
    <contour>
      <point x="428" y="640" type="curve" smooth="yes"/>
      <point x="396" y="640"/>
      <point x="388" y="651"/>
      <point x="314" y="660" type="curve"/>
      <point x="314" y="632"/>
      <point x="316" y="608"/>
      <point x="318" y="582" type="curve" smooth="yes"/>
      <point x="326" y="464"/>
      <point x="342" y="494"/>
      <point x="342" y="462" type="curve" smooth="yes"/>
      <point x="342" y="448"/>
      <point x="324" y="440"/>
      <point x="298" y="440" type="curve" smooth="yes"/>
      <point x="270" y="440"/>
      <point x="256" y="446"/>
      <point x="246" y="480" type="curve" smooth="yes"/>
      <point x="228" y="538"/>
      <point x="222" y="570"/>
      <point x="222" y="620" type="curve" smooth="yes"/>
      <point x="222" y="674" type="line"/>
      <point x="220" y="676"/>
      <point x="212" y="680"/>
      <point x="208" y="682" type="curve"/>
      <point x="190" y="664"/>
      <point x="150" y="626"/>
      <point x="140" y="598" type="curve"/>
      <point x="124" y="560"/>
      <point x="114" y="538"/>
      <point x="80" y="538" type="curve" smooth="yes"/>
      <point x="56" y="538"/>
      <point x="44" y="554"/>
      <point x="44" y="586" type="curve" smooth="yes"/>
      <point x="44" y="638"/>
      <point x="90" y="700"/>
      <point x="130" y="732" type="curve"/>
      <point x="120" y="736"/>
      <point x="96" y="744"/>
      <point x="82" y="748" type="curve" smooth="yes"/>
      <point x="40" y="760"/>
      <point x="20" y="784"/>
      <point x="20" y="806" type="curve" smooth="yes"/>
      <point x="20" y="828"/>
      <point x="46" y="848"/>
      <point x="70" y="848" type="curve" smooth="yes"/>
      <point x="131" y="848"/>
      <point x="176" y="808"/>
      <point x="214" y="802" type="curve"/>
      <point x="214" y="808"/>
      <point x="214" y="820"/>
      <point x="214" y="832" type="curve" smooth="yes"/>
      <point x="214" y="845"/>
      <point x="214" y="859"/>
      <point x="216" y="870" type="curve" smooth="yes"/>
      <point x="224" y="924"/>
      <point x="240" y="936"/>
      <point x="264" y="936" type="curve" smooth="yes"/>
      <point x="304" y="936"/>
      <point x="304" y="873"/>
      <point x="304" y="846" type="curve"/>
      <point x="326" y="856"/>
      <point x="360" y="872"/>
      <point x="376" y="872" type="curve" smooth="yes"/>
      <point x="396" y="872"/>
      <point x="416" y="868"/>
      <point x="432" y="848" type="curve"/>
      <point x="442" y="838"/>
      <point x="446" y="828"/>
      <point x="446" y="820" type="curve" smooth="yes"/>
      <point x="446" y="794"/>
      <point x="390" y="811"/>
      <point x="308" y="764" type="curve"/>
      <point x="308" y="758"/>
      <point x="310" y="758"/>
      <point x="310" y="750" type="curve"/>
      <point x="342" y="744"/>
      <point x="368" y="732"/>
      <point x="378" y="728" type="curve" smooth="yes"/>
      <point x="442" y="704"/>
      <point x="452" y="688"/>
      <point x="452" y="656" type="curve" smooth="yes"/>
      <point x="452" y="644"/>
      <point x="440" y="640"/>
    </contour>
  </outline>
</glyph>
<glyph name="plus" format="2">
  <advance width="568"/>
  <unicode hex="002B"/>
  <outline>
    <contour>
      <point x="316" y="528" type="curve" smooth="yes"/>
      <point x="347" y="528"/>
      <point x="360" y="515"/>
      <point x="360" y="436" type="curve" smooth="yes"/>
      <point x="360" y="386"/>
      <point x="358" y="338"/>
      <point x="358" y="290" type="curve"/>
      <point x="436" y="290"/>
      <point x="462" y="302"/>
      <point x="538" y="302" type="curve" smooth="yes"/>
      <point x="560" y="302"/>
      <point x="562" y="290"/>
      <point x="562" y="272" type="curve" smooth="yes"/>
      <point x="562" y="240"/>
      <point x="552" y="236"/>
      <point x="538" y="230" type="curve" smooth="yes"/>
      <point x="492" y="212"/>
      <point x="402" y="208"/>
      <point x="360" y="200" type="curve"/>
      <point x="362" y="76"/>
      <point x="378" y="66"/>
      <point x="378" y="38" type="curve" smooth="yes"/>
      <point x="378" y="16"/>
      <point x="364" y="-14"/>
      <point x="338" y="-14" type="curve" smooth="yes"/>
      <point x="322" y="-14"/>
      <point x="306" y="0"/>
      <point x="292" y="30" type="curve"/>
      <point x="282" y="54"/>
      <point x="278" y="118"/>
      <point x="276" y="194" type="curve"/>
      <point x="225" y="192"/>
      <point x="178" y="191"/>
      <point x="141" y="191" type="curve" smooth="yes"/>
      <point x="104" y="191"/>
      <point x="76" y="192"/>
      <point x="64" y="194" type="curve" smooth="yes"/>
      <point x="40" y="198"/>
      <point x="20" y="218"/>
      <point x="20" y="246" type="curve" smooth="yes"/>
      <point x="20" y="272"/>
      <point x="42" y="284"/>
      <point x="78" y="284" type="curve" smooth="yes"/>
      <point x="100" y="284"/>
      <point x="162" y="282"/>
      <point x="196" y="282" type="curve" smooth="yes"/>
      <point x="228" y="282"/>
      <point x="248" y="284"/>
      <point x="270" y="288" type="curve"/>
      <point x="271" y="295"/>
      <point x="283" y="505"/>
      <point x="290" y="522" type="curve" smooth="yes"/>
      <point x="292" y="526"/>
      <point x="300" y="528"/>
    </contour>
  </outline>
</glyph>
<glyph name="comma" format="2">
  <advance width="182"/>
  <unicode hex="002C"/>
  <outline>
    <contour>
      <point x="116" y="108" type="curve" smooth="yes"/>
      <point x="144" y="108"/>
      <point x="148" y="86"/>
      <point x="148" y="48" type="curve" smooth="yes"/>
      <point x="148" y="-16"/>
      <point x="139" y="-69"/>
      <point x="130" y="-120" type="curve" smooth="yes"/>
      <point x="124" y="-152"/>
      <point x="120" y="-178"/>
      <point x="116" y="-194" type="curve" smooth="yes"/>
      <point x="112" y="-211"/>
      <point x="89" y="-280"/>
      <point x="68" y="-280" type="curve" smooth="yes"/>
      <point x="54" y="-280"/>
      <point x="46" y="-250"/>
      <point x="46" y="-194" type="curve" smooth="yes"/>
      <point x="46" y="-113"/>
      <point x="52" y="-29"/>
      <point x="62" y="52" type="curve" smooth="yes"/>
      <point x="68" y="99"/>
      <point x="86" y="108"/>
    </contour>
  </outline>
</glyph>
<glyph name="hyphen" format="2">
  <advance width="410"/>
  <unicode hex="002D"/>
  <outline>
    <contour>
      <point x="404" y="270" type="curve" smooth="yes"/>
      <point x="404" y="242"/>
      <point x="358" y="216"/>
      <point x="328" y="216" type="curve" smooth="yes"/>
      <point x="241" y="216"/>
      <point x="62" y="216"/>
      <point x="32" y="246" type="curve" smooth="yes"/>
      <point x="22" y="256"/>
      <point x="16" y="264"/>
      <point x="16" y="272" type="curve" smooth="yes"/>
      <point x="16" y="288"/>
      <point x="44" y="314"/>
      <point x="60" y="320" type="curve"/>
      <point x="70" y="322"/>
      <point x="84" y="324"/>
      <point x="112" y="324" type="curve" smooth="yes"/>
      <point x="154" y="324"/>
      <point x="188" y="320"/>
      <point x="212" y="310" type="curve"/>
      <point x="234" y="302"/>
      <point x="272" y="296"/>
      <point x="326" y="294" type="curve" smooth="yes"/>
      <point x="372" y="292"/>
      <point x="404" y="298"/>
    </contour>
  </outline>
</glyph>
<glyph name="period" format="2">
  <advance width="236"/>
  <unicode hex="002E"/>
  <outline>
    <contour>
      <point x="182" y="54" type="curve" smooth="yes"/>
      <point x="182" y="27"/>
      <point x="158" y="-4"/>
      <point x="128" y="-4" type="curve" smooth="yes"/>
      <point x="108" y="-4"/>
      <point x="96" y="4"/>
      <point x="84" y="26" type="curve" smooth="yes"/>
      <point x="72" y="48"/>
      <point x="64" y="62"/>
      <point x="64" y="82" type="curve" smooth="yes"/>
      <point x="64" y="104"/>
      <point x="72" y="128"/>
      <point x="82" y="138" type="curve" smooth="yes"/>
      <point x="88" y="144"/>
      <point x="98" y="146"/>
      <point x="112" y="146" type="curve" smooth="yes"/>
      <point x="128" y="146"/>
      <point x="138" y="140"/>
      <point x="142" y="136" type="curve" smooth="yes"/>
      <point x="156" y="118"/>
      <point x="164" y="96"/>
      <point x="170" y="84" type="curve" smooth="yes"/>
      <point x="176" y="74"/>
      <point x="182" y="66"/>
    </contour>
  </outline>
</glyph>
<glyph name="slash" format="2">
  <advance width="534"/>
  <unicode hex="002F"/>
  <outline>
    <contour>
      <point x="182" y="256" type="curve"/>
      <point x="160" y="214"/>
      <point x="150" y="196"/>
      <point x="130" y="158" type="curve" smooth="yes"/>
      <point x="118" y="134"/>
      <point x="92" y="60"/>
      <point x="88" y="32" type="curve" smooth="yes"/>
      <point x="84" y="10"/>
      <point x="80" y="2"/>
      <point x="62" y="2" type="curve" smooth="yes"/>
      <point x="40" y="2"/>
      <point x="20" y="22"/>
      <point x="20" y="48" type="curve" smooth="yes"/>
      <point x="20" y="68"/>
      <point x="32" y="86"/>
      <point x="42" y="110" type="curve" smooth="yes"/>
      <point x="62" y="162"/>
      <point x="54" y="160"/>
      <point x="106" y="260" type="curve" smooth="yes"/>
      <point x="134" y="314"/>
      <point x="158" y="350"/>
      <point x="168" y="370" type="curve" smooth="yes"/>
      <point x="202" y="436"/>
      <point x="216" y="482"/>
      <point x="248" y="528" type="curve"/>
      <point x="290" y="584"/>
      <point x="268" y="568"/>
      <point x="310" y="648" type="curve" smooth="yes"/>
      <point x="360" y="744"/>
      <point x="332" y="704"/>
      <point x="386" y="798" type="curve" smooth="yes"/>
      <point x="408" y="836"/>
      <point x="432" y="864"/>
      <point x="448" y="884" type="curve" smooth="yes"/>
      <point x="456" y="894"/>
      <point x="468" y="898"/>
      <point x="492" y="898" type="curve" smooth="yes"/>
      <point x="514" y="898"/>
      <point x="524" y="894"/>
      <point x="524" y="880" type="curve" smooth="yes"/>
      <point x="524" y="870"/>
      <point x="522" y="854"/>
      <point x="514" y="838" type="curve"/>
      <point x="504" y="810"/>
      <point x="496" y="802"/>
      <point x="474" y="768" type="curve" smooth="yes"/>
      <point x="442" y="718"/>
      <point x="424" y="682"/>
      <point x="384" y="608" type="curve"/>
      <point x="358" y="564"/>
      <point x="350" y="544"/>
      <point x="320" y="492" type="curve" smooth="yes"/>
      <point x="316" y="486"/>
      <point x="280" y="434"/>
      <point x="252" y="374" type="curve" smooth="yes"/>
      <point x="234" y="334"/>
      <point x="208" y="302"/>
    </contour>
  </outline>
</glyph>
<glyph name="zero" format="2">
  <advance width="516"/>
  <unicode hex="0030"/>
  <outline>
    <contour>
      <point x="286" y="468" type="curve" smooth="yes"/>
      <point x="226" y="468"/>
      <point x="234" y="440"/>
      <point x="186" y="432" type="curve"/>
      <point x="182" y="416"/>
      <point x="168" y="394"/>
      <point x="152" y="376" type="curve" smooth="yes"/>
      <point x="144" y="366"/>
      <point x="130" y="332"/>
      <point x="130" y="304" type="curve" smooth="yes"/>
      <point x="130" y="244"/>
      <point x="140" y="168"/>
      <point x="202" y="104" type="curve" smooth="yes"/>
      <point x="218" y="88"/>
      <point x="248" y="80"/>
      <point x="282" y="80" type="curve" smooth="yes"/>
      <point x="372" y="80"/>
      <point x="402" y="195"/>
      <point x="402" y="266" type="curve" smooth="yes"/>
      <point x="402" y="352"/>
      <point x="384" y="410"/>
      <point x="344" y="450" type="curve" smooth="yes"/>
      <point x="334" y="460"/>
      <point x="316" y="468"/>
    </contour>
    <contour>
      <point x="156" y="490" type="curve"/>
      <point x="157" y="493"/>
      <point x="187" y="544"/>
      <point x="288" y="544" type="curve" smooth="yes"/>
      <point x="338" y="544"/>
      <point x="382" y="526"/>
      <point x="404" y="510" type="curve"/>
      <point x="432" y="488"/>
      <point x="468" y="406"/>
      <point x="476" y="354" type="curve" smooth="yes"/>
      <point x="478" y="338"/>
      <point x="480" y="308"/>
      <point x="480" y="266" type="curve" smooth="yes"/>
      <point x="480" y="4"/>
      <point x="307" y="0"/>
      <point x="304" y="0" type="curve" smooth="yes"/>
      <point x="266" y="0"/>
      <point x="204" y="2"/>
      <point x="164" y="30" type="curve" smooth="yes"/>
      <point x="106" y="69"/>
      <point x="42" y="188"/>
      <point x="42" y="256" type="curve" smooth="yes"/>
      <point x="42" y="344"/>
      <point x="68" y="412"/>
      <point x="98" y="458" type="curve" smooth="yes"/>
      <point x="102" y="464"/>
      <point x="106" y="492"/>
      <point x="132" y="492" type="curve" smooth="yes"/>
      <point x="144" y="492"/>
      <point x="150" y="490"/>
    </contour>
    <contour>
      <point x="210" y="158" type="curve" smooth="yes"/>
      <point x="188" y="158"/>
      <point x="170" y="174"/>
      <point x="170" y="192" type="curve" smooth="yes"/>
      <point x="170" y="218"/>
      <point x="286" y="360"/>
      <point x="300" y="374" type="curve" smooth="yes"/>
      <point x="314" y="388"/>
      <point x="330" y="394"/>
      <point x="340" y="394" type="curve" smooth="yes"/>
      <point x="358" y="394"/>
      <point x="366" y="380"/>
      <point x="366" y="354" type="curve" smooth="yes"/>
      <point x="366" y="340"/>
      <point x="278" y="218"/>
      <point x="268" y="212" type="curve" smooth="yes"/>
      <point x="264" y="210"/>
      <point x="260" y="202"/>
      <point x="258" y="188" type="curve"/>
      <point x="254" y="170"/>
      <point x="232" y="158"/>
    </contour>
  </outline>
</glyph>
<glyph name="one" format="2">
  <advance width="343"/>
  <unicode hex="0031"/>
  <outline>
    <contour>
      <point x="64" y="288" type="curve" smooth="yes"/>
      <point x="53" y="288"/>
      <point x="30" y="314"/>
      <point x="30" y="340" type="curve" smooth="yes"/>
      <point x="30" y="348"/>
      <point x="32" y="350"/>
      <point x="36" y="358" type="curve"/>
      <point x="70" y="410"/>
      <point x="112" y="440"/>
      <point x="144" y="470" type="curve"/>
      <point x="174" y="500"/>
      <point x="190" y="514"/>
      <point x="196" y="528" type="curve" smooth="yes"/>
      <point x="206" y="552"/>
      <point x="210" y="560"/>
      <point x="230" y="560" type="curve" smooth="yes"/>
      <point x="254" y="560"/>
      <point x="264" y="550"/>
      <point x="276" y="536" type="curve" smooth="yes"/>
      <point x="284" y="526"/>
      <point x="288" y="488"/>
      <point x="288" y="404" type="curve" smooth="yes"/>
      <point x="288" y="396"/>
      <point x="284" y="182"/>
      <point x="284" y="180" type="curve" smooth="yes"/>
      <point x="284" y="15"/>
      <point x="306" y="96"/>
      <point x="306" y="24" type="curve" smooth="yes"/>
      <point x="306" y="10"/>
      <point x="306" y="4"/>
      <point x="302" y="2" type="curve"/>
      <point x="296" y="-4"/>
      <point x="256" y="-16"/>
      <point x="246" y="-16" type="curve" smooth="yes"/>
      <point x="222" y="-16"/>
      <point x="202" y="-2"/>
      <point x="202" y="20" type="curve" smooth="yes"/>
      <point x="202" y="65"/>
      <point x="198" y="94"/>
      <point x="198" y="144" type="curve" smooth="yes"/>
      <point x="198" y="228"/>
      <point x="210" y="344"/>
      <point x="210" y="370" type="curve" smooth="yes"/>
      <point x="210" y="386"/>
      <point x="208" y="400"/>
      <point x="206" y="410" type="curve"/>
      <point x="163" y="384"/>
      <point x="82" y="288"/>
    </contour>
  </outline>
</glyph>
<glyph name="two" format="2">
  <advance width="478"/>
  <unicode hex="0032"/>
  <outline>
    <contour>
      <point x="306" y="404" type="curve" smooth="yes"/>
      <point x="306" y="442"/>
      <point x="298" y="458"/>
      <point x="254" y="458" type="curve" smooth="yes"/>
      <point x="186" y="458"/>
      <point x="174" y="452"/>
      <point x="122" y="406" type="curve" smooth="yes"/>
      <point x="98" y="384"/>
      <point x="82" y="374"/>
      <point x="72" y="374" type="curve" smooth="yes"/>
      <point x="62" y="374"/>
      <point x="52" y="382"/>
      <point x="52" y="394" type="curve" smooth="yes"/>
      <point x="52" y="446"/>
      <point x="92" y="470"/>
      <point x="124" y="502" type="curve" smooth="yes"/>
      <point x="160" y="538"/>
      <point x="206" y="550"/>
      <point x="256" y="550" type="curve" smooth="yes"/>
      <point x="328" y="550"/>
      <point x="384" y="506"/>
      <point x="384" y="438" type="curve" smooth="yes"/>
      <point x="384" y="320"/>
      <point x="342" y="258"/>
      <point x="302" y="204" type="curve" smooth="yes"/>
      <point x="264" y="152"/>
      <point x="244" y="124"/>
      <point x="208" y="80" type="curve"/>
      <point x="234" y="80"/>
      <point x="240" y="82"/>
      <point x="250" y="82" type="curve" smooth="yes"/>
      <point x="268" y="82"/>
      <point x="292" y="88"/>
      <point x="348" y="88" type="curve" smooth="yes"/>
      <point x="406" y="88"/>
      <point x="444" y="74"/>
      <point x="456" y="42" type="curve" smooth="yes"/>
      <point x="460" y="34"/>
      <point x="462" y="28"/>
      <point x="462" y="22" type="curve" smooth="yes"/>
      <point x="462" y="12"/>
      <point x="452" y="4"/>
      <point x="436" y="0" type="curve" smooth="yes"/>
      <point x="365" y="-14"/>
      <point x="360" y="7"/>
      <point x="84" y="-32" type="curve" smooth="yes"/>
      <point x="72" y="-34"/>
      <point x="62" y="-34"/>
      <point x="56" y="-34" type="curve" smooth="yes"/>
      <point x="50" y="-34"/>
      <point x="46" y="-34"/>
      <point x="46" y="-28" type="curve" smooth="yes"/>
      <point x="46" y="4"/>
      <point x="26" y="6"/>
      <point x="26" y="30" type="curve" smooth="yes"/>
      <point x="26" y="58"/>
      <point x="62" y="74"/>
      <point x="88" y="86" type="curve" smooth="yes"/>
      <point x="132" y="108"/>
      <point x="174" y="172"/>
      <point x="204" y="214" type="curve" smooth="yes"/>
      <point x="254" y="286"/>
      <point x="306" y="344"/>
    </contour>
  </outline>
</glyph>
<glyph name="three" format="2">
  <advance width="510"/>
  <unicode hex="0033"/>
  <outline>
    <contour>
      <point x="250" y="544" type="curve" smooth="yes"/>
      <point x="332" y="544"/>
      <point x="356" y="518"/>
      <point x="388" y="472" type="curve"/>
      <point x="402" y="454"/>
      <point x="412" y="390"/>
      <point x="412" y="338" type="curve" smooth="yes"/>
      <point x="412" y="292"/>
      <point x="394" y="206"/>
      <point x="328" y="156" type="curve"/>
      <point x="368" y="140"/>
      <point x="386" y="122"/>
      <point x="418" y="100" type="curve"/>
      <point x="462" y="68"/>
      <point x="474" y="40"/>
      <point x="474" y="-14" type="curve" smooth="yes"/>
      <point x="474" y="-46"/>
      <point x="468" y="-76"/>
      <point x="446" y="-106" type="curve" smooth="yes"/>
      <point x="426" y="-134"/>
      <point x="376" y="-188"/>
      <point x="340" y="-224" type="curve" smooth="yes"/>
      <point x="286" y="-276"/>
      <point x="238" y="-310"/>
      <point x="192" y="-310" type="curve" smooth="yes"/>
      <point x="158" y="-310"/>
      <point x="114" y="-288"/>
      <point x="114" y="-256" type="curve" smooth="yes"/>
      <point x="114" y="-246"/>
      <point x="122" y="-240"/>
      <point x="136" y="-236" type="curve" smooth="yes"/>
      <point x="176" y="-226"/>
      <point x="236" y="-200"/>
      <point x="284" y="-168" type="curve" smooth="yes"/>
      <point x="322" y="-142"/>
      <point x="390" y="-70"/>
      <point x="390" y="-30" type="curve" smooth="yes"/>
      <point x="390" y="28"/>
      <point x="312" y="70"/>
      <point x="248" y="70" type="curve" smooth="yes"/>
      <point x="224" y="70"/>
      <point x="198" y="64"/>
      <point x="184" y="64" type="curve" smooth="yes"/>
      <point x="154" y="64"/>
      <point x="140" y="74"/>
      <point x="140" y="96" type="curve" smooth="yes"/>
      <point x="140" y="136"/>
      <point x="168" y="156"/>
      <point x="192" y="162" type="curve"/>
      <point x="246" y="172"/>
      <point x="336" y="260"/>
      <point x="336" y="338" type="curve" smooth="yes"/>
      <point x="336" y="398"/>
      <point x="308" y="454"/>
      <point x="248" y="454" type="curve" smooth="yes"/>
      <point x="214" y="454"/>
      <point x="184" y="442"/>
      <point x="160" y="420" type="curve"/>
      <point x="136" y="396"/>
      <point x="120" y="398"/>
      <point x="98" y="356" type="curve"/>
      <point x="86" y="330"/>
      <point x="74" y="318"/>
      <point x="64" y="318" type="curve" smooth="yes"/>
      <point x="52" y="318"/>
      <point x="42" y="338"/>
      <point x="42" y="376" type="curve" smooth="yes"/>
      <point x="42" y="436"/>
      <point x="56" y="460"/>
      <point x="90" y="478" type="curve"/>
      <point x="136" y="504"/>
      <point x="176" y="544"/>
    </contour>
  </outline>
</glyph>
<glyph name="four" format="2">
  <advance width="554"/>
  <unicode hex="0034"/>
  <outline>
    <contour>
      <point x="544" y="62" type="curve" smooth="yes"/>
      <point x="544" y="50"/>
      <point x="538" y="8"/>
      <point x="426" y="8" type="curve"/>
      <point x="426" y="-106"/>
      <point x="456" y="-206"/>
      <point x="464" y="-216" type="curve" smooth="yes"/>
      <point x="474" y="-228"/>
      <point x="478" y="-242"/>
      <point x="478" y="-254" type="curve" smooth="yes"/>
      <point x="478" y="-268"/>
      <point x="464" y="-302"/>
      <point x="448" y="-302" type="curve" smooth="yes"/>
      <point x="442" y="-302"/>
      <point x="436" y="-300"/>
      <point x="426" y="-298" type="curve" smooth="yes"/>
      <point x="378" y="-288"/>
      <point x="364" y="-232"/>
      <point x="340" y="-118" type="curve" smooth="yes"/>
      <point x="336" y="-100"/>
      <point x="330" y="-42"/>
      <point x="328" y="4" type="curve"/>
      <point x="277" y="4" type="line" smooth="yes"/>
      <point x="238" y="4"/>
      <point x="187" y="-2"/>
      <point x="141" y="-2" type="curve" smooth="yes"/>
      <point x="112" y="-2"/>
      <point x="85" y="1"/>
      <point x="64" y="8" type="curve" smooth="yes"/>
      <point x="36" y="18"/>
      <point x="30" y="50"/>
      <point x="30" y="92" type="curve" smooth="yes"/>
      <point x="30" y="132"/>
      <point x="50" y="166"/>
      <point x="58" y="182" type="curve" smooth="yes"/>
      <point x="84" y="236"/>
      <point x="94" y="272"/>
      <point x="120" y="330" type="curve" smooth="yes"/>
      <point x="128" y="346"/>
      <point x="148" y="378"/>
      <point x="200" y="510" type="curve" smooth="yes"/>
      <point x="212" y="538"/>
      <point x="224" y="574"/>
      <point x="240" y="574" type="curve" smooth="yes"/>
      <point x="254" y="574"/>
      <point x="288" y="554"/>
      <point x="288" y="540" type="curve" smooth="yes"/>
      <point x="288" y="481"/>
      <point x="226" y="348"/>
      <point x="198" y="288" type="curve" smooth="yes"/>
      <point x="176" y="238"/>
      <point x="144" y="192"/>
      <point x="130" y="128" type="curve" smooth="yes"/>
      <point x="129" y="124"/>
      <point x="129" y="120"/>
      <point x="129" y="117" type="curve" smooth="yes"/>
      <point x="129" y="97"/>
      <point x="147" y="93"/>
      <point x="172" y="93" type="curve" smooth="yes"/>
      <point x="219" y="93"/>
      <point x="223" y="98"/>
      <point x="278" y="98" type="curve" smooth="yes"/>
      <point x="299" y="98"/>
      <point x="317" y="97"/>
      <point x="336" y="96" type="curve"/>
      <point x="338" y="136"/>
      <point x="360" y="220"/>
      <point x="362" y="246" type="curve" smooth="yes"/>
      <point x="364" y="276"/>
      <point x="384" y="304"/>
      <point x="416" y="304" type="curve" smooth="yes"/>
      <point x="428" y="304"/>
      <point x="440" y="300"/>
      <point x="440" y="292" type="curve" smooth="yes"/>
      <point x="440" y="284"/>
      <point x="440" y="250"/>
      <point x="434" y="190" type="curve" smooth="yes"/>
      <point x="424" y="98" type="line"/>
      <point x="435" y="95"/>
      <point x="446" y="94"/>
      <point x="456" y="94" type="curve" smooth="yes"/>
      <point x="476" y="94"/>
      <point x="493" y="98"/>
      <point x="512" y="98" type="curve" smooth="yes"/>
      <point x="520" y="98"/>
      <point x="544" y="72"/>
    </contour>
  </outline>
</glyph>
<glyph name="five" format="2">
  <advance width="528"/>
  <unicode hex="0035"/>
  <outline>
    <contour>
      <point x="302" y="124" type="curve" smooth="yes"/>
      <point x="228" y="124"/>
      <point x="124" y="72"/>
      <point x="85" y="72" type="curve" smooth="yes"/>
      <point x="51" y="72"/>
      <point x="41" y="86"/>
      <point x="41" y="133" type="curve" smooth="yes"/>
      <point x="41" y="165"/>
      <point x="45" y="211"/>
      <point x="51" y="278" type="curve" smooth="yes"/>
      <point x="57" y="352"/>
      <point x="69" y="424"/>
      <point x="74" y="463" type="curve"/>
      <point x="59" y="478"/>
      <point x="54" y="497"/>
      <point x="54" y="510" type="curve" smooth="yes"/>
      <point x="54" y="524"/>
      <point x="62" y="536"/>
      <point x="89" y="536" type="curve" smooth="yes"/>
      <point x="132" y="536"/>
      <point x="223" y="520"/>
      <point x="296" y="520" type="curve" smooth="yes"/>
      <point x="322" y="520"/>
      <point x="422" y="527"/>
      <point x="423" y="527" type="curve" smooth="yes"/>
      <point x="470" y="527"/>
      <point x="480" y="515"/>
      <point x="480" y="484" type="curve" smooth="yes"/>
      <point x="480" y="449"/>
      <point x="420" y="436"/>
      <point x="279" y="430" type="curve"/>
      <point x="249" y="430" type="line" smooth="yes"/>
      <point x="216" y="430"/>
      <point x="187" y="431"/>
      <point x="159" y="435" type="curve"/>
      <point x="153" y="388"/>
      <point x="141" y="346"/>
      <point x="134" y="274" type="curve" smooth="yes"/>
      <point x="132" y="250"/>
      <point x="129" y="198"/>
      <point x="128" y="176" type="curve"/>
      <point x="156" y="187"/>
      <point x="242" y="214"/>
      <point x="303" y="214" type="curve" smooth="yes"/>
      <point x="422" y="214"/>
      <point x="480" y="166"/>
      <point x="480" y="49" type="curve" smooth="yes"/>
      <point x="480" y="-38"/>
      <point x="396" y="-151"/>
      <point x="283" y="-254" type="curve" smooth="yes"/>
      <point x="249" y="-286"/>
      <point x="204" y="-311"/>
      <point x="182" y="-311" type="curve" smooth="yes"/>
      <point x="131" y="-311"/>
      <point x="104" y="-250"/>
      <point x="104" y="-210" type="curve" smooth="yes"/>
      <point x="104" y="-197"/>
      <point x="114" y="-187"/>
      <point x="130" y="-187" type="curve" smooth="yes"/>
      <point x="157" y="-187"/>
      <point x="164" y="-202"/>
      <point x="185" y="-202" type="curve" smooth="yes"/>
      <point x="220" y="-202"/>
      <point x="391" y="-28"/>
      <point x="391" y="46" type="curve" smooth="yes"/>
      <point x="391" y="90"/>
      <point x="366" y="124"/>
    </contour>
  </outline>
</glyph>
<glyph name="seven" format="2">
  <advance width="560"/>
  <unicode hex="0037"/>
  <outline>
    <contour>
      <point x="362" y="-182" type="curve" smooth="yes"/>
      <point x="362" y="-249"/>
      <point x="374" y="-242"/>
      <point x="374" y="-260" type="curve" smooth="yes"/>
      <point x="374" y="-278"/>
      <point x="350" y="-324"/>
      <point x="338" y="-324" type="curve" smooth="yes"/>
      <point x="334" y="-324"/>
      <point x="322" y="-314"/>
      <point x="304" y="-296" type="curve" smooth="yes"/>
      <point x="288" y="-280"/>
      <point x="278" y="-256"/>
      <point x="278" y="-228" type="curve" smooth="yes"/>
      <point x="278" y="-116"/>
      <point x="298" y="-20"/>
      <point x="312" y="26" type="curve" smooth="yes"/>
      <point x="320" y="50"/>
      <point x="356" y="160"/>
      <point x="366" y="202" type="curve" smooth="yes"/>
      <point x="376" y="242"/>
      <point x="380" y="266"/>
      <point x="396" y="316" type="curve" smooth="yes"/>
      <point x="406" y="348"/>
      <point x="426" y="402"/>
      <point x="426" y="428" type="curve"/>
      <point x="400" y="431"/>
      <point x="353" y="431"/>
      <point x="303" y="431" type="curve" smooth="yes"/>
      <point x="236" y="431"/>
      <point x="163" y="430"/>
      <point x="128" y="430" type="curve"/>
      <point x="130" y="418"/>
      <point x="132" y="404"/>
      <point x="134" y="394" type="curve" smooth="yes"/>
      <point x="152" y="322"/>
      <point x="164" y="292"/>
      <point x="164" y="280" type="curve" smooth="yes"/>
      <point x="164" y="268"/>
      <point x="139" y="212"/>
      <point x="128" y="212" type="curve" smooth="yes"/>
      <point x="118" y="212"/>
      <point x="108" y="220"/>
      <point x="98" y="232" type="curve" smooth="yes"/>
      <point x="88" y="244"/>
      <point x="86" y="262"/>
      <point x="84" y="278" type="curve" smooth="yes"/>
      <point x="78" y="324"/>
      <point x="32" y="446"/>
      <point x="32" y="478" type="curve" smooth="yes"/>
      <point x="32" y="488"/>
      <point x="36" y="498"/>
      <point x="42" y="506" type="curve" smooth="yes"/>
      <point x="56" y="526"/>
      <point x="66" y="528"/>
      <point x="120" y="528" type="curve" smooth="yes"/>
      <point x="207" y="528"/>
      <point x="153" y="520"/>
      <point x="244" y="520" type="curve" smooth="yes"/>
      <point x="344" y="520" type="line" smooth="yes"/>
      <point x="466" y="520"/>
      <point x="470" y="526"/>
      <point x="500" y="526" type="curve" smooth="yes"/>
      <point x="526" y="526"/>
      <point x="538" y="506"/>
      <point x="538" y="488" type="curve" smooth="yes"/>
      <point x="538" y="458"/>
      <point x="524" y="440"/>
      <point x="508" y="396" type="curve"/>
      <point x="502" y="384"/>
      <point x="502" y="372"/>
      <point x="500" y="362" type="curve" smooth="yes"/>
      <point x="490" y="308"/>
      <point x="466" y="268"/>
      <point x="454" y="220" type="curve"/>
      <point x="432" y="142"/>
      <point x="414" y="60"/>
      <point x="384" y="-34" type="curve"/>
      <point x="372" y="-86"/>
      <point x="362" y="-136"/>
    </contour>
  </outline>
</glyph>
<glyph name="eight" format="2">
  <advance width="522"/>
  <unicode hex="0038"/>
  <outline>
    <contour>
      <point x="248" y="410" type="curve"/>
      <point x="230" y="424"/>
      <point x="232" y="432"/>
      <point x="218" y="446" type="curve"/>
      <point x="208" y="438"/>
      <point x="176" y="408"/>
      <point x="166" y="392" type="curve"/>
      <point x="136" y="352"/>
      <point x="124" y="310"/>
      <point x="124" y="240" type="curve" smooth="yes"/>
      <point x="124" y="190"/>
      <point x="128" y="162"/>
      <point x="136" y="148" type="curve" smooth="yes"/>
      <point x="158" y="112"/>
      <point x="190" y="90"/>
      <point x="226" y="90" type="curve" smooth="yes"/>
      <point x="268" y="90"/>
      <point x="312" y="112"/>
      <point x="334" y="122" type="curve"/>
      <point x="366" y="140"/>
      <point x="394" y="160"/>
      <point x="394" y="202" type="curve" smooth="yes"/>
      <point x="394" y="234"/>
      <point x="372" y="270"/>
      <point x="320" y="330" type="curve" smooth="yes"/>
      <point x="292" y="362"/>
      <point x="266" y="394"/>
    </contour>
    <contour>
      <point x="384" y="562" type="curve" smooth="yes"/>
      <point x="402" y="592"/>
      <point x="418" y="632"/>
      <point x="418" y="664" type="curve" smooth="yes"/>
      <point x="418" y="694"/>
      <point x="410" y="726"/>
      <point x="388" y="758" type="curve"/>
      <point x="370" y="786"/>
      <point x="342" y="808"/>
      <point x="276" y="808" type="curve" smooth="yes"/>
      <point x="242" y="808"/>
      <point x="210" y="792"/>
      <point x="192" y="782" type="curve"/>
      <point x="172" y="768"/>
      <point x="168" y="758"/>
      <point x="168" y="730" type="curve" smooth="yes"/>
      <point x="168" y="698"/>
      <point x="178" y="670"/>
      <point x="186" y="650" type="curve" smooth="yes"/>
      <point x="196" y="624"/>
      <point x="214" y="600"/>
      <point x="262" y="528" type="curve" smooth="yes"/>
      <point x="290" y="484"/>
      <point x="296" y="484"/>
      <point x="322" y="456" type="curve"/>
      <point x="338" y="482"/>
      <point x="352" y="508"/>
    </contour>
    <contour>
      <point x="268" y="890" type="curve" smooth="yes"/>
      <point x="366" y="890"/>
      <point x="378" y="874"/>
      <point x="428" y="830" type="curve" smooth="yes"/>
      <point x="464" y="798"/>
      <point x="478" y="772"/>
      <point x="486" y="740" type="curve" smooth="yes"/>
      <point x="490" y="726"/>
      <point x="491" y="713"/>
      <point x="491" y="702" type="curve" smooth="yes"/>
      <point x="491" y="692"/>
      <point x="490" y="683"/>
      <point x="490" y="678" type="curve" smooth="yes"/>
      <point x="490" y="616"/>
      <point x="486" y="598"/>
      <point x="464" y="544" type="curve" smooth="yes"/>
      <point x="458" y="528"/>
      <point x="410" y="444"/>
      <point x="396" y="418" type="curve" smooth="yes"/>
      <point x="390" y="408"/>
      <point x="380" y="400"/>
      <point x="370" y="394" type="curve"/>
      <point x="392" y="374"/>
      <point x="440" y="298"/>
      <point x="450" y="280" type="curve"/>
      <point x="472" y="246"/>
      <point x="480" y="208"/>
      <point x="480" y="176" type="curve" smooth="yes"/>
      <point x="480" y="83"/>
      <point x="293" y="4"/>
      <point x="210" y="4" type="curve" smooth="yes"/>
      <point x="156" y="4"/>
      <point x="154" y="8"/>
      <point x="120" y="36" type="curve"/>
      <point x="94" y="60"/>
      <point x="70" y="96"/>
      <point x="48" y="150" type="curve" smooth="yes"/>
      <point x="44" y="160"/>
      <point x="42" y="186"/>
      <point x="42" y="222" type="curve" smooth="yes"/>
      <point x="42" y="317"/>
      <point x="46" y="345"/>
      <point x="98" y="428" type="curve" smooth="yes"/>
      <point x="128" y="476"/>
      <point x="154" y="488"/>
      <point x="170" y="508" type="curve"/>
      <point x="164" y="522"/>
      <point x="148" y="546"/>
      <point x="140" y="556" type="curve" smooth="yes"/>
      <point x="86" y="635"/>
      <point x="78" y="656"/>
      <point x="78" y="752" type="curve" smooth="yes"/>
      <point x="78" y="768"/>
      <point x="82" y="798"/>
      <point x="102" y="822" type="curve" smooth="yes"/>
      <point x="150" y="879"/>
      <point x="193" y="890"/>
    </contour>
  </outline>
</glyph>
<glyph name="nine" format="2">
  <advance width="544"/>
  <unicode hex="0039"/>
  <outline>
    <contour>
      <point x="360" y="356" type="curve"/>
      <point x="348" y="414"/>
      <point x="300" y="450"/>
      <point x="268" y="450" type="curve" smooth="yes"/>
      <point x="234" y="450"/>
      <point x="220" y="446"/>
      <point x="192" y="414" type="curve"/>
      <point x="142" y="360"/>
      <point x="130" y="306"/>
      <point x="130" y="190" type="curve" smooth="yes"/>
      <point x="130" y="144"/>
      <point x="158" y="118"/>
      <point x="204" y="118" type="curve" smooth="yes"/>
      <point x="214" y="118"/>
      <point x="228" y="122"/>
      <point x="242" y="128" type="curve"/>
      <point x="268" y="142"/>
      <point x="320" y="196"/>
      <point x="370" y="258" type="curve" smooth="yes"/>
      <point x="378" y="268"/>
      <point x="382" y="278"/>
      <point x="392" y="292" type="curve"/>
      <point x="380" y="296"/>
      <point x="370" y="314"/>
    </contour>
    <contour>
      <point x="494" y="394" type="curve" smooth="yes"/>
      <point x="503" y="394"/>
      <point x="524" y="394"/>
      <point x="524" y="346" type="curve" smooth="yes"/>
      <point x="524" y="326"/>
      <point x="516" y="308"/>
      <point x="506" y="256" type="curve"/>
      <point x="498" y="224"/>
      <point x="486" y="104"/>
      <point x="484" y="74" type="curve" smooth="yes"/>
      <point x="482" y="42"/>
      <point x="458" y="-36"/>
      <point x="454" y="-60" type="curve" smooth="yes"/>
      <point x="450" y="-88"/>
      <point x="440" y="-150"/>
      <point x="440" y="-204" type="curve" smooth="yes"/>
      <point x="440" y="-292"/>
      <point x="428" y="-336"/>
      <point x="404" y="-336" type="curve" smooth="yes"/>
      <point x="386" y="-336"/>
      <point x="362" y="-306"/>
      <point x="358" y="-288" type="curve" smooth="yes"/>
      <point x="356" y="-278"/>
      <point x="356" y="-252"/>
      <point x="356" y="-218" type="curve" smooth="yes"/>
      <point x="356" y="-71"/>
      <point x="386" y="-6"/>
      <point x="390" y="30" type="curve"/>
      <point x="400" y="92"/>
      <point x="410" y="130"/>
      <point x="420" y="192" type="curve"/>
      <point x="367" y="129"/>
      <point x="246" y="16"/>
      <point x="166" y="16" type="curve" smooth="yes"/>
      <point x="122" y="16"/>
      <point x="64" y="84"/>
      <point x="54" y="118" type="curve" smooth="yes"/>
      <point x="46" y="142"/>
      <point x="42" y="184"/>
      <point x="42" y="240" type="curve" smooth="yes"/>
      <point x="42" y="342"/>
      <point x="68" y="384"/>
      <point x="106" y="448" type="curve" smooth="yes"/>
      <point x="142" y="506"/>
      <point x="190" y="544"/>
      <point x="244" y="544" type="curve" smooth="yes"/>
      <point x="278" y="544"/>
      <point x="304" y="542"/>
      <point x="320" y="532" type="curve"/>
      <point x="386" y="498"/>
      <point x="420" y="464"/>
      <point x="448" y="370" type="curve"/>
      <point x="464" y="384"/>
      <point x="478" y="394"/>
    </contour>
  </outline>
</glyph>
<glyph name="colon" format="2">
  <advance width="194"/>
  <unicode hex="003A"/>
  <outline>
    <contour>
      <point x="82" y="426" type="curve" smooth="yes"/>
      <point x="63" y="426"/>
      <point x="42" y="435"/>
      <point x="42" y="474" type="curve" smooth="yes"/>
      <point x="42" y="486"/>
      <point x="42" y="504"/>
      <point x="46" y="522" type="curve" smooth="yes"/>
      <point x="50" y="540"/>
      <point x="66" y="550"/>
      <point x="72" y="550" type="curve" smooth="yes"/>
      <point x="82" y="550"/>
      <point x="112" y="554"/>
      <point x="126" y="554" type="curve" smooth="yes"/>
      <point x="154" y="554"/>
      <point x="170" y="523"/>
      <point x="170" y="498" type="curve" smooth="yes"/>
      <point x="170" y="453"/>
      <point x="123" y="426"/>
    </contour>
    <contour>
      <point x="84" y="96" type="curve" smooth="yes"/>
      <point x="93" y="96"/>
      <point x="152" y="94"/>
      <point x="152" y="32" type="curve" smooth="yes"/>
      <point x="152" y="20"/>
      <point x="142" y="20"/>
      <point x="130" y="8" type="curve"/>
      <point x="114" y="-12"/>
      <point x="96" y="-18"/>
      <point x="74" y="-18" type="curve" smooth="yes"/>
      <point x="54" y="-18"/>
      <point x="42" y="-6"/>
      <point x="42" y="4" type="curve" smooth="yes"/>
      <point x="42" y="21"/>
      <point x="28" y="41"/>
      <point x="28" y="50" type="curve" smooth="yes"/>
      <point x="28" y="65"/>
      <point x="45" y="96"/>
    </contour>
  </outline>
</glyph>
<glyph name="semicolon" format="2">
  <advance width="180"/>
  <unicode hex="003B"/>
  <outline>
    <contour>
      <point x="106" y="538" type="curve" smooth="yes"/>
      <point x="118" y="538"/>
      <point x="142" y="533"/>
      <point x="146" y="520" type="curve"/>
      <point x="150" y="512"/>
      <point x="152" y="496"/>
      <point x="152" y="484" type="curve" smooth="yes"/>
      <point x="152" y="450"/>
      <point x="105" y="414"/>
      <point x="72" y="414" type="curve" smooth="yes"/>
      <point x="48" y="414"/>
      <point x="38" y="436"/>
      <point x="38" y="478" type="curve" smooth="yes"/>
      <point x="38" y="496"/>
      <point x="40" y="506"/>
      <point x="42" y="510" type="curve" smooth="yes"/>
      <point x="46" y="526"/>
      <point x="72" y="538"/>
    </contour>
    <contour>
      <point x="56" y="42" type="curve" smooth="yes"/>
      <point x="56" y="111"/>
      <point x="61" y="122"/>
      <point x="102" y="122" type="curve" smooth="yes"/>
      <point x="114" y="122"/>
      <point x="154" y="120"/>
      <point x="154" y="88" type="curve" smooth="yes"/>
      <point x="154" y="78"/>
      <point x="150" y="80"/>
      <point x="146" y="6" type="curve" smooth="yes"/>
      <point x="144" y="-20"/>
      <point x="140" y="-58"/>
      <point x="130" y="-86" type="curve" smooth="yes"/>
      <point x="126" y="-100"/>
      <point x="122" y="-116"/>
      <point x="122" y="-128" type="curve" smooth="yes"/>
      <point x="122" y="-150"/>
      <point x="100" y="-172"/>
      <point x="78" y="-172" type="curve" smooth="yes"/>
      <point x="58" y="-172"/>
      <point x="48" y="-164"/>
      <point x="48" y="-130" type="curve" smooth="yes"/>
      <point x="48" y="-101"/>
      <point x="56" y="7"/>
    </contour>
  </outline>
</glyph>
<glyph name="less" format="2">
  <advance width="572"/>
  <unicode hex="003C"/>
  <outline>
    <contour>
      <point x="76" y="188" type="curve" smooth="yes"/>
      <point x="48" y="212"/>
      <point x="40" y="232"/>
      <point x="40" y="252" type="curve" smooth="yes"/>
      <point x="40" y="269"/>
      <point x="50" y="306"/>
      <point x="68" y="312" type="curve" smooth="yes"/>
      <point x="70" y="313"/>
      <point x="143" y="342"/>
      <point x="276" y="434" type="curve" smooth="yes"/>
      <point x="316" y="462"/>
      <point x="330" y="470"/>
      <point x="388" y="502" type="curve"/>
      <point x="414" y="514"/>
      <point x="428" y="522"/>
      <point x="430" y="526" type="curve" smooth="yes"/>
      <point x="434" y="532"/>
      <point x="442" y="534"/>
      <point x="452" y="534" type="curve" smooth="yes"/>
      <point x="464" y="534"/>
      <point x="512" y="506"/>
      <point x="512" y="496" type="curve" smooth="yes"/>
      <point x="512" y="476"/>
      <point x="508" y="464"/>
      <point x="476" y="458" type="curve"/>
      <point x="412" y="450"/>
      <point x="134" y="272"/>
      <point x="134" y="260" type="curve" smooth="yes"/>
      <point x="134" y="252"/>
      <point x="172" y="234"/>
      <point x="208" y="210" type="curve"/>
      <point x="302" y="152"/>
      <point x="326" y="158"/>
      <point x="410" y="112" type="curve" smooth="yes"/>
      <point x="447" y="91"/>
      <point x="558" y="30"/>
      <point x="558" y="2" type="curve" smooth="yes"/>
      <point x="558" y="-14"/>
      <point x="540" y="-22"/>
      <point x="504" y="-24" type="curve"/>
      <point x="472" y="-24"/>
      <point x="460" y="-16"/>
      <point x="442" y="-6" type="curve"/>
      <point x="398" y="22"/>
      <point x="358" y="38"/>
      <point x="202" y="112" type="curve" smooth="yes"/>
      <point x="144" y="140"/>
      <point x="120" y="150"/>
    </contour>
  </outline>
</glyph>
<glyph name="equal" format="2">
  <advance width="468"/>
  <unicode hex="003D"/>
  <outline>
    <contour>
      <point x="376" y="430" type="curve" smooth="yes"/>
      <point x="378" y="430"/>
      <point x="382" y="434"/>
      <point x="384" y="434" type="curve" smooth="yes"/>
      <point x="403" y="434"/>
      <point x="456" y="401"/>
      <point x="456" y="380" type="curve" smooth="yes"/>
      <point x="456" y="370"/>
      <point x="446" y="362"/>
      <point x="430" y="354" type="curve"/>
      <point x="422" y="351"/>
      <point x="222" y="340"/>
      <point x="192" y="340" type="curve" smooth="yes"/>
      <point x="138" y="340"/>
      <point x="80" y="344"/>
      <point x="76" y="344" type="curve"/>
      <point x="74" y="342"/>
      <point x="68" y="342"/>
      <point x="62" y="342" type="curve" smooth="yes"/>
      <point x="54" y="342"/>
      <point x="20" y="360"/>
      <point x="20" y="384" type="curve" smooth="yes"/>
      <point x="20" y="392"/>
      <point x="24" y="400"/>
      <point x="28" y="406" type="curve" smooth="yes"/>
      <point x="32" y="414"/>
      <point x="44" y="418"/>
      <point x="64" y="420" type="curve" smooth="yes"/>
      <point x="84" y="422"/>
      <point x="132" y="422"/>
      <point x="208" y="424" type="curve"/>
      <point x="320" y="424"/>
      <point x="370" y="428"/>
    </contour>
    <contour>
      <point x="28" y="224" type="curve" smooth="yes"/>
      <point x="29" y="225"/>
      <point x="30" y="225"/>
      <point x="31" y="225" type="curve" smooth="yes"/>
      <point x="33" y="225"/>
      <point x="37" y="224"/>
      <point x="42" y="224" type="curve" smooth="yes"/>
      <point x="74" y="224"/>
      <point x="80" y="214"/>
      <point x="106" y="212" type="curve"/>
      <point x="156" y="206"/>
      <point x="184" y="204"/>
      <point x="234" y="204" type="curve" smooth="yes"/>
      <point x="374" y="204" type="line" smooth="yes"/>
      <point x="384" y="204"/>
      <point x="386" y="208"/>
      <point x="396" y="208" type="curve" smooth="yes"/>
      <point x="419" y="208"/>
      <point x="452" y="193"/>
      <point x="452" y="166" type="curve" smooth="yes"/>
      <point x="452" y="146"/>
      <point x="415" y="136"/>
      <point x="400" y="136" type="curve" smooth="yes"/>
      <point x="354" y="136"/>
      <point x="284" y="128"/>
      <point x="220" y="128" type="curve" smooth="yes"/>
      <point x="164" y="128"/>
      <point x="94" y="140"/>
      <point x="58" y="154" type="curve" smooth="yes"/>
      <point x="32" y="164"/>
      <point x="22" y="186"/>
      <point x="22" y="200" type="curve" smooth="yes"/>
      <point x="22" y="210"/>
      <point x="24" y="216"/>
    </contour>
  </outline>
</glyph>
<glyph name="greater" format="2">
  <advance width="570"/>
  <unicode hex="003E"/>
  <outline>
    <contour>
      <point x="450" y="384" type="curve" smooth="yes"/>
      <point x="510" y="358"/>
      <point x="490" y="366"/>
      <point x="538" y="340" type="curve"/>
      <point x="554" y="330"/>
      <point x="564" y="318"/>
      <point x="564" y="304" type="curve" smooth="yes"/>
      <point x="564" y="282"/>
      <point x="556" y="254"/>
      <point x="524" y="244" type="curve" smooth="yes"/>
      <point x="518" y="242"/>
      <point x="486" y="230"/>
      <point x="430" y="202" type="curve" smooth="yes"/>
      <point x="356" y="166"/>
      <point x="300" y="148"/>
      <point x="230" y="74" type="curve" smooth="yes"/>
      <point x="194" y="36"/>
      <point x="172" y="10"/>
      <point x="170" y="-2" type="curve"/>
      <point x="164" y="-24"/>
      <point x="146" y="-32"/>
      <point x="116" y="-32" type="curve" smooth="yes"/>
      <point x="84" y="-32"/>
      <point x="68" y="-26"/>
      <point x="68" y="-10" type="curve" smooth="yes"/>
      <point x="68" y="4"/>
      <point x="80" y="18"/>
      <point x="82" y="32" type="curve" smooth="yes"/>
      <point x="84" y="42"/>
      <point x="106" y="70"/>
      <point x="150" y="118" type="curve" smooth="yes"/>
      <point x="188" y="160"/>
      <point x="206" y="178"/>
      <point x="250" y="206" type="curve" smooth="yes"/>
      <point x="288" y="230"/>
      <point x="314" y="240"/>
      <point x="358" y="266" type="curve" smooth="yes"/>
      <point x="380" y="278"/>
      <point x="406" y="290"/>
      <point x="420" y="300" type="curve"/>
      <point x="376" y="318"/>
      <point x="318" y="332"/>
      <point x="172" y="382" type="curve" smooth="yes"/>
      <point x="140" y="392"/>
      <point x="94" y="416"/>
      <point x="46" y="438" type="curve" smooth="yes"/>
      <point x="38" y="442"/>
      <point x="22" y="452"/>
      <point x="22" y="466" type="curve" smooth="yes"/>
      <point x="22" y="494"/>
      <point x="54" y="540"/>
      <point x="72" y="540" type="curve" smooth="yes"/>
      <point x="102" y="540"/>
      <point x="100" y="520"/>
      <point x="112" y="512" type="curve"/>
      <point x="138" y="498"/>
      <point x="232" y="464"/>
      <point x="266" y="454" type="curve"/>
      <point x="374" y="426"/>
      <point x="364" y="420"/>
    </contour>
  </outline>
</glyph>
<glyph name="question" format="2">
  <advance width="474"/>
  <unicode hex="003F"/>
  <outline>
    <contour>
      <point x="253" y="366" type="curve"/>
      <point x="253" y="284"/>
      <point x="276" y="289"/>
      <point x="276" y="246" type="curve" smooth="yes"/>
      <point x="276" y="223"/>
      <point x="257" y="202"/>
      <point x="234" y="202" type="curve" smooth="yes"/>
      <point x="201" y="202"/>
      <point x="190" y="217"/>
      <point x="180" y="244" type="curve"/>
      <point x="171" y="259"/>
      <point x="167" y="294"/>
      <point x="163" y="313" type="curve" smooth="yes"/>
      <point x="159" y="330"/>
      <point x="146" y="368"/>
      <point x="146" y="385" type="curve" smooth="yes"/>
      <point x="146" y="404"/>
      <point x="161" y="416"/>
      <point x="188" y="425" type="curve" smooth="yes"/>
      <point x="219" y="435"/>
      <point x="289" y="481"/>
      <point x="314" y="542" type="curve" smooth="yes"/>
      <point x="331" y="584"/>
      <point x="362" y="645"/>
      <point x="362" y="695" type="curve" smooth="yes"/>
      <point x="362" y="756"/>
      <point x="356" y="767"/>
      <point x="329" y="794" type="curve" smooth="yes"/>
      <point x="303" y="819"/>
      <point x="261" y="828"/>
      <point x="234" y="828" type="curve" smooth="yes"/>
      <point x="211" y="828"/>
      <point x="188" y="819"/>
      <point x="159" y="800" type="curve"/>
      <point x="135" y="786"/>
      <point x="112" y="771"/>
      <point x="106" y="733" type="curve"/>
      <point x="104" y="710"/>
      <point x="91" y="700"/>
      <point x="66" y="700" type="curve" smooth="yes"/>
      <point x="41" y="700"/>
      <point x="24" y="714"/>
      <point x="24" y="740" type="curve" smooth="yes"/>
      <point x="24" y="836"/>
      <point x="84" y="872"/>
      <point x="161" y="908" type="curve"/>
      <point x="171" y="914"/>
      <point x="190" y="918"/>
      <point x="224" y="918" type="curve" smooth="yes"/>
      <point x="301" y="918"/>
      <point x="329" y="908"/>
      <point x="373" y="874" type="curve" smooth="yes"/>
      <point x="417" y="840"/>
      <point x="440" y="786"/>
      <point x="440" y="706" type="curve" smooth="yes"/>
      <point x="440" y="653"/>
      <point x="411" y="548"/>
      <point x="377" y="485" type="curve" smooth="yes"/>
      <point x="348" y="431"/>
      <point x="299" y="383"/>
    </contour>
    <contour>
      <point x="337" y="47" type="curve" smooth="yes"/>
      <point x="337" y="26"/>
      <point x="272" y="-8"/>
      <point x="249" y="-8" type="curve" smooth="yes"/>
      <point x="236" y="-8"/>
      <point x="196" y="13"/>
      <point x="196" y="34" type="curve" smooth="yes"/>
      <point x="196" y="47"/>
      <point x="211" y="70"/>
      <point x="211" y="76" type="curve" smooth="yes"/>
      <point x="211" y="89"/>
      <point x="222" y="99"/>
      <point x="240" y="99" type="curve" smooth="yes"/>
      <point x="262" y="99"/>
      <point x="337" y="78"/>
    </contour>
  </outline>
</glyph>
<glyph name="at" format="2">
  <advance width="930"/>
  <unicode hex="0040"/>
  <outline>
    <contour>
      <point x="584" y="522" type="curve" smooth="yes"/>
      <point x="540" y="522"/>
      <point x="530" y="558"/>
      <point x="512" y="558" type="curve" smooth="yes"/>
      <point x="490" y="558"/>
      <point x="446" y="518"/>
      <point x="420" y="464" type="curve"/>
      <point x="406" y="432"/>
      <point x="372" y="398"/>
      <point x="372" y="324" type="curve" smooth="yes"/>
      <point x="372" y="302"/>
      <point x="378" y="292"/>
      <point x="398" y="292" type="curve" smooth="yes"/>
      <point x="410" y="292"/>
      <point x="462" y="320"/>
      <point x="468" y="326" type="curve" smooth="yes"/>
      <point x="478" y="336"/>
      <point x="488" y="344"/>
      <point x="508" y="374" type="curve" smooth="yes"/>
      <point x="530" y="406"/>
      <point x="550" y="418"/>
      <point x="568" y="418" type="curve" smooth="yes"/>
      <point x="596" y="418"/>
      <point x="606" y="392"/>
      <point x="606" y="362" type="curve" smooth="yes"/>
      <point x="606" y="336"/>
      <point x="570" y="312"/>
      <point x="570" y="278" type="curve" smooth="yes"/>
      <point x="570" y="256"/>
      <point x="574" y="242"/>
      <point x="576" y="240" type="curve" smooth="yes"/>
      <point x="596" y="212"/>
      <point x="622" y="198"/>
      <point x="662" y="198" type="curve" smooth="yes"/>
      <point x="682" y="198"/>
      <point x="716" y="206"/>
      <point x="726" y="214" type="curve" smooth="yes"/>
      <point x="792" y="264"/>
      <point x="842" y="334"/>
      <point x="842" y="430" type="curve" smooth="yes"/>
      <point x="842" y="484"/>
      <point x="834" y="518"/>
      <point x="828" y="536" type="curve" smooth="yes"/>
      <point x="810" y="592"/>
      <point x="770" y="666"/>
      <point x="726" y="700" type="curve" smooth="yes"/>
      <point x="672" y="740"/>
      <point x="654" y="744"/>
      <point x="618" y="760" type="curve" smooth="yes"/>
      <point x="586" y="774"/>
      <point x="478" y="802"/>
      <point x="428" y="802" type="curve" smooth="yes"/>
      <point x="292" y="802"/>
      <point x="224" y="722"/>
      <point x="176" y="600" type="curve" smooth="yes"/>
      <point x="128" y="476"/>
      <point x="116" y="372"/>
      <point x="116" y="298" type="curve" smooth="yes"/>
      <point x="116" y="128"/>
      <point x="122" y="84"/>
      <point x="206" y="0" type="curve" smooth="yes"/>
      <point x="256" y="-50"/>
      <point x="326" y="-66"/>
      <point x="408" y="-66" type="curve" smooth="yes"/>
      <point x="476" y="-66"/>
      <point x="540" y="-50"/>
      <point x="578" y="-20" type="curve"/>
      <point x="672" y="50"/>
      <point x="718" y="56"/>
      <point x="738" y="56" type="curve" smooth="yes"/>
      <point x="748" y="56"/>
      <point x="750" y="54"/>
      <point x="750" y="48" type="curve" smooth="yes"/>
      <point x="750" y="40"/>
      <point x="732" y="14"/>
      <point x="662" y="-44" type="curve" smooth="yes"/>
      <point x="596" y="-97"/>
      <point x="512" y="-160"/>
      <point x="424" y="-160" type="curve" smooth="yes"/>
      <point x="332" y="-160"/>
      <point x="212" y="-130"/>
      <point x="154" y="-66" type="curve" smooth="yes"/>
      <point x="109" y="-16"/>
      <point x="34" y="66"/>
      <point x="34" y="292" type="curve" smooth="yes"/>
      <point x="34" y="438"/>
      <point x="74" y="538"/>
      <point x="96" y="612" type="curve" smooth="yes"/>
      <point x="110" y="664"/>
      <point x="176" y="782"/>
      <point x="220" y="812" type="curve" smooth="yes"/>
      <point x="280" y="854"/>
      <point x="326" y="878"/>
      <point x="410" y="878" type="curve" smooth="yes"/>
      <point x="514" y="878"/>
      <point x="663" y="846"/>
      <point x="746" y="778" type="curve"/>
      <point x="858" y="694"/>
      <point x="914" y="556"/>
      <point x="914" y="418" type="curve" smooth="yes"/>
      <point x="914" y="314"/>
      <point x="890" y="258"/>
      <point x="810" y="186" type="curve" smooth="yes"/>
      <point x="756" y="138"/>
      <point x="720" y="110"/>
      <point x="650" y="110" type="curve" smooth="yes"/>
      <point x="616" y="110"/>
      <point x="508" y="136"/>
      <point x="490" y="242" type="curve"/>
      <point x="442" y="210"/>
      <point x="432" y="200"/>
      <point x="372" y="200" type="curve" smooth="yes"/>
      <point x="316" y="200"/>
      <point x="286" y="246"/>
      <point x="286" y="288" type="curve" smooth="yes"/>
      <point x="286" y="384"/>
      <point x="288" y="418"/>
      <point x="364" y="538" type="curve" smooth="yes"/>
      <point x="416" y="618"/>
      <point x="460" y="646"/>
      <point x="512" y="646" type="curve" smooth="yes"/>
      <point x="565" y="646"/>
      <point x="618" y="637"/>
      <point x="618" y="574" type="curve" smooth="yes"/>
      <point x="618" y="542"/>
      <point x="616" y="522"/>
    </contour>
  </outline>
</glyph>
<glyph name="A" format="2">
  <advance width="648"/>
  <unicode hex="0041"/>
  <anchor x="320" y="41" name="bottom"/>
  <anchor x="364" y="937" name="top"/>
  <outline>
    <contour>
      <point x="409" y="706" type="curve" smooth="yes"/>
      <point x="400" y="771"/>
      <point x="370" y="804"/>
      <point x="367" y="804" type="curve" smooth="yes"/>
      <point x="365" y="804"/>
      <point x="355" y="782"/>
      <point x="347" y="766" type="curve"/>
      <point x="309" y="676"/>
      <point x="289" y="636"/>
      <point x="277" y="612" type="curve" smooth="yes"/>
      <point x="263" y="586"/>
      <point x="261" y="576"/>
      <point x="249" y="544" type="curve" smooth="yes"/>
      <point x="239" y="520"/>
      <point x="237" y="506"/>
      <point x="199" y="412" type="curve"/>
      <point x="189" y="390"/>
      <point x="181" y="372"/>
      <point x="181" y="368" type="curve"/>
      <point x="195" y="364"/>
      <point x="209" y="364"/>
      <point x="223" y="360" type="curve" smooth="yes"/>
      <point x="231" y="358"/>
      <point x="265" y="352"/>
      <point x="335" y="352" type="curve" smooth="yes"/>
      <point x="399" y="352"/>
      <point x="433" y="360"/>
      <point x="461" y="364" type="curve"/>
      <point x="455" y="420"/>
      <point x="455" y="440"/>
      <point x="431" y="566" type="curve"/>
      <point x="417" y="654"/>
      <point x="409" y="700"/>
    </contour>
    <contour>
      <point x="77" y="42" type="curve" smooth="yes"/>
      <point x="56" y="42"/>
      <point x="31" y="75"/>
      <point x="31" y="98" type="curve" smooth="yes"/>
      <point x="31" y="112"/>
      <point x="33" y="134"/>
      <point x="39" y="160" type="curve"/>
      <point x="51" y="255"/>
      <point x="87" y="358"/>
      <point x="133" y="442" type="curve"/>
      <point x="149" y="474"/>
      <point x="157" y="516"/>
      <point x="193" y="588" type="curve" smooth="yes"/>
      <point x="194" y="590"/>
      <point x="233" y="704"/>
      <point x="291" y="834" type="curve"/>
      <point x="303" y="864"/>
      <point x="319" y="900"/>
      <point x="321" y="900" type="curve" smooth="yes"/>
      <point x="325" y="902"/>
      <point x="339" y="904"/>
      <point x="359" y="904" type="curve" smooth="yes"/>
      <point x="379" y="904"/>
      <point x="385" y="902"/>
      <point x="395" y="898" type="curve" smooth="yes"/>
      <point x="420" y="888"/>
      <point x="465" y="833"/>
      <point x="471" y="808" type="curve" smooth="yes"/>
      <point x="475" y="792"/>
      <point x="481" y="774"/>
      <point x="493" y="728" type="curve"/>
      <point x="505" y="697"/>
      <point x="507" y="553"/>
      <point x="553" y="304" type="curve" smooth="yes"/>
      <point x="571" y="206"/>
      <point x="597" y="150"/>
      <point x="603" y="132" type="curve"/>
      <point x="609" y="110"/>
      <point x="621" y="70"/>
      <point x="621" y="48" type="curve" smooth="yes"/>
      <point x="621" y="24"/>
      <point x="599" y="-8"/>
      <point x="577" y="-8" type="curve" smooth="yes"/>
      <point x="565" y="-8"/>
      <point x="549" y="-2"/>
      <point x="549" y="16" type="curve" smooth="yes"/>
      <point x="549" y="48"/>
      <point x="525" y="78"/>
      <point x="513" y="118" type="curve"/>
      <point x="497" y="166"/>
      <point x="481" y="242"/>
      <point x="471" y="282" type="curve"/>
      <point x="429" y="269"/>
      <point x="386" y="264"/>
      <point x="342" y="264" type="curve" smooth="yes"/>
      <point x="297" y="264" type="line" smooth="yes"/>
      <point x="283" y="264"/>
      <point x="273" y="264"/>
      <point x="265" y="266" type="curve" smooth="yes"/>
      <point x="229" y="277"/>
      <point x="197" y="267"/>
      <point x="161" y="288" type="curve"/>
      <point x="94" y="154"/>
      <point x="133" y="42"/>
    </contour>
  </outline>
</glyph>
<glyph name="B" format="2">
  <advance width="610"/>
  <unicode hex="0042"/>
  <anchor x="320" y="41" name="bottom"/>
  <anchor x="292" y="947" name="top"/>
  <outline>
    <contour>
      <point x="164" y="382" type="line"/>
      <point x="164" y="209"/>
      <point x="184" y="120"/>
      <point x="184" y="76" type="curve"/>
      <point x="190" y="72"/>
      <point x="228" y="70"/>
      <point x="252" y="70" type="curve" smooth="yes"/>
      <point x="324" y="70"/>
      <point x="348" y="92"/>
      <point x="380" y="108" type="curve"/>
      <point x="408" y="124"/>
      <point x="488" y="172"/>
      <point x="488" y="206" type="curve" smooth="yes"/>
      <point x="488" y="240"/>
      <point x="438" y="282"/>
      <point x="414" y="302" type="curve" smooth="yes"/>
      <point x="370" y="338"/>
      <point x="356" y="344"/>
      <point x="290" y="370" type="curve"/>
      <point x="256" y="380"/>
      <point x="236" y="382"/>
      <point x="216" y="382" type="curve" smooth="yes"/>
    </contour>
    <contour>
      <point x="232" y="814" type="curve" smooth="yes"/>
      <point x="207" y="815"/>
      <point x="192" y="818"/>
      <point x="173" y="818" type="curve" smooth="yes"/>
      <point x="161" y="818" type="line"/>
      <point x="160" y="786"/>
      <point x="156" y="718"/>
      <point x="156" y="642" type="curve" smooth="yes"/>
      <point x="156" y="592"/>
      <point x="162" y="526"/>
      <point x="162" y="472" type="curve"/>
      <point x="204" y="472"/>
      <point x="242" y="476"/>
      <point x="252" y="480" type="curve" smooth="yes"/>
      <point x="270" y="488"/>
      <point x="328" y="506"/>
      <point x="370" y="538" type="curve" smooth="yes"/>
      <point x="412" y="570"/>
      <point x="432" y="596"/>
      <point x="432" y="624" type="curve" smooth="yes"/>
      <point x="432" y="672"/>
      <point x="387" y="728"/>
      <point x="348" y="764" type="curve" smooth="yes"/>
      <point x="312" y="798"/>
      <point x="272" y="812"/>
    </contour>
    <contour>
      <point x="128" y="928" type="curve" smooth="yes"/>
      <point x="142" y="928"/>
      <point x="148" y="918"/>
      <point x="164" y="914" type="curve" smooth="yes"/>
      <point x="166" y="913"/>
      <point x="314" y="905"/>
      <point x="388" y="846" type="curve" smooth="yes"/>
      <point x="399" y="837"/>
      <point x="414" y="817"/>
      <point x="436" y="788" type="curve" smooth="yes"/>
      <point x="484" y="724"/>
      <point x="508" y="688"/>
      <point x="508" y="625" type="curve" smooth="yes"/>
      <point x="508" y="556"/>
      <point x="472" y="530"/>
      <point x="426" y="488" type="curve" smooth="yes"/>
      <point x="400" y="464"/>
      <point x="372" y="446"/>
      <point x="356" y="436" type="curve"/>
      <point x="392" y="422"/>
      <point x="426" y="398"/>
      <point x="444" y="386" type="curve" smooth="yes"/>
      <point x="506" y="347"/>
      <point x="570" y="290"/>
      <point x="570" y="210" type="curve" smooth="yes"/>
      <point x="570" y="142"/>
      <point x="504" y="81"/>
      <point x="424" y="46" type="curve" smooth="yes"/>
      <point x="406" y="38"/>
      <point x="380" y="22"/>
      <point x="352" y="12" type="curve" smooth="yes"/>
      <point x="324" y="2"/>
      <point x="274" y="-10"/>
      <point x="200" y="-10" type="curve" smooth="yes"/>
      <point x="160" y="-10"/>
      <point x="84" y="-3"/>
      <point x="84" y="52" type="curve" smooth="yes"/>
      <point x="84" y="58"/>
      <point x="89" y="68"/>
      <point x="101" y="76" type="curve"/>
      <point x="74" y="255"/>
      <point x="72" y="436"/>
      <point x="72" y="616" type="curve" smooth="yes"/>
      <point x="72" y="630"/>
      <point x="74" y="688"/>
      <point x="74" y="700" type="curve" smooth="yes"/>
      <point x="74" y="834"/>
      <point x="64" y="828"/>
      <point x="64" y="864" type="curve" smooth="yes"/>
      <point x="64" y="910"/>
      <point x="98" y="928"/>
    </contour>
  </outline>
</glyph>
<glyph name="C" format="2">
  <advance width="686"/>
  <unicode hex="0043"/>
  <anchor x="368" y="41" name="bottom"/>
  <anchor x="392" y="929" name="top"/>
  <outline>
    <contour>
      <point x="468" y="650" type="curve" smooth="yes"/>
      <point x="468" y="660"/>
      <point x="524" y="697"/>
      <point x="524" y="702" type="curve" smooth="yes"/>
      <point x="524" y="708"/>
      <point x="512" y="724"/>
      <point x="488" y="752" type="curve" smooth="yes"/>
      <point x="472" y="770"/>
      <point x="459" y="775"/>
      <point x="449" y="779" type="curve"/>
      <point x="439" y="785"/>
      <point x="404" y="791"/>
      <point x="381" y="791" type="curve" smooth="yes"/>
      <point x="308" y="791"/>
      <point x="257" y="742"/>
      <point x="230" y="679" type="curve"/>
      <point x="198" y="614"/>
      <point x="194" y="628"/>
      <point x="179" y="562" type="curve" smooth="yes"/>
      <point x="164" y="499"/>
      <point x="153" y="468"/>
      <point x="153" y="405" type="curve" smooth="yes"/>
      <point x="153" y="309"/>
      <point x="155" y="223"/>
      <point x="226" y="148" type="curve" smooth="yes"/>
      <point x="259" y="113"/>
      <point x="288" y="89"/>
      <point x="367" y="89" type="curve" smooth="yes"/>
      <point x="406" y="89"/>
      <point x="439" y="95"/>
      <point x="467" y="107" type="curve" smooth="yes"/>
      <point x="530" y="136"/>
      <point x="553" y="160"/>
      <point x="569" y="171" type="curve" smooth="yes"/>
      <point x="582" y="181"/>
      <point x="598" y="182"/>
      <point x="614" y="182" type="curve" smooth="yes"/>
      <point x="630" y="182"/>
      <point x="640" y="168"/>
      <point x="640" y="158" type="curve" smooth="yes"/>
      <point x="640" y="148"/>
      <point x="636" y="140"/>
      <point x="616" y="118" type="curve" smooth="yes"/>
      <point x="570" y="68"/>
      <point x="530" y="44"/>
      <point x="466" y="10" type="curve" smooth="yes"/>
      <point x="444" y="-2"/>
      <point x="404" y="-8"/>
      <point x="350" y="-8" type="curve" smooth="yes"/>
      <point x="264" y="-8"/>
      <point x="234" y="11"/>
      <point x="170" y="68" type="curve" smooth="yes"/>
      <point x="73" y="154"/>
      <point x="66" y="287"/>
      <point x="66" y="408" type="curve" smooth="yes"/>
      <point x="66" y="519"/>
      <point x="105" y="632"/>
      <point x="162" y="726" type="curve"/>
      <point x="221" y="821"/>
      <point x="280" y="884"/>
      <point x="396" y="884" type="curve" smooth="yes"/>
      <point x="467" y="884"/>
      <point x="517" y="851"/>
      <point x="566" y="802" type="curve" smooth="yes"/>
      <point x="586" y="782"/>
      <point x="600" y="770"/>
      <point x="604" y="760" type="curve" smooth="yes"/>
      <point x="608" y="750"/>
      <point x="610" y="734"/>
      <point x="610" y="714" type="curve" smooth="yes"/>
      <point x="610" y="683"/>
      <point x="610" y="642"/>
      <point x="500" y="642" type="curve" smooth="yes"/>
      <point x="478" y="642"/>
      <point x="468" y="644"/>
    </contour>
  </outline>
</glyph>
<glyph name="D" format="2">
  <advance width="694"/>
  <unicode hex="0044"/>
  <anchor x="330" y="91" name="bottom"/>
  <anchor x="326" y="925" name="top"/>
  <outline>
    <contour>
      <point x="156" y="422" type="curve" smooth="yes"/>
      <point x="156" y="400"/>
      <point x="156" y="351"/>
      <point x="156" y="350" type="curve" smooth="yes"/>
      <point x="156" y="279"/>
      <point x="162" y="206"/>
      <point x="164" y="202" type="curve" smooth="yes"/>
      <point x="176" y="166"/>
      <point x="192" y="160"/>
      <point x="192" y="144" type="curve"/>
      <point x="190" y="117"/>
      <point x="171" y="90"/>
      <point x="142" y="90" type="curve" smooth="yes"/>
      <point x="134" y="90"/>
      <point x="128" y="102"/>
      <point x="118" y="118" type="curve" smooth="yes"/>
      <point x="96" y="152"/>
      <point x="90" y="164"/>
      <point x="80" y="206" type="curve"/>
      <point x="74" y="236"/>
      <point x="72" y="308"/>
      <point x="72" y="426" type="curve"/>
      <point x="74" y="471"/>
      <point x="74" y="499"/>
      <point x="74" y="521" type="curve" smooth="yes"/>
      <point x="74" y="550"/>
      <point x="73" y="569"/>
      <point x="72" y="602" type="curve" smooth="yes"/>
      <point x="68" y="716"/>
      <point x="74" y="810"/>
      <point x="64" y="842" type="curve" smooth="yes"/>
      <point x="63" y="844"/>
      <point x="63" y="846"/>
      <point x="63" y="848" type="curve" smooth="yes"/>
      <point x="63" y="864"/>
      <point x="84" y="891"/>
      <point x="96" y="898" type="curve" smooth="yes"/>
      <point x="108" y="904"/>
      <point x="114" y="908"/>
      <point x="118" y="908" type="curve" smooth="yes"/>
      <point x="128" y="908"/>
      <point x="154" y="886"/>
      <point x="164" y="868" type="curve"/>
      <point x="176" y="869"/>
      <point x="187" y="869"/>
      <point x="198" y="869" type="curve" smooth="yes"/>
      <point x="247" y="869"/>
      <point x="290" y="863"/>
      <point x="336" y="856" type="curve"/>
      <point x="344" y="856"/>
      <point x="360" y="850"/>
      <point x="392" y="846" type="curve"/>
      <point x="476" y="832"/>
      <point x="525" y="807"/>
      <point x="584" y="744" type="curve" smooth="yes"/>
      <point x="620" y="706"/>
      <point x="640" y="628"/>
      <point x="640" y="560" type="curve" smooth="yes"/>
      <point x="640" y="436"/>
      <point x="600" y="369"/>
      <point x="556" y="298" type="curve" smooth="yes"/>
      <point x="518" y="236"/>
      <point x="476" y="190"/>
      <point x="450" y="164" type="curve" smooth="yes"/>
      <point x="372" y="90"/>
      <point x="318" y="40"/>
      <point x="294" y="24" type="curve" smooth="yes"/>
      <point x="246" y="-8"/>
      <point x="212" y="-26"/>
      <point x="192" y="-26" type="curve" smooth="yes"/>
      <point x="172" y="-26"/>
      <point x="156" y="-19"/>
      <point x="156" y="4" type="curve" smooth="yes"/>
      <point x="156" y="12"/>
      <point x="160" y="24"/>
      <point x="168" y="32" type="curve" smooth="yes"/>
      <point x="206" y="66"/>
      <point x="194" y="62"/>
      <point x="248" y="100" type="curve" smooth="yes"/>
      <point x="330" y="160"/>
      <point x="358" y="182"/>
      <point x="408" y="240" type="curve"/>
      <point x="456" y="290"/>
      <point x="466" y="308"/>
      <point x="508" y="374" type="curve" smooth="yes"/>
      <point x="534" y="416"/>
      <point x="558" y="478"/>
      <point x="558" y="562" type="curve" smooth="yes"/>
      <point x="558" y="594"/>
      <point x="553" y="619"/>
      <point x="544" y="640" type="curve"/>
      <point x="516" y="690"/>
      <point x="506" y="704"/>
      <point x="456" y="726" type="curve"/>
      <point x="386" y="763"/>
      <point x="280" y="775"/>
      <point x="202" y="775" type="curve" smooth="yes"/>
      <point x="189" y="775"/>
      <point x="178" y="774"/>
      <point x="164" y="770" type="curve"/>
      <point x="164" y="768"/>
      <point x="153" y="640"/>
      <point x="153" y="582" type="curve" smooth="yes"/>
      <point x="153" y="541"/>
      <point x="156" y="505"/>
    </contour>
  </outline>
</glyph>
<glyph name="E" format="2">
  <advance width="672"/>
  <unicode hex="0045"/>
  <anchor x="360" y="41" name="bottom"/>
  <anchor x="320" y="933" name="top"/>
  <outline>
    <contour>
      <point x="321" y="486" type="curve" smooth="yes"/>
      <point x="373" y="486"/>
      <point x="373" y="486"/>
      <point x="544" y="505" type="curve"/>
      <point x="554" y="505"/>
      <point x="569" y="486"/>
      <point x="569" y="468" type="curve" smooth="yes"/>
      <point x="569" y="456"/>
      <point x="558" y="443"/>
      <point x="531" y="437" type="curve"/>
      <point x="484" y="432"/>
      <point x="410" y="407"/>
      <point x="330" y="407" type="curve" smooth="yes"/>
      <point x="278" y="407"/>
      <point x="222" y="408"/>
      <point x="179" y="412" type="curve"/>
      <point x="179" y="368"/>
      <point x="177" y="306"/>
      <point x="177" y="250" type="curve" smooth="yes"/>
      <point x="177" y="186"/>
      <point x="179" y="137"/>
      <point x="200" y="103" type="curve" smooth="yes"/>
      <point x="214" y="80"/>
      <point x="231" y="79"/>
      <point x="269" y="79" type="curve" smooth="yes"/>
      <point x="288" y="79" type="line" smooth="yes"/>
      <point x="330" y="79"/>
      <point x="360" y="83"/>
      <point x="373" y="87" type="curve" smooth="yes"/>
      <point x="448" y="111"/>
      <point x="531" y="123"/>
      <point x="610" y="123" type="curve" smooth="yes"/>
      <point x="622" y="123"/>
      <point x="629" y="122"/>
      <point x="629" y="110" type="curve" smooth="yes"/>
      <point x="629" y="75"/>
      <point x="577" y="49"/>
      <point x="549" y="43" type="curve" smooth="yes"/>
      <point x="533" y="40"/>
      <point x="513" y="39"/>
      <point x="499" y="35" type="curve" smooth="yes"/>
      <point x="411" y="14"/>
      <point x="309" y="-3"/>
      <point x="220" y="-3" type="curve" smooth="yes"/>
      <point x="167" y="-3"/>
      <point x="113" y="49"/>
      <point x="101" y="113" type="curve" smooth="yes"/>
      <point x="97" y="132"/>
      <point x="96" y="164"/>
      <point x="96" y="205" type="curve" smooth="yes"/>
      <point x="96" y="268"/>
      <point x="99" y="353"/>
      <point x="99" y="442" type="curve" smooth="yes"/>
      <point x="99" y="519"/>
      <point x="92" y="718"/>
      <point x="83" y="792" type="curve"/>
      <point x="78" y="792" type="line" smooth="yes"/>
      <point x="67" y="792"/>
      <point x="31" y="792"/>
      <point x="31" y="838" type="curve" smooth="yes"/>
      <point x="31" y="848"/>
      <point x="44" y="860"/>
      <point x="58" y="865" type="curve"/>
      <point x="70" y="871"/>
      <point x="75" y="877"/>
      <point x="82" y="881" type="curve"/>
      <point x="83" y="881" type="line"/>
      <point x="111" y="887"/>
      <point x="129" y="889"/>
      <point x="224" y="889" type="curve" smooth="yes"/>
      <point x="360" y="889"/>
      <point x="456" y="891"/>
      <point x="491" y="901" type="curve" smooth="yes"/>
      <point x="500" y="903"/>
      <point x="508" y="909"/>
      <point x="518" y="909" type="curve" smooth="yes"/>
      <point x="532" y="909"/>
      <point x="551" y="907"/>
      <point x="575" y="901" type="curve" smooth="yes"/>
      <point x="585" y="899"/>
      <point x="589" y="896"/>
      <point x="589" y="882" type="curve" smooth="yes"/>
      <point x="589" y="821"/>
      <point x="529" y="817"/>
      <point x="298" y="802" type="curve" smooth="yes"/>
      <point x="260" y="800"/>
      <point x="232" y="798"/>
      <point x="171" y="796" type="curve"/>
      <point x="173" y="767"/>
      <point x="177" y="741"/>
      <point x="177" y="710" type="curve" smooth="yes"/>
      <point x="177" y="604" type="line" smooth="yes"/>
      <point x="177" y="568"/>
      <point x="179" y="529"/>
      <point x="179" y="495" type="curve"/>
      <point x="236" y="490"/>
      <point x="275" y="486"/>
    </contour>
  </outline>
</glyph>
<glyph name="F" format="2">
  <advance width="668"/>
  <unicode hex="0046"/>
  <anchor x="160" y="31" name="bottom"/>
  <anchor x="346" y="937" name="top"/>
  <outline>
    <contour>
      <point x="199" y="39" type="curve" smooth="yes"/>
      <point x="199" y="10"/>
      <point x="174" y="-12"/>
      <point x="154" y="-12" type="curve" smooth="yes"/>
      <point x="144" y="-12"/>
      <point x="136" y="-4"/>
      <point x="128" y="16" type="curve"/>
      <point x="112" y="70"/>
      <point x="110" y="92"/>
      <point x="100" y="172" type="curve"/>
      <point x="96" y="191"/>
      <point x="95" y="228"/>
      <point x="95" y="277" type="curve" smooth="yes"/>
      <point x="95" y="335"/>
      <point x="96" y="411"/>
      <point x="96" y="499" type="curve" smooth="yes"/>
      <point x="96" y="619"/>
      <point x="96" y="619"/>
      <point x="77" y="817" type="curve" smooth="yes"/>
      <point x="73" y="851"/>
      <point x="75" y="875"/>
      <point x="69" y="889" type="curve" smooth="yes"/>
      <point x="69" y="891"/>
      <point x="67" y="895"/>
      <point x="67" y="897" type="curve" smooth="yes"/>
      <point x="67" y="915"/>
      <point x="94" y="935"/>
      <point x="111" y="935" type="curve" smooth="yes"/>
      <point x="134" y="935"/>
      <point x="152" y="910"/>
      <point x="156" y="864" type="curve"/>
      <point x="159" y="864"/>
      <point x="442" y="880"/>
      <point x="482" y="880" type="curve"/>
      <point x="500" y="882"/>
      <point x="520" y="882"/>
      <point x="542" y="882" type="curve" smooth="yes"/>
      <point x="568" y="882"/>
      <point x="584" y="878"/>
      <point x="594" y="868" type="curve"/>
      <point x="608" y="848"/>
      <point x="616" y="834"/>
      <point x="616" y="824" type="curve" smooth="yes"/>
      <point x="616" y="814"/>
      <point x="596" y="788"/>
      <point x="576" y="788" type="curve" smooth="yes"/>
      <point x="550" y="788"/>
      <point x="534" y="796"/>
      <point x="504" y="796" type="curve" smooth="yes"/>
      <point x="501" y="796"/>
      <point x="389" y="795"/>
      <point x="166" y="779" type="curve"/>
      <point x="172" y="755"/>
      <point x="172" y="652"/>
      <point x="178" y="596" type="curve" smooth="yes"/>
      <point x="181" y="566"/>
      <point x="182" y="535"/>
      <point x="182" y="503" type="curve" smooth="yes"/>
      <point x="182" y="473"/>
      <point x="182" y="443"/>
      <point x="182" y="412" type="curve" smooth="yes"/>
      <point x="182" y="400"/>
      <point x="182" y="388"/>
      <point x="182" y="376" type="curve" smooth="yes"/>
      <point x="182" y="220" type="line" smooth="yes"/>
      <point x="182" y="172"/>
      <point x="198" y="138"/>
      <point x="198" y="64" type="curve" smooth="yes"/>
      <point x="198" y="53"/>
      <point x="199" y="46"/>
    </contour>
    <contour>
      <point x="338" y="398" type="curve" smooth="yes"/>
      <point x="255" y="398"/>
      <point x="212" y="409"/>
      <point x="212" y="462" type="curve" smooth="yes"/>
      <point x="212" y="476"/>
      <point x="222" y="492"/>
      <point x="236" y="492" type="curve" smooth="yes"/>
      <point x="362" y="492"/>
      <point x="530" y="486"/>
      <point x="560" y="482" type="curve" smooth="yes"/>
      <point x="578" y="480"/>
      <point x="586" y="468"/>
      <point x="586" y="454" type="curve" smooth="yes"/>
      <point x="586" y="448"/>
      <point x="584" y="442"/>
      <point x="582" y="436" type="curve" smooth="yes"/>
      <point x="580" y="430"/>
      <point x="562" y="426"/>
      <point x="530" y="416" type="curve" smooth="yes"/>
      <point x="498" y="406"/>
      <point x="476" y="400"/>
      <point x="446" y="400" type="curve" smooth="yes"/>
      <point x="414" y="400"/>
      <point x="372" y="398"/>
    </contour>
  </outline>
</glyph>
<glyph name="G" format="2">
  <advance width="700"/>
  <unicode hex="0047"/>
  <anchor x="443" y="-181" name="bottom"/>
  <anchor x="382" y="935" name="top"/>
  <outline>
    <contour>
      <point x="430" y="632" type="curve" smooth="yes"/>
      <point x="430" y="656"/>
      <point x="480" y="676"/>
      <point x="480" y="730" type="curve" smooth="yes"/>
      <point x="480" y="764"/>
      <point x="456" y="806"/>
      <point x="424" y="806" type="curve" smooth="yes"/>
      <point x="370" y="806"/>
      <point x="274" y="710"/>
      <point x="254" y="672" type="curve" smooth="yes"/>
      <point x="232" y="630"/>
      <point x="200" y="586"/>
      <point x="184" y="536" type="curve"/>
      <point x="170" y="484"/>
      <point x="138" y="430"/>
      <point x="138" y="280" type="curve" smooth="yes"/>
      <point x="138" y="226"/>
      <point x="166" y="160"/>
      <point x="196" y="136" type="curve" smooth="yes"/>
      <point x="212" y="124"/>
      <point x="234" y="116"/>
      <point x="266" y="116" type="curve" smooth="yes"/>
      <point x="358" y="116"/>
      <point x="408" y="164"/>
      <point x="464" y="214" type="curve" smooth="yes"/>
      <point x="521" y="264"/>
      <point x="564" y="323"/>
      <point x="580" y="398" type="curve" smooth="yes"/>
      <point x="584" y="416"/>
      <point x="598" y="440"/>
      <point x="616" y="440" type="curve" smooth="yes"/>
      <point x="644" y="440"/>
      <point x="656" y="418"/>
      <point x="656" y="376" type="curve" smooth="yes"/>
      <point x="656" y="362"/>
      <point x="654" y="344"/>
      <point x="648" y="322" type="curve" smooth="yes"/>
      <point x="642" y="300"/>
      <point x="626" y="180"/>
      <point x="622" y="156" type="curve" smooth="yes"/>
      <point x="612" y="104"/>
      <point x="608" y="-44"/>
      <point x="606" y="-68" type="curve"/>
      <point x="596" y="-146"/>
      <point x="558" y="-186"/>
      <point x="494" y="-206" type="curve"/>
      <point x="482" y="-212"/>
      <point x="466" y="-214"/>
      <point x="454" y="-214" type="curve" smooth="yes"/>
      <point x="422" y="-214"/>
      <point x="386" y="-196"/>
      <point x="350" y="-162" type="curve" smooth="yes"/>
      <point x="340" y="-152"/>
      <point x="334" y="-132"/>
      <point x="334" y="-112" type="curve" smooth="yes"/>
      <point x="334" y="-86"/>
      <point x="340" y="-76"/>
      <point x="358" y="-76" type="curve" smooth="yes"/>
      <point x="397" y="-76"/>
      <point x="427" y="-136"/>
      <point x="460" y="-136" type="curve" smooth="yes"/>
      <point x="484" y="-136"/>
      <point x="512" y="-110"/>
      <point x="518" y="-100" type="curve" smooth="yes"/>
      <point x="520" y="-96"/>
      <point x="524" y="-24"/>
      <point x="530" y="62" type="curve" smooth="yes"/>
      <point x="530" y="74"/>
      <point x="534" y="140"/>
      <point x="538" y="172" type="curve"/>
      <point x="478" y="104"/>
      <point x="348" y="16"/>
      <point x="260" y="16" type="curve" smooth="yes"/>
      <point x="164" y="16"/>
      <point x="78" y="106"/>
      <point x="64" y="194" type="curve" smooth="yes"/>
      <point x="60" y="216"/>
      <point x="58" y="244"/>
      <point x="58" y="278" type="curve" smooth="yes"/>
      <point x="58" y="444"/>
      <point x="78" y="492"/>
      <point x="104" y="558" type="curve"/>
      <point x="122" y="610"/>
      <point x="184" y="726"/>
      <point x="244" y="784" type="curve" smooth="yes"/>
      <point x="292" y="832"/>
      <point x="312" y="846"/>
      <point x="332" y="866" type="curve" smooth="yes"/>
      <point x="350" y="884"/>
      <point x="376" y="894"/>
      <point x="408" y="894" type="curve" smooth="yes"/>
      <point x="470" y="894"/>
      <point x="514" y="870"/>
      <point x="542" y="816" type="curve"/>
      <point x="552" y="800"/>
      <point x="556" y="772"/>
      <point x="556" y="730" type="curve" smooth="yes"/>
      <point x="556" y="676"/>
      <point x="502" y="624"/>
      <point x="448" y="624" type="curve" smooth="yes"/>
      <point x="436" y="624"/>
      <point x="430" y="626"/>
    </contour>
  </outline>
</glyph>
<glyph name="H" format="2">
  <advance width="740"/>
  <unicode hex="0048"/>
  <anchor x="390" y="31" name="bottom"/>
  <anchor x="360" y="921" name="top"/>
  <outline>
    <contour>
      <point x="564" y="790" type="curve" smooth="yes"/>
      <point x="564" y="823"/>
      <point x="556" y="889"/>
      <point x="556" y="890" type="curve" smooth="yes"/>
      <point x="556" y="901"/>
      <point x="560" y="922"/>
      <point x="590" y="922" type="curve" smooth="yes"/>
      <point x="629" y="922"/>
      <point x="635" y="885"/>
      <point x="638" y="854" type="curve" smooth="yes"/>
      <point x="645" y="793"/>
      <point x="650" y="719"/>
      <point x="650" y="632" type="curve" smooth="yes"/>
      <point x="650" y="581"/>
      <point x="647" y="515"/>
      <point x="647" y="514" type="curve" smooth="yes"/>
      <point x="647" y="485"/>
      <point x="650" y="462"/>
      <point x="652" y="452" type="curve"/>
      <point x="668" y="450"/>
      <point x="696" y="444"/>
      <point x="696" y="420" type="curve" smooth="yes"/>
      <point x="696" y="396"/>
      <point x="688" y="388"/>
      <point x="658" y="374" type="curve"/>
      <point x="659" y="371"/>
      <point x="659" y="368"/>
      <point x="659" y="365" type="curve" smooth="yes"/>
      <point x="659" y="358"/>
      <point x="658" y="347"/>
      <point x="658" y="330" type="curve" smooth="yes"/>
      <point x="658" y="304"/>
      <point x="660" y="278"/>
      <point x="660" y="250" type="curve" smooth="yes"/>
      <point x="660" y="200" type="line" smooth="yes"/>
      <point x="660" y="144"/>
      <point x="668" y="40"/>
      <point x="682" y="28" type="curve" smooth="yes"/>
      <point x="696" y="16"/>
      <point x="704" y="-2"/>
      <point x="704" y="-12" type="curve" smooth="yes"/>
      <point x="704" y="-32"/>
      <point x="679" y="-42"/>
      <point x="668" y="-42" type="curve" smooth="yes"/>
      <point x="660" y="-42"/>
      <point x="656" y="-38"/>
      <point x="648" y="-34" type="curve"/>
      <point x="618" y="-14"/>
      <point x="604" y="12"/>
      <point x="594" y="34" type="curve"/>
      <point x="579" y="71"/>
      <point x="575" y="159"/>
      <point x="575" y="224" type="curve" smooth="yes"/>
      <point x="575" y="236"/>
      <point x="577" y="312"/>
      <point x="577" y="313" type="curve" smooth="yes"/>
      <point x="577" y="333"/>
      <point x="576" y="346"/>
      <point x="575" y="357" type="curve"/>
      <point x="509" y="347"/>
      <point x="444" y="340"/>
      <point x="376" y="340" type="curve" smooth="yes"/>
      <point x="258" y="340"/>
      <point x="210" y="346"/>
      <point x="162" y="350" type="curve"/>
      <point x="162" y="302"/>
      <point x="162" y="176"/>
      <point x="166" y="120" type="curve" smooth="yes"/>
      <point x="168" y="98"/>
      <point x="174" y="88"/>
      <point x="182" y="80" type="curve" smooth="yes"/>
      <point x="192" y="70"/>
      <point x="194" y="68"/>
      <point x="194" y="32" type="curve" smooth="yes"/>
      <point x="194" y="0"/>
      <point x="190" y="-22"/>
      <point x="170" y="-22" type="curve" smooth="yes"/>
      <point x="154" y="-22"/>
      <point x="131" y="-11"/>
      <point x="124" y="-4" type="curve"/>
      <point x="100" y="28"/>
      <point x="86" y="96"/>
      <point x="82" y="154" type="curve" smooth="yes"/>
      <point x="78" y="200"/>
      <point x="80" y="276"/>
      <point x="78" y="330" type="curve"/>
      <point x="76" y="356"/>
      <point x="76" y="442"/>
      <point x="76" y="596" type="curve" smooth="yes"/>
      <point x="76" y="818" type="line" smooth="yes"/>
      <point x="76" y="846"/>
      <point x="76" y="868"/>
      <point x="116" y="868" type="curve" smooth="yes"/>
      <point x="140" y="868"/>
      <point x="140" y="868"/>
      <point x="150" y="844" type="curve" smooth="yes"/>
      <point x="156" y="829"/>
      <point x="160" y="808"/>
      <point x="160" y="778" type="curve" smooth="yes"/>
      <point x="160" y="778"/>
      <point x="157" y="731"/>
      <point x="157" y="697" type="curve" smooth="yes"/>
      <point x="157" y="649"/>
      <point x="159" y="582"/>
      <point x="159" y="514" type="curve" smooth="yes"/>
      <point x="159" y="489"/>
      <point x="158" y="464"/>
      <point x="158" y="440" type="curve"/>
      <point x="159" y="438"/>
      <point x="190" y="424"/>
      <point x="382" y="424" type="curve" smooth="yes"/>
      <point x="462" y="424"/>
      <point x="493" y="432"/>
      <point x="569" y="440" type="curve"/>
      <point x="567" y="478"/>
      <point x="564" y="508"/>
      <point x="564" y="540" type="curve" smooth="yes"/>
      <point x="564" y="732" type="line" smooth="yes"/>
      <point x="564" y="761"/>
      <point x="564" y="777"/>
    </contour>
  </outline>
</glyph>
<glyph name="I" format="2">
  <advance width="572"/>
  <unicode hex="0049"/>
  <anchor x="300" y="42" name="bottom"/>
  <anchor x="286" y="921" name="top"/>
  <outline>
    <contour>
      <point x="278" y="115" type="curve"/>
      <point x="256" y="126"/>
      <point x="255" y="161"/>
      <point x="255" y="198" type="curve" smooth="yes"/>
      <point x="255" y="255"/>
      <point x="251" y="329"/>
      <point x="251" y="408" type="curve" smooth="yes"/>
      <point x="251" y="476"/>
      <point x="255" y="597"/>
      <point x="255" y="666" type="curve" smooth="yes"/>
      <point x="255" y="737"/>
      <point x="253" y="769"/>
      <point x="252" y="784" type="curve"/>
      <point x="210" y="776"/>
      <point x="165" y="773"/>
      <point x="152" y="773" type="curve" smooth="yes"/>
      <point x="139" y="773"/>
      <point x="74" y="774"/>
      <point x="65" y="778" type="curve" smooth="yes"/>
      <point x="60" y="781"/>
      <point x="51" y="789"/>
      <point x="51" y="820" type="curve" smooth="yes"/>
      <point x="51" y="828"/>
      <point x="55" y="834"/>
      <point x="63" y="835" type="curve" smooth="yes"/>
      <point x="116" y="844"/>
      <point x="211" y="856"/>
      <point x="248" y="866" type="curve"/>
      <point x="251" y="875"/>
      <point x="256" y="889"/>
      <point x="280" y="889" type="curve" smooth="yes"/>
      <point x="291" y="889"/>
      <point x="310" y="885"/>
      <point x="318" y="876" type="curve"/>
      <point x="320" y="875" type="line"/>
      <point x="346" y="876"/>
      <point x="374" y="877"/>
      <point x="396" y="877" type="curve" smooth="yes"/>
      <point x="447" y="877"/>
      <point x="479" y="873"/>
      <point x="479" y="849" type="curve" smooth="yes"/>
      <point x="479" y="832"/>
      <point x="472" y="796"/>
      <point x="409" y="796" type="curve" smooth="yes"/>
      <point x="396" y="796"/>
      <point x="380" y="797"/>
      <point x="364" y="797" type="curve" smooth="yes"/>
      <point x="353" y="797"/>
      <point x="342" y="796"/>
      <point x="333" y="795" type="curve"/>
      <point x="336" y="769"/>
      <point x="337" y="736"/>
      <point x="337" y="678" type="curve" smooth="yes"/>
      <point x="337" y="558"/>
      <point x="335" y="449"/>
      <point x="335" y="324" type="curve" smooth="yes"/>
      <point x="335" y="288"/>
      <point x="341" y="211"/>
      <point x="341" y="176" type="curve" smooth="yes"/>
      <point x="341" y="171"/>
      <point x="340" y="159"/>
      <point x="337" y="156" type="curve"/>
      <point x="331" y="153"/>
      <point x="295" y="115"/>
    </contour>
    <contour>
      <point x="500" y="101" type="curve" smooth="yes"/>
      <point x="517" y="101"/>
      <point x="531" y="88"/>
      <point x="531" y="62" type="curve" smooth="yes"/>
      <point x="531" y="47"/>
      <point x="491" y="1"/>
      <point x="475" y="1" type="curve"/>
      <point x="451" y="3"/>
      <point x="416" y="4"/>
      <point x="381" y="4" type="curve" smooth="yes"/>
      <point x="304" y="4"/>
      <point x="210" y="9"/>
      <point x="155" y="17" type="curve" smooth="yes"/>
      <point x="105" y="24"/>
      <point x="83" y="32"/>
      <point x="83" y="68" type="curve" smooth="yes"/>
      <point x="83" y="103"/>
      <point x="98" y="125"/>
      <point x="126" y="125" type="curve" smooth="yes"/>
      <point x="139" y="125"/>
      <point x="150" y="121"/>
      <point x="156" y="114" type="curve"/>
      <point x="179" y="96"/>
      <point x="297" y="87"/>
      <point x="327" y="87" type="curve" smooth="yes"/>
      <point x="395" y="87"/>
      <point x="438" y="101"/>
    </contour>
  </outline>
</glyph>
<glyph name="J" format="2">
  <advance width="686"/>
  <unicode hex="004A"/>
  <anchor x="332" y="41" name="bottom"/>
  <anchor x="364" y="899" name="top"/>
  <outline>
    <contour>
      <point x="652" y="874" type="curve" smooth="yes"/>
      <point x="652" y="841"/>
      <point x="633" y="843"/>
      <point x="618" y="682" type="curve" smooth="yes"/>
      <point x="618" y="674"/>
      <point x="614" y="606"/>
      <point x="614" y="478" type="curve" smooth="yes"/>
      <point x="614" y="248"/>
      <point x="614" y="198"/>
      <point x="596" y="154" type="curve" smooth="yes"/>
      <point x="557" y="54"/>
      <point x="434" y="6"/>
      <point x="334" y="6" type="curve" smooth="yes"/>
      <point x="244" y="6"/>
      <point x="216" y="14"/>
      <point x="176" y="42" type="curve"/>
      <point x="114" y="83"/>
      <point x="52" y="130"/>
      <point x="52" y="212" type="curve" smooth="yes"/>
      <point x="52" y="274"/>
      <point x="93" y="276"/>
      <point x="94" y="276" type="curve" smooth="yes"/>
      <point x="100" y="276"/>
      <point x="102" y="270"/>
      <point x="108" y="256" type="curve" smooth="yes"/>
      <point x="150" y="154"/>
      <point x="217" y="84"/>
      <point x="334" y="84" type="curve" smooth="yes"/>
      <point x="392" y="84"/>
      <point x="440" y="98"/>
      <point x="478" y="134" type="curve" smooth="yes"/>
      <point x="508" y="162"/>
      <point x="522" y="186"/>
      <point x="526" y="206" type="curve" smooth="yes"/>
      <point x="532" y="244"/>
      <point x="532" y="348"/>
      <point x="532" y="514" type="curve"/>
      <point x="532" y="514"/>
      <point x="532" y="533"/>
      <point x="532" y="560" type="curve" smooth="yes"/>
      <point x="532" y="600"/>
      <point x="532" y="660"/>
      <point x="536" y="704" type="curve"/>
      <point x="538" y="742"/>
      <point x="542" y="780"/>
      <point x="544" y="798" type="curve"/>
      <point x="486" y="780"/>
      <point x="450" y="782"/>
      <point x="378" y="772" type="curve" smooth="yes"/>
      <point x="368" y="770"/>
      <point x="324" y="766"/>
      <point x="298" y="764" type="curve" smooth="yes"/>
      <point x="254" y="760"/>
      <point x="220" y="754"/>
      <point x="196" y="752" type="curve"/>
      <point x="186" y="750"/>
      <point x="178" y="750"/>
      <point x="166" y="750" type="curve" smooth="yes"/>
      <point x="144" y="750"/>
      <point x="128" y="766"/>
      <point x="128" y="788" type="curve" smooth="yes"/>
      <point x="128" y="812"/>
      <point x="152" y="832"/>
      <point x="162" y="838" type="curve" smooth="yes"/>
      <point x="189" y="854"/>
      <point x="293" y="841"/>
      <point x="398" y="862" type="curve" smooth="yes"/>
      <point x="472" y="876"/>
      <point x="514" y="884"/>
      <point x="526" y="888" type="curve"/>
      <point x="538" y="894"/>
      <point x="580" y="906"/>
      <point x="594" y="906" type="curve" smooth="yes"/>
      <point x="626" y="906"/>
      <point x="652" y="892"/>
    </contour>
  </outline>
</glyph>
<glyph name="K" format="2">
  <advance width="682"/>
  <unicode hex="004B"/>
  <anchor x="340" y="41" name="bottom"/>
  <anchor x="330" y="927" name="top"/>
  <outline>
    <contour>
      <point x="160" y="320" type="curve"/>
      <point x="160" y="171"/>
      <point x="198" y="116"/>
      <point x="198" y="56" type="curve" smooth="yes"/>
      <point x="198" y="30"/>
      <point x="192" y="20"/>
      <point x="162" y="20" type="curve" smooth="yes"/>
      <point x="142" y="20"/>
      <point x="122" y="32"/>
      <point x="112" y="54" type="curve" smooth="yes"/>
      <point x="80" y="126"/>
      <point x="74" y="248"/>
      <point x="70" y="344" type="curve" smooth="yes"/>
      <point x="65" y="453"/>
      <point x="64" y="481"/>
      <point x="64" y="539" type="curve" smooth="yes"/>
      <point x="64" y="568"/>
      <point x="64" y="604"/>
      <point x="64" y="662" type="curve" smooth="yes"/>
      <point x="64" y="712"/>
      <point x="76" y="829"/>
      <point x="81" y="870" type="curve" smooth="yes"/>
      <point x="85" y="902"/>
      <point x="108" y="912"/>
      <point x="132" y="912" type="curve" smooth="yes"/>
      <point x="142" y="912"/>
      <point x="146" y="896"/>
      <point x="146" y="864" type="curve" smooth="yes"/>
      <point x="146" y="786" type="line"/>
      <point x="144" y="702"/>
      <point x="141" y="665"/>
      <point x="141" y="622" type="curve" smooth="yes"/>
      <point x="141" y="566"/>
      <point x="141" y="566"/>
      <point x="152" y="454" type="curve"/>
      <point x="176" y="478"/>
      <point x="190" y="498"/>
      <point x="208" y="518" type="curve" smooth="yes"/>
      <point x="260" y="572"/>
      <point x="274" y="588"/>
      <point x="284" y="602" type="curve" smooth="yes"/>
      <point x="346" y="681"/>
      <point x="390" y="715"/>
      <point x="434" y="772" type="curve" smooth="yes"/>
      <point x="474" y="822"/>
      <point x="486" y="844"/>
      <point x="500" y="864" type="curve" smooth="yes"/>
      <point x="507" y="874"/>
      <point x="514" y="880"/>
      <point x="534" y="880" type="curve" smooth="yes"/>
      <point x="548" y="880"/>
      <point x="580" y="876"/>
      <point x="580" y="856" type="curve" smooth="yes"/>
      <point x="580" y="827"/>
      <point x="519" y="750"/>
      <point x="506" y="730" type="curve"/>
      <point x="490" y="708"/>
      <point x="454" y="660"/>
      <point x="372" y="578" type="curve" smooth="yes"/>
      <point x="252" y="458"/>
      <point x="248" y="438"/>
      <point x="216" y="398" type="curve"/>
      <point x="220" y="393"/>
      <point x="274" y="337"/>
      <point x="450" y="192" type="curve"/>
      <point x="562" y="95"/>
      <point x="664" y="92"/>
      <point x="664" y="52" type="curve" smooth="yes"/>
      <point x="664" y="22"/>
      <point x="646" y="10"/>
      <point x="608" y="10" type="curve" smooth="yes"/>
      <point x="554" y="10"/>
      <point x="512" y="32"/>
      <point x="468" y="60" type="curve" smooth="yes"/>
      <point x="392" y="109"/>
      <point x="322" y="164"/>
      <point x="258" y="228" type="curve" smooth="yes"/>
      <point x="220" y="266"/>
      <point x="200" y="286"/>
    </contour>
  </outline>
</glyph>
<glyph name="L" format="2">
  <advance width="622"/>
  <unicode hex="004C"/>
  <anchor x="320" y="51" name="bottom"/>
  <anchor x="304" y="911" name="top"/>
  <outline>
    <contour>
      <point x="76" y="828" type="curve" smooth="yes"/>
      <point x="76" y="870"/>
      <point x="110" y="894"/>
      <point x="118" y="894" type="curve" smooth="yes"/>
      <point x="150" y="894"/>
      <point x="162" y="880"/>
      <point x="162" y="852" type="curve" smooth="yes"/>
      <point x="162" y="822"/>
      <point x="160" y="814"/>
      <point x="160" y="670" type="curve" smooth="yes"/>
      <point x="160" y="588"/>
      <point x="158" y="506"/>
      <point x="158" y="430" type="curve" smooth="yes"/>
      <point x="158" y="378"/>
      <point x="176" y="209"/>
      <point x="176" y="84" type="curve"/>
      <point x="311" y="94"/>
      <point x="379" y="122"/>
      <point x="466" y="122" type="curve" smooth="yes"/>
      <point x="544" y="122"/>
      <point x="584" y="114"/>
      <point x="584" y="94" type="curve" smooth="yes"/>
      <point x="584" y="66"/>
      <point x="562" y="48"/>
      <point x="548" y="48" type="curve" smooth="yes"/>
      <point x="542" y="48"/>
      <point x="538" y="50"/>
      <point x="534" y="50" type="curve" smooth="yes"/>
      <point x="433" y="50"/>
      <point x="233" y="-20"/>
      <point x="142" y="-20" type="curve" smooth="yes"/>
      <point x="122" y="-20"/>
      <point x="98" y="6"/>
      <point x="88" y="48" type="curve" smooth="yes"/>
      <point x="81" y="78"/>
      <point x="80" y="136"/>
      <point x="80" y="202" type="curve" smooth="yes"/>
      <point x="80" y="228"/>
      <point x="80" y="256"/>
      <point x="80" y="284" type="curve" smooth="yes"/>
      <point x="80" y="660" type="line" smooth="yes"/>
      <point x="80" y="690"/>
      <point x="76" y="826"/>
    </contour>
  </outline>
</glyph>
<glyph name="M" format="2">
  <advance width="882"/>
  <unicode hex="004D"/>
  <anchor x="470" y="41" name="bottom"/>
  <anchor x="436" y="909" name="top"/>
  <outline>
    <contour>
      <point x="732" y="126" type="curve" smooth="yes"/>
      <point x="732" y="215"/>
      <point x="716" y="260"/>
      <point x="716" y="452" type="curve" smooth="yes"/>
      <point x="716" y="556" type="line"/>
      <point x="708" y="542"/>
      <point x="690" y="502"/>
      <point x="672" y="476" type="curve"/>
      <point x="658" y="454"/>
      <point x="636" y="434"/>
      <point x="596" y="388" type="curve" smooth="yes"/>
      <point x="566" y="354"/>
      <point x="508" y="314"/>
      <point x="462" y="288" type="curve"/>
      <point x="450" y="280"/>
      <point x="436" y="276"/>
      <point x="420" y="276" type="curve" smooth="yes"/>
      <point x="392" y="276"/>
      <point x="370" y="286"/>
      <point x="352" y="304" type="curve"/>
      <point x="322" y="338"/>
      <point x="320" y="328"/>
      <point x="292" y="366" type="curve" smooth="yes"/>
      <point x="262" y="406"/>
      <point x="250" y="444"/>
      <point x="218" y="498" type="curve" smooth="yes"/>
      <point x="208" y="514"/>
      <point x="180" y="578"/>
      <point x="170" y="604" type="curve" smooth="yes"/>
      <point x="164" y="618"/>
      <point x="160" y="630"/>
      <point x="154" y="644" type="curve"/>
      <point x="154" y="560" type="line" smooth="yes"/>
      <point x="154" y="426"/>
      <point x="156" y="278"/>
      <point x="166" y="154" type="curve" smooth="yes"/>
      <point x="170" y="112"/>
      <point x="170" y="84"/>
      <point x="182" y="74" type="curve"/>
      <point x="194" y="66"/>
      <point x="200" y="58"/>
      <point x="200" y="46" type="curve" smooth="yes"/>
      <point x="200" y="22"/>
      <point x="168" y="-10"/>
      <point x="144" y="-10" type="curve" smooth="yes"/>
      <point x="120" y="-10"/>
      <point x="116" y="12"/>
      <point x="108" y="34" type="curve" smooth="yes"/>
      <point x="84" y="93"/>
      <point x="78" y="207"/>
      <point x="78" y="377" type="curve" smooth="yes"/>
      <point x="78" y="425"/>
      <point x="78" y="469"/>
      <point x="78" y="510" type="curve" smooth="yes"/>
      <point x="78" y="520"/>
      <point x="76" y="604"/>
      <point x="76" y="612" type="curve" smooth="yes"/>
      <point x="72" y="718"/>
      <point x="56" y="762"/>
      <point x="56" y="816" type="curve" smooth="yes"/>
      <point x="56" y="874"/>
      <point x="68" y="906"/>
      <point x="100" y="906" type="curve" smooth="yes"/>
      <point x="122" y="906"/>
      <point x="126" y="906"/>
      <point x="160" y="842" type="curve"/>
      <point x="174" y="808"/>
      <point x="196" y="756"/>
      <point x="204" y="732" type="curve" smooth="yes"/>
      <point x="226" y="660"/>
      <point x="268" y="594"/>
      <point x="296" y="536" type="curve" smooth="yes"/>
      <point x="312" y="503"/>
      <point x="381" y="370"/>
      <point x="426" y="370" type="curve" smooth="yes"/>
      <point x="428" y="370"/>
      <point x="436" y="372"/>
      <point x="438" y="372" type="curve" smooth="yes"/>
      <point x="487" y="379"/>
      <point x="589" y="491"/>
      <point x="614" y="528" type="curve" smooth="yes"/>
      <point x="654" y="588"/>
      <point x="696" y="700"/>
      <point x="700" y="760" type="curve"/>
      <point x="702" y="812"/>
      <point x="698" y="864"/>
      <point x="732" y="864" type="curve" smooth="yes"/>
      <point x="783" y="864"/>
      <point x="788" y="826"/>
      <point x="788" y="771" type="curve" smooth="yes"/>
      <point x="788" y="758"/>
      <point x="788" y="743"/>
      <point x="788" y="728" type="curve" smooth="yes"/>
      <point x="788" y="646" type="line" smooth="yes"/>
      <point x="788" y="610"/>
      <point x="787" y="583"/>
      <point x="787" y="553" type="curve" smooth="yes"/>
      <point x="787" y="465"/>
      <point x="813" y="83"/>
      <point x="814" y="78" type="curve" smooth="yes"/>
      <point x="816" y="52"/>
      <point x="848" y="-4"/>
      <point x="848" y="-18" type="curve" smooth="yes"/>
      <point x="848" y="-34"/>
      <point x="814" y="-52"/>
      <point x="796" y="-52" type="curve" smooth="yes"/>
      <point x="750" y="-52"/>
      <point x="734" y="8"/>
    </contour>
  </outline>
</glyph>
<glyph name="N" format="2">
  <advance width="772"/>
  <unicode hex="004E"/>
  <anchor x="400" y="41" name="bottom"/>
  <anchor x="396" y="913" name="top"/>
  <outline>
    <contour>
      <point x="691" y="275" type="curve" smooth="yes"/>
      <point x="691" y="217"/>
      <point x="704" y="215"/>
      <point x="704" y="132" type="curve" smooth="yes"/>
      <point x="704" y="76"/>
      <point x="698" y="46"/>
      <point x="688" y="14" type="curve"/>
      <point x="678" y="-12"/>
      <point x="648" y="-12"/>
      <point x="636" y="-12" type="curve" smooth="yes"/>
      <point x="550" y="-12"/>
      <point x="422" y="146"/>
      <point x="364" y="262" type="curve" smooth="yes"/>
      <point x="360" y="270"/>
      <point x="292" y="398"/>
      <point x="242" y="468" type="curve"/>
      <point x="232" y="478"/>
      <point x="168" y="612"/>
      <point x="150" y="656" type="curve"/>
      <point x="148" y="628"/>
      <point x="146" y="612"/>
      <point x="146" y="548" type="curve" smooth="yes"/>
      <point x="146" y="400"/>
      <point x="148" y="478"/>
      <point x="148" y="340" type="curve"/>
      <point x="152" y="90"/>
      <point x="198" y="93"/>
      <point x="198" y="48" type="curve" smooth="yes"/>
      <point x="198" y="20"/>
      <point x="170" y="-6"/>
      <point x="142" y="-6" type="curve" smooth="yes"/>
      <point x="122" y="-6"/>
      <point x="108" y="2"/>
      <point x="102" y="22" type="curve"/>
      <point x="96" y="60"/>
      <point x="94" y="94"/>
      <point x="90" y="122" type="curve" smooth="yes"/>
      <point x="88" y="132"/>
      <point x="72" y="312"/>
      <point x="70" y="322" type="curve" smooth="yes"/>
      <point x="66" y="354"/>
      <point x="64" y="454"/>
      <point x="64" y="616" type="curve" smooth="yes"/>
      <point x="64" y="875"/>
      <point x="72" y="884"/>
      <point x="80" y="892" type="curve"/>
      <point x="88" y="898"/>
      <point x="96" y="900"/>
      <point x="106" y="900" type="curve" smooth="yes"/>
      <point x="132" y="900"/>
      <point x="154" y="880"/>
      <point x="168" y="842" type="curve" smooth="yes"/>
      <point x="168" y="840"/>
      <point x="186" y="798"/>
      <point x="226" y="716" type="curve" smooth="yes"/>
      <point x="256" y="658"/>
      <point x="262" y="614"/>
      <point x="314" y="520" type="curve" smooth="yes"/>
      <point x="354" y="448"/>
      <point x="400" y="392"/>
      <point x="430" y="318" type="curve" smooth="yes"/>
      <point x="452" y="266"/>
      <point x="584" y="94"/>
      <point x="608" y="94" type="curve" smooth="yes"/>
      <point x="620" y="94"/>
      <point x="626" y="96"/>
      <point x="626" y="148" type="curve" smooth="yes"/>
      <point x="626" y="173"/>
      <point x="612" y="194"/>
      <point x="612" y="281" type="curve" smooth="yes"/>
      <point x="612" y="316"/>
      <point x="614" y="346"/>
      <point x="614" y="370" type="curve" smooth="yes"/>
      <point x="614" y="374"/>
      <point x="600" y="738"/>
      <point x="586" y="786" type="curve" smooth="yes"/>
      <point x="584" y="794"/>
      <point x="582" y="798"/>
      <point x="582" y="804" type="curve" smooth="yes"/>
      <point x="582" y="830"/>
      <point x="594" y="854"/>
      <point x="614" y="878" type="curve"/>
      <point x="626" y="890"/>
      <point x="646" y="898"/>
      <point x="674" y="898" type="curve" smooth="yes"/>
      <point x="706" y="898"/>
      <point x="714" y="898"/>
      <point x="714" y="878" type="curve" smooth="yes"/>
      <point x="714" y="841"/>
      <point x="670" y="821"/>
      <point x="670" y="806" type="curve" smooth="yes"/>
      <point x="670" y="753"/>
      <point x="683" y="567"/>
      <point x="683" y="565" type="curve" smooth="yes"/>
      <point x="683" y="553"/>
      <point x="682" y="545"/>
      <point x="682" y="538" type="curve" smooth="yes"/>
      <point x="684" y="514"/>
      <point x="695" y="347"/>
      <point x="695" y="342" type="curve" smooth="yes"/>
      <point x="695" y="316"/>
      <point x="691" y="300"/>
    </contour>
  </outline>
</glyph>
<glyph name="O" format="2">
  <advance width="764"/>
  <unicode hex="004F"/>
  <anchor x="350" y="41" name="bottom"/>
  <anchor x="388" y="931" name="top"/>
  <outline>
    <contour>
      <point x="218" y="780" type="curve"/>
      <point x="214" y="782"/>
      <point x="200" y="790"/>
      <point x="196" y="790" type="curve" smooth="yes"/>
      <point x="186" y="790"/>
      <point x="176" y="738"/>
      <point x="176" y="724" type="curve"/>
      <point x="176" y="724"/>
      <point x="208" y="770"/>
    </contour>
    <contour>
      <point x="626" y="420" type="curve" smooth="yes"/>
      <point x="626" y="524"/>
      <point x="624" y="562"/>
      <point x="616" y="598" type="curve" smooth="yes"/>
      <point x="596" y="694"/>
      <point x="578" y="822"/>
      <point x="460" y="822" type="curve" smooth="yes"/>
      <point x="422" y="822"/>
      <point x="392" y="814"/>
      <point x="370" y="804" type="curve"/>
      <point x="309" y="773"/>
      <point x="215" y="658"/>
      <point x="186" y="596" type="curve"/>
      <point x="176" y="578"/>
      <point x="166" y="572"/>
      <point x="156" y="572" type="curve"/>
      <point x="151" y="559"/>
      <point x="140" y="463"/>
      <point x="140" y="450" type="curve" smooth="yes"/>
      <point x="140" y="429"/>
      <point x="140" y="411"/>
      <point x="140" y="396" type="curve" smooth="yes"/>
      <point x="140" y="358"/>
      <point x="140" y="281"/>
      <point x="198" y="176" type="curve"/>
      <point x="246" y="104"/>
      <point x="290" y="76"/>
      <point x="366" y="76" type="curve" smooth="yes"/>
      <point x="396" y="76"/>
      <point x="440" y="96"/>
      <point x="456" y="106" type="curve"/>
      <point x="514" y="148"/>
      <point x="542" y="178"/>
      <point x="564" y="214" type="curve" smooth="yes"/>
      <point x="596" y="268"/>
      <point x="626" y="340"/>
    </contour>
    <contour>
      <point x="182" y="892" type="curve" smooth="yes"/>
      <point x="206" y="892"/>
      <point x="266" y="856"/>
      <point x="276" y="842" type="curve"/>
      <point x="328" y="880"/>
      <point x="376" y="904"/>
      <point x="452" y="904" type="curve" smooth="yes"/>
      <point x="506" y="904"/>
      <point x="546" y="892"/>
      <point x="578" y="858" type="curve" smooth="yes"/>
      <point x="624" y="808"/>
      <point x="624" y="790"/>
      <point x="656" y="724" type="curve" smooth="yes"/>
      <point x="686" y="664"/>
      <point x="702" y="570"/>
      <point x="702" y="444" type="curve" smooth="yes"/>
      <point x="702" y="366"/>
      <point x="694" y="310"/>
      <point x="682" y="280" type="curve" smooth="yes"/>
      <point x="559" y="-5"/>
      <point x="354" y="-12"/>
      <point x="350" y="-12" type="curve" smooth="yes"/>
      <point x="240" y="-12"/>
      <point x="165" y="51"/>
      <point x="118" y="144" type="curve"/>
      <point x="88" y="198"/>
      <point x="90" y="206"/>
      <point x="80" y="258" type="curve" smooth="yes"/>
      <point x="74" y="290"/>
      <point x="56" y="322"/>
      <point x="56" y="398" type="curve" smooth="yes"/>
      <point x="56" y="536"/>
      <point x="74" y="626"/>
      <point x="84" y="676" type="curve"/>
      <point x="100" y="746"/>
      <point x="92" y="804"/>
      <point x="128" y="856" type="curve" smooth="yes"/>
      <point x="144" y="880"/>
      <point x="162" y="892"/>
    </contour>
  </outline>
</glyph>
<glyph name="P" format="2">
  <advance width="622"/>
  <unicode hex="0050"/>
  <anchor x="179" y="41" name="bottom"/>
  <anchor x="294" y="927" name="top"/>
  <outline>
    <contour>
      <point x="176" y="790" type="curve"/>
      <point x="176" y="729"/>
      <point x="174" y="621"/>
      <point x="174" y="591" type="curve" smooth="yes"/>
      <point x="174" y="456"/>
      <point x="180" y="416"/>
      <point x="182" y="374" type="curve"/>
      <point x="231" y="382"/>
      <point x="277" y="391"/>
      <point x="331" y="418" type="curve" smooth="yes"/>
      <point x="357" y="431"/>
      <point x="396" y="451"/>
      <point x="419" y="469" type="curve" smooth="yes"/>
      <point x="443" y="489"/>
      <point x="492" y="532"/>
      <point x="492" y="562" type="curve" smooth="yes"/>
      <point x="492" y="578"/>
      <point x="473" y="618"/>
      <point x="464" y="630" type="curve" smooth="yes"/>
      <point x="433" y="671"/>
      <point x="401" y="692"/>
      <point x="348" y="730" type="curve" smooth="yes"/>
      <point x="295" y="767"/>
      <point x="252" y="790"/>
    </contour>
    <contour>
      <point x="314" y="319" type="curve" smooth="yes"/>
      <point x="284" y="307"/>
      <point x="220" y="295"/>
      <point x="186" y="290" type="curve"/>
      <point x="186" y="280"/>
      <point x="187" y="258"/>
      <point x="188" y="248" type="curve" smooth="yes"/>
      <point x="190" y="218"/>
      <point x="189" y="182"/>
      <point x="194" y="156" type="curve" smooth="yes"/>
      <point x="204" y="108"/>
      <point x="224" y="100"/>
      <point x="224" y="70" type="curve" smooth="yes"/>
      <point x="224" y="36"/>
      <point x="209" y="-2"/>
      <point x="170" y="-2" type="curve" smooth="yes"/>
      <point x="152" y="-2"/>
      <point x="136" y="18"/>
      <point x="130" y="40" type="curve" smooth="yes"/>
      <point x="126" y="56"/>
      <point x="125" y="88"/>
      <point x="122" y="102" type="curve" smooth="yes"/>
      <point x="90" y="235"/>
      <point x="90" y="616"/>
      <point x="90" y="650" type="curve" smooth="yes"/>
      <point x="90" y="719"/>
      <point x="98" y="785"/>
      <point x="98" y="786" type="curve"/>
      <point x="90" y="782"/>
      <point x="66" y="768"/>
      <point x="64" y="762" type="curve" smooth="yes"/>
      <point x="62" y="756"/>
      <point x="62" y="738"/>
      <point x="62" y="706" type="curve" smooth="yes"/>
      <point x="62" y="686"/>
      <point x="56" y="672"/>
      <point x="46" y="672" type="curve" smooth="yes"/>
      <point x="36" y="672"/>
      <point x="22" y="712"/>
      <point x="22" y="754" type="curve" smooth="yes"/>
      <point x="22" y="812"/>
      <point x="44" y="857"/>
      <point x="104" y="874" type="curve"/>
      <point x="106" y="884"/>
      <point x="104" y="894"/>
      <point x="106" y="898" type="curve" smooth="yes"/>
      <point x="110" y="906"/>
      <point x="116" y="912"/>
      <point x="136" y="912" type="curve" smooth="yes"/>
      <point x="152" y="912"/>
      <point x="168" y="910"/>
      <point x="172" y="906" type="curve" smooth="yes"/>
      <point x="174" y="904"/>
      <point x="176" y="882"/>
      <point x="176" y="878" type="curve"/>
      <point x="253" y="872"/>
      <point x="324" y="838"/>
      <point x="384" y="800" type="curve" smooth="yes"/>
      <point x="459" y="753"/>
      <point x="484" y="735"/>
      <point x="524" y="684" type="curve" smooth="yes"/>
      <point x="555" y="643"/>
      <point x="574" y="610"/>
      <point x="574" y="578" type="curve" smooth="yes"/>
      <point x="574" y="518"/>
      <point x="546" y="489"/>
      <point x="524" y="461" type="curve" smooth="yes"/>
      <point x="484" y="408"/>
      <point x="372" y="341"/>
    </contour>
  </outline>
</glyph>
<glyph name="Q" format="2">
  <advance width="783"/>
  <unicode hex="0051"/>
  <anchor x="383" y="47" name="bottom"/>
  <anchor x="412" y="947" name="top"/>
  <outline>
    <contour>
      <point x="441" y="373" type="curve" smooth="yes"/>
      <point x="470" y="373"/>
      <point x="509" y="283"/>
      <point x="547" y="245" type="curve"/>
      <point x="585" y="299"/>
      <point x="598" y="353"/>
      <point x="609" y="447" type="curve" smooth="yes"/>
      <point x="626" y="566"/>
      <point x="627" y="640"/>
      <point x="627" y="669" type="curve" smooth="yes"/>
      <point x="627" y="675"/>
      <point x="627" y="680"/>
      <point x="627" y="682" type="curve" smooth="yes"/>
      <point x="627" y="702"/>
      <point x="625" y="727"/>
      <point x="606" y="753" type="curve"/>
      <point x="584" y="778"/>
      <point x="543" y="800"/>
      <point x="504" y="806" type="curve" smooth="yes"/>
      <point x="494" y="807"/>
      <point x="480" y="808"/>
      <point x="462" y="808" type="curve" smooth="yes"/>
      <point x="449" y="808"/>
      <point x="434" y="808"/>
      <point x="417" y="806" type="curve" smooth="yes"/>
      <point x="298" y="794"/>
      <point x="180" y="781"/>
      <point x="147" y="569" type="curve" smooth="yes"/>
      <point x="145" y="555"/>
      <point x="144" y="541"/>
      <point x="144" y="525" type="curve" smooth="yes"/>
      <point x="144" y="513"/>
      <point x="148" y="363"/>
      <point x="184" y="286" type="curve" smooth="yes"/>
      <point x="206" y="241"/>
      <point x="212" y="210"/>
      <point x="243" y="173" type="curve" smooth="yes"/>
      <point x="259" y="155"/>
      <point x="274" y="141"/>
      <point x="290" y="131" type="curve" smooth="yes"/>
      <point x="321" y="112"/>
      <point x="337" y="92"/>
      <point x="386" y="92" type="curve" smooth="yes"/>
      <point x="413" y="92"/>
      <point x="458" y="133"/>
      <point x="484" y="169" type="curve"/>
      <point x="480" y="179"/>
      <point x="464" y="195"/>
      <point x="454" y="209" type="curve"/>
      <point x="442" y="229"/>
      <point x="440" y="231"/>
      <point x="426" y="253" type="curve" smooth="yes"/>
      <point x="420" y="261"/>
      <point x="374" y="315"/>
      <point x="374" y="325" type="curve" smooth="yes"/>
      <point x="374" y="337"/>
      <point x="409" y="373"/>
    </contour>
    <contour>
      <point x="761" y="-7" type="curve" smooth="yes"/>
      <point x="761" y="-11"/>
      <point x="754" y="-49"/>
      <point x="706" y="-49" type="curve" smooth="yes"/>
      <point x="700" y="-49"/>
      <point x="696" y="-47"/>
      <point x="690" y="-47" type="curve" smooth="yes"/>
      <point x="664" y="-43"/>
      <point x="660" y="-23"/>
      <point x="642" y="-11" type="curve" smooth="yes"/>
      <point x="628" y="-1"/>
      <point x="620" y="11"/>
      <point x="606" y="23" type="curve" smooth="yes"/>
      <point x="584" y="43"/>
      <point x="566" y="65"/>
      <point x="542" y="99" type="curve"/>
      <point x="510" y="65"/>
      <point x="438" y="3"/>
      <point x="376" y="3" type="curve" smooth="yes"/>
      <point x="324" y="3"/>
      <point x="264" y="37"/>
      <point x="224" y="63" type="curve" smooth="yes"/>
      <point x="184" y="89"/>
      <point x="168" y="127"/>
      <point x="142" y="167" type="curve" smooth="yes"/>
      <point x="115" y="207"/>
      <point x="62" y="352"/>
      <point x="62" y="483" type="curve" smooth="yes"/>
      <point x="62" y="497"/>
      <point x="62" y="529"/>
      <point x="68" y="573" type="curve" smooth="yes"/>
      <point x="80" y="669"/>
      <point x="88" y="679"/>
      <point x="110" y="735" type="curve" smooth="yes"/>
      <point x="120" y="759"/>
      <point x="138" y="781"/>
      <point x="172" y="807" type="curve" smooth="yes"/>
      <point x="232" y="853"/>
      <point x="282" y="875"/>
      <point x="372" y="891" type="curve" smooth="yes"/>
      <point x="396" y="896"/>
      <point x="426" y="902"/>
      <point x="463" y="902" type="curve" smooth="yes"/>
      <point x="482" y="902"/>
      <point x="502" y="900"/>
      <point x="524" y="897" type="curve" smooth="yes"/>
      <point x="594" y="887"/>
      <point x="622" y="877"/>
      <point x="662" y="833" type="curve" smooth="yes"/>
      <point x="698" y="795"/>
      <point x="716" y="755"/>
      <point x="716" y="687" type="curve" smooth="yes"/>
      <point x="716" y="599"/>
      <point x="714" y="569"/>
      <point x="704" y="501" type="curve" smooth="yes"/>
      <point x="680" y="333"/>
      <point x="655" y="260"/>
      <point x="623" y="206" type="curve"/>
      <point x="613" y="192"/>
      <point x="612" y="182"/>
      <point x="602" y="168" type="curve"/>
      <point x="618" y="140"/>
      <point x="625" y="131"/>
      <point x="647" y="105" type="curve"/>
      <point x="657" y="91"/>
      <point x="681" y="73"/>
      <point x="713" y="51" type="curve"/>
      <point x="745" y="27"/>
      <point x="761" y="7"/>
    </contour>
  </outline>
</glyph>
<glyph name="R" format="2">
  <advance width="708"/>
  <unicode hex="0052"/>
  <anchor x="350" y="41" name="bottom"/>
  <anchor x="314" y="915" name="top"/>
  <outline>
    <contour>
      <point x="514" y="597" type="curve" smooth="yes"/>
      <point x="514" y="664"/>
      <point x="402" y="750"/>
      <point x="298" y="767" type="curve" smooth="yes"/>
      <point x="280" y="769"/>
      <point x="248" y="777"/>
      <point x="214" y="777" type="curve" smooth="yes"/>
      <point x="196" y="777"/>
      <point x="176" y="779"/>
      <point x="162" y="781" type="curve"/>
      <point x="162" y="773"/>
      <point x="153" y="652"/>
      <point x="153" y="503" type="curve" smooth="yes"/>
      <point x="153" y="472"/>
      <point x="153" y="439"/>
      <point x="154" y="405" type="curve"/>
      <point x="154" y="405"/>
      <point x="192" y="403"/>
      <point x="218" y="403" type="curve" smooth="yes"/>
      <point x="276" y="403"/>
      <point x="384" y="427"/>
      <point x="454" y="487" type="curve" smooth="yes"/>
      <point x="492" y="519"/>
      <point x="514" y="573"/>
    </contour>
    <contour>
      <point x="160" y="321" type="curve"/>
      <point x="162" y="263"/>
      <point x="167" y="145"/>
      <point x="192" y="91" type="curve"/>
      <point x="200" y="77"/>
      <point x="202" y="65"/>
      <point x="202" y="59" type="curve" smooth="yes"/>
      <point x="202" y="49"/>
      <point x="192" y="35"/>
      <point x="176" y="19" type="curve"/>
      <point x="160" y="1"/>
      <point x="154" y="-1"/>
      <point x="144" y="-1" type="curve" smooth="yes"/>
      <point x="136" y="-1"/>
      <point x="122" y="11"/>
      <point x="112" y="27" type="curve" smooth="yes"/>
      <point x="94" y="55"/>
      <point x="88" y="83"/>
      <point x="84" y="147" type="curve" smooth="yes"/>
      <point x="82" y="187"/>
      <point x="82" y="217"/>
      <point x="74" y="293" type="curve" smooth="yes"/>
      <point x="70" y="330"/>
      <point x="70" y="365"/>
      <point x="70" y="397" type="curve" smooth="yes"/>
      <point x="70" y="418"/>
      <point x="70" y="439"/>
      <point x="70" y="459" type="curve" smooth="yes"/>
      <point x="70" y="583"/>
      <point x="71" y="636"/>
      <point x="71" y="701" type="curve" smooth="yes"/>
      <point x="71" y="733"/>
      <point x="71" y="768"/>
      <point x="70" y="817" type="curve"/>
      <point x="58" y="827"/>
      <point x="44" y="847"/>
      <point x="44" y="861" type="curve" smooth="yes"/>
      <point x="44" y="885"/>
      <point x="74" y="921"/>
      <point x="102" y="921" type="curve" smooth="yes"/>
      <point x="130" y="921"/>
      <point x="164" y="885"/>
      <point x="166" y="871" type="curve"/>
      <point x="198" y="869"/>
      <point x="270" y="865"/>
      <point x="306" y="857" type="curve" smooth="yes"/>
      <point x="342" y="849"/>
      <point x="376" y="835"/>
      <point x="394" y="829" type="curve" smooth="yes"/>
      <point x="468" y="804"/>
      <point x="525" y="766"/>
      <point x="568" y="701" type="curve"/>
      <point x="580" y="677"/>
      <point x="602" y="623"/>
      <point x="602" y="601" type="curve" smooth="yes"/>
      <point x="602" y="531"/>
      <point x="542" y="469"/>
      <point x="498" y="429" type="curve" smooth="yes"/>
      <point x="460" y="395"/>
      <point x="402" y="369"/>
      <point x="370" y="357" type="curve"/>
      <point x="408" y="341"/>
      <point x="452" y="299"/>
      <point x="472" y="277" type="curve" smooth="yes"/>
      <point x="504" y="241"/>
      <point x="562" y="161"/>
      <point x="588" y="133" type="curve" smooth="yes"/>
      <point x="624" y="95"/>
      <point x="646" y="75"/>
      <point x="656" y="71" type="curve" smooth="yes"/>
      <point x="666" y="67"/>
      <point x="670" y="57"/>
      <point x="670" y="45" type="curve" smooth="yes"/>
      <point x="670" y="21"/>
      <point x="654" y="-5"/>
      <point x="628" y="-5" type="curve" smooth="yes"/>
      <point x="589" y="-5"/>
      <point x="535" y="55"/>
      <point x="510" y="83" type="curve" smooth="yes"/>
      <point x="498" y="95"/>
      <point x="468" y="131"/>
      <point x="448" y="157" type="curve" smooth="yes"/>
      <point x="426" y="187"/>
      <point x="388" y="221"/>
      <point x="362" y="249" type="curve" smooth="yes"/>
      <point x="320" y="293"/>
      <point x="270" y="311"/>
    </contour>
  </outline>
</glyph>
<glyph name="S" format="2">
  <advance width="609"/>
  <unicode hex="0053"/>
  <anchor x="310" y="43" name="bottom"/>
  <anchor x="334" y="939" name="top"/>
  <outline>
    <contour>
      <point x="131" y="114" type="curve" smooth="yes"/>
      <point x="184" y="114"/>
      <point x="169" y="84"/>
      <point x="237" y="84" type="curve" smooth="yes"/>
      <point x="275" y="84"/>
      <point x="337" y="98"/>
      <point x="363" y="108" type="curve"/>
      <point x="413" y="130"/>
      <point x="433" y="146"/>
      <point x="459" y="162" type="curve" smooth="yes"/>
      <point x="465" y="166"/>
      <point x="467" y="168"/>
      <point x="467" y="176" type="curve" smooth="yes"/>
      <point x="467" y="186"/>
      <point x="461" y="194"/>
      <point x="451" y="204" type="curve" smooth="yes"/>
      <point x="333" y="320"/>
      <point x="293" y="324"/>
      <point x="233" y="342" type="curve"/>
      <point x="211" y="350"/>
      <point x="121" y="388"/>
      <point x="101" y="420" type="curve" smooth="yes"/>
      <point x="73" y="466"/>
      <point x="61" y="484"/>
      <point x="61" y="550" type="curve" smooth="yes"/>
      <point x="61" y="636"/>
      <point x="119" y="726"/>
      <point x="143" y="760" type="curve"/>
      <point x="153" y="772"/>
      <point x="163" y="790"/>
      <point x="183" y="810" type="curve" smooth="yes"/>
      <point x="214" y="841"/>
      <point x="295" y="896"/>
      <point x="337" y="896" type="curve" smooth="yes"/>
      <point x="393" y="896"/>
      <point x="423" y="886"/>
      <point x="441" y="874" type="curve" smooth="yes"/>
      <point x="447" y="870"/>
      <point x="455" y="864"/>
      <point x="467" y="858" type="curve" smooth="yes"/>
      <point x="493" y="844"/>
      <point x="505" y="826"/>
      <point x="505" y="806" type="curve" smooth="yes"/>
      <point x="505" y="786"/>
      <point x="489" y="768"/>
      <point x="465" y="768" type="curve" smooth="yes"/>
      <point x="426" y="768"/>
      <point x="433" y="798"/>
      <point x="343" y="798" type="curve" smooth="yes"/>
      <point x="288" y="798"/>
      <point x="237" y="753"/>
      <point x="207" y="710" type="curve" smooth="yes"/>
      <point x="173" y="662"/>
      <point x="151" y="628"/>
      <point x="151" y="554" type="curve" smooth="yes"/>
      <point x="151" y="514"/>
      <point x="155" y="482"/>
      <point x="171" y="466" type="curve" smooth="yes"/>
      <point x="193" y="442"/>
      <point x="243" y="424"/>
      <point x="277" y="414" type="curve"/>
      <point x="373" y="382"/>
      <point x="459" y="324"/>
      <point x="529" y="258" type="curve" smooth="yes"/>
      <point x="559" y="230"/>
      <point x="563" y="204"/>
      <point x="563" y="192" type="curve" smooth="yes"/>
      <point x="563" y="168"/>
      <point x="547" y="138"/>
      <point x="515" y="106" type="curve" smooth="yes"/>
      <point x="461" y="52"/>
      <point x="290" y="-6"/>
      <point x="217" y="-6" type="curve" smooth="yes"/>
      <point x="157" y="-6"/>
      <point x="81" y="26"/>
      <point x="81" y="66" type="curve" smooth="yes"/>
      <point x="81" y="95"/>
      <point x="103" y="114"/>
    </contour>
  </outline>
</glyph>
<glyph name="T" format="2">
  <advance width="740"/>
  <unicode hex="0054"/>
  <anchor x="400" y="41" name="bottom"/>
  <anchor x="360" y="927" name="top"/>
  <outline>
    <contour>
      <point x="602" y="813" type="curve"/>
      <point x="492" y="813"/>
      <point x="506" y="803"/>
      <point x="396" y="793" type="curve"/>
      <point x="396" y="793"/>
      <point x="398" y="728"/>
      <point x="398" y="694" type="curve" smooth="yes"/>
      <point x="402" y="520"/>
      <point x="412" y="334"/>
      <point x="418" y="250" type="curve" smooth="yes"/>
      <point x="422" y="204"/>
      <point x="420" y="128"/>
      <point x="424" y="118" type="curve" smooth="yes"/>
      <point x="428" y="108"/>
      <point x="432" y="100"/>
      <point x="438" y="96" type="curve" smooth="yes"/>
      <point x="452" y="84"/>
      <point x="460" y="66"/>
      <point x="460" y="54" type="curve" smooth="yes"/>
      <point x="460" y="38"/>
      <point x="448" y="22"/>
      <point x="420" y="10" type="curve"/>
      <point x="404" y="0"/>
      <point x="408" y="-2"/>
      <point x="400" y="-2" type="curve" smooth="yes"/>
      <point x="394" y="-2"/>
      <point x="390" y="0"/>
      <point x="380" y="6" type="curve"/>
      <point x="346" y="22"/>
      <point x="343" y="68"/>
      <point x="339" y="118" type="curve" smooth="yes"/>
      <point x="335" y="170"/>
      <point x="335" y="246"/>
      <point x="333" y="270" type="curve" smooth="yes"/>
      <point x="329" y="318"/>
      <point x="318" y="438"/>
      <point x="318" y="630" type="curve" smooth="yes"/>
      <point x="318" y="672"/>
      <point x="320" y="708"/>
      <point x="320" y="738" type="curve" smooth="yes"/>
      <point x="320" y="755"/>
      <point x="319" y="770"/>
      <point x="317" y="783" type="curve"/>
      <point x="291" y="781"/>
      <point x="250" y="779"/>
      <point x="200" y="779" type="curve" smooth="yes"/>
      <point x="76" y="779"/>
      <point x="28" y="780"/>
      <point x="28" y="830" type="curve" smooth="yes"/>
      <point x="28" y="834"/>
      <point x="30" y="838"/>
      <point x="36" y="844" type="curve"/>
      <point x="49" y="865"/>
      <point x="50" y="868"/>
      <point x="106" y="868" type="curve" smooth="yes"/>
      <point x="138" y="868"/>
      <point x="148" y="858"/>
      <point x="182" y="858" type="curve" smooth="yes"/>
      <point x="206" y="858"/>
      <point x="240" y="858"/>
      <point x="286" y="864" type="curve" smooth="yes"/>
      <point x="288" y="864"/>
      <point x="439" y="877"/>
      <point x="520" y="882" type="curve"/>
      <point x="574" y="888"/>
      <point x="596" y="892"/>
      <point x="602" y="896" type="curve" smooth="yes"/>
      <point x="608" y="900"/>
      <point x="618" y="904"/>
      <point x="634" y="904" type="curve" smooth="yes"/>
      <point x="642" y="904"/>
      <point x="712" y="903"/>
      <point x="712" y="862" type="curve" smooth="yes"/>
      <point x="712" y="838"/>
      <point x="698" y="835"/>
      <point x="682" y="827" type="curve" smooth="yes"/>
      <point x="668" y="819"/>
      <point x="640" y="815"/>
    </contour>
  </outline>
</glyph>
<glyph name="U" format="2">
  <advance width="670"/>
  <unicode hex="0055"/>
  <anchor x="337" y="41" name="bottom"/>
  <anchor x="336" y="947" name="top"/>
  <outline>
    <contour>
      <point x="111" y="911" type="curve" smooth="yes"/>
      <point x="136" y="911"/>
      <point x="145" y="898"/>
      <point x="145" y="820" type="curve" smooth="yes"/>
      <point x="145" y="744"/>
      <point x="143" y="650"/>
      <point x="143" y="576" type="curve" smooth="yes"/>
      <point x="143" y="475"/>
      <point x="154" y="320"/>
      <point x="189" y="228" type="curve" smooth="yes"/>
      <point x="201" y="197"/>
      <point x="214" y="170"/>
      <point x="242" y="141" type="curve" smooth="yes"/>
      <point x="282" y="99"/>
      <point x="314" y="74"/>
      <point x="340" y="74" type="curve" smooth="yes"/>
      <point x="388" y="74"/>
      <point x="436" y="115"/>
      <point x="482" y="189" type="curve" smooth="yes"/>
      <point x="524" y="258"/>
      <point x="536" y="303"/>
      <point x="536" y="534" type="curve" smooth="yes"/>
      <point x="536" y="768"/>
      <point x="520" y="812"/>
      <point x="493" y="842" type="curve"/>
      <point x="490" y="847"/>
      <point x="484" y="851"/>
      <point x="484" y="859" type="curve" smooth="yes"/>
      <point x="484" y="870"/>
      <point x="495" y="882"/>
      <point x="506" y="894" type="curve" smooth="yes"/>
      <point x="515" y="905"/>
      <point x="528" y="911"/>
      <point x="542" y="911" type="curve" smooth="yes"/>
      <point x="554" y="911"/>
      <point x="591" y="876"/>
      <point x="602" y="798" type="curve"/>
      <point x="612" y="699"/>
      <point x="614" y="662"/>
      <point x="614" y="538" type="curve" smooth="yes"/>
      <point x="614" y="521"/>
      <point x="614" y="506"/>
      <point x="614" y="491" type="curve" smooth="yes"/>
      <point x="614" y="271"/>
      <point x="588" y="214"/>
      <point x="548" y="142" type="curve" smooth="yes"/>
      <point x="499" y="55"/>
      <point x="413" y="-7"/>
      <point x="334" y="-7" type="curve" smooth="yes"/>
      <point x="274" y="-7"/>
      <point x="239" y="28"/>
      <point x="197" y="68" type="curve" smooth="yes"/>
      <point x="161" y="103"/>
      <point x="135" y="144"/>
      <point x="112" y="200" type="curve" smooth="yes"/>
      <point x="70" y="297"/>
      <point x="60" y="512"/>
      <point x="60" y="624" type="curve" smooth="yes"/>
      <point x="60" y="675"/>
      <point x="62" y="742"/>
      <point x="62" y="792" type="curve" smooth="yes"/>
      <point x="62" y="848"/>
      <point x="66" y="882"/>
      <point x="71" y="893" type="curve"/>
      <point x="79" y="904"/>
      <point x="92" y="911"/>
    </contour>
  </outline>
</glyph>
<glyph name="V" format="2">
  <advance width="692"/>
  <unicode hex="0056"/>
  <anchor x="384" y="41" name="bottom"/>
  <anchor x="352" y="937" name="top"/>
  <outline>
    <contour>
      <point x="248" y="398" type="curve" smooth="yes"/>
      <point x="280" y="322"/>
      <point x="272" y="340"/>
      <point x="310" y="264" type="curve" smooth="yes"/>
      <point x="316" y="254"/>
      <point x="322" y="240"/>
      <point x="332" y="220" type="curve"/>
      <point x="346" y="188"/>
      <point x="346" y="188"/>
      <point x="352" y="178" type="curve" smooth="yes"/>
      <point x="356" y="170"/>
      <point x="376" y="130"/>
      <point x="384" y="120" type="curve"/>
      <point x="394" y="138"/>
      <point x="394" y="152"/>
      <point x="404" y="176" type="curve" smooth="yes"/>
      <point x="410" y="188"/>
      <point x="408" y="208"/>
      <point x="418" y="234" type="curve" smooth="yes"/>
      <point x="442" y="298"/>
      <point x="458" y="352"/>
      <point x="468" y="396" type="curve" smooth="yes"/>
      <point x="470" y="406"/>
      <point x="472" y="424"/>
      <point x="482" y="448" type="curve"/>
      <point x="498" y="492"/>
      <point x="508" y="536"/>
      <point x="514" y="554" type="curve"/>
      <point x="533" y="631"/>
      <point x="543" y="709"/>
      <point x="550" y="788" type="curve" smooth="yes"/>
      <point x="554" y="836"/>
      <point x="550" y="846"/>
      <point x="556" y="876" type="curve" smooth="yes"/>
      <point x="562" y="904"/>
      <point x="594" y="922"/>
      <point x="610" y="922" type="curve" smooth="yes"/>
      <point x="633" y="922"/>
      <point x="650" y="875"/>
      <point x="650" y="856" type="curve" smooth="yes"/>
      <point x="650" y="829"/>
      <point x="638" y="853"/>
      <point x="622" y="768" type="curve"/>
      <point x="610" y="642"/>
      <point x="586" y="530"/>
      <point x="554" y="430" type="curve" smooth="yes"/>
      <point x="540" y="384"/>
      <point x="536" y="336"/>
      <point x="510" y="264" type="curve" smooth="yes"/>
      <point x="509" y="262"/>
      <point x="488" y="161"/>
      <point x="444" y="30" type="curve" smooth="yes"/>
      <point x="434" y="-1"/>
      <point x="423" y="-28"/>
      <point x="386" y="-28" type="curve" smooth="yes"/>
      <point x="374" y="-28"/>
      <point x="364" y="-24"/>
      <point x="354" y="-16" type="curve" smooth="yes"/>
      <point x="330" y="1"/>
      <point x="299" y="113"/>
      <point x="266" y="162" type="curve"/>
      <point x="258" y="172"/>
      <point x="242" y="202"/>
      <point x="208" y="274" type="curve" smooth="yes"/>
      <point x="207" y="277"/>
      <point x="132" y="443"/>
      <point x="98" y="608" type="curve" smooth="yes"/>
      <point x="80" y="702"/>
      <point x="76" y="736"/>
      <point x="42" y="800" type="curve"/>
      <point x="32" y="816"/>
      <point x="28" y="832"/>
      <point x="28" y="846" type="curve" smooth="yes"/>
      <point x="28" y="864"/>
      <point x="56" y="894"/>
      <point x="74" y="894" type="curve" smooth="yes"/>
      <point x="127" y="894"/>
      <point x="149" y="786"/>
      <point x="156" y="750" type="curve"/>
      <point x="188" y="618"/>
      <point x="204" y="546"/>
      <point x="208" y="530" type="curve" smooth="yes"/>
      <point x="224" y="456"/>
      <point x="220" y="464"/>
    </contour>
  </outline>
</glyph>
<glyph name="W" format="2">
  <advance width="878"/>
  <unicode hex="0057"/>
  <anchor x="460" y="41" name="bottom"/>
  <anchor x="428" y="929" name="top"/>
  <outline>
    <contour>
      <point x="758" y="172" type="curve" smooth="yes"/>
      <point x="758" y="137"/>
      <point x="764" y="127"/>
      <point x="764" y="102" type="curve" smooth="yes"/>
      <point x="764" y="90"/>
      <point x="760" y="74"/>
      <point x="750" y="58" type="curve" smooth="yes"/>
      <point x="742" y="46"/>
      <point x="724" y="-14"/>
      <point x="714" y="-14" type="curve" smooth="yes"/>
      <point x="706" y="-14"/>
      <point x="694" y="-6"/>
      <point x="674" y="8" type="curve" smooth="yes"/>
      <point x="632" y="40"/>
      <point x="600" y="82"/>
      <point x="576" y="126" type="curve" smooth="yes"/>
      <point x="552" y="168"/>
      <point x="542" y="220"/>
      <point x="532" y="242" type="curve" smooth="yes"/>
      <point x="518" y="274"/>
      <point x="484" y="324"/>
      <point x="474" y="378" type="curve" smooth="yes"/>
      <point x="464" y="428"/>
      <point x="440" y="474"/>
      <point x="426" y="540" type="curve"/>
      <point x="395" y="455"/>
      <point x="400" y="418"/>
      <point x="372" y="328" type="curve" smooth="yes"/>
      <point x="363" y="296"/>
      <point x="355" y="245"/>
      <point x="338" y="194" type="curve" smooth="yes"/>
      <point x="332" y="174"/>
      <point x="326" y="148"/>
      <point x="320" y="116" type="curve" smooth="yes"/>
      <point x="310" y="62"/>
      <point x="300" y="44"/>
      <point x="268" y="12" type="curve" smooth="yes"/>
      <point x="262" y="6"/>
      <point x="258" y="6"/>
      <point x="250" y="6" type="curve" smooth="yes"/>
      <point x="240" y="6"/>
      <point x="234" y="8"/>
      <point x="230" y="16" type="curve" smooth="yes"/>
      <point x="192" y="76"/>
      <point x="178" y="106"/>
      <point x="160" y="184" type="curve" smooth="yes"/>
      <point x="126" y="350"/>
      <point x="99" y="533"/>
      <point x="98" y="536" type="curve" smooth="yes"/>
      <point x="84" y="630"/>
      <point x="78" y="714"/>
      <point x="62" y="776" type="curve" smooth="yes"/>
      <point x="52" y="812"/>
      <point x="34" y="830"/>
      <point x="34" y="862" type="curve" smooth="yes"/>
      <point x="34" y="888"/>
      <point x="58" y="914"/>
      <point x="76" y="914" type="curve" smooth="yes"/>
      <point x="111" y="914"/>
      <point x="128" y="871"/>
      <point x="132" y="842" type="curve" smooth="yes"/>
      <point x="136" y="810"/>
      <point x="156" y="750"/>
      <point x="162" y="688" type="curve" smooth="yes"/>
      <point x="172" y="584"/>
      <point x="180" y="538"/>
      <point x="212" y="370" type="curve" smooth="yes"/>
      <point x="226" y="296"/>
      <point x="232" y="252"/>
      <point x="234" y="246" type="curve" smooth="yes"/>
      <point x="240" y="222"/>
      <point x="246" y="198"/>
      <point x="252" y="188" type="curve"/>
      <point x="263" y="213"/>
      <point x="265" y="270"/>
      <point x="278" y="300" type="curve" smooth="yes"/>
      <point x="286" y="318"/>
      <point x="290" y="332"/>
      <point x="296" y="354" type="curve" smooth="yes"/>
      <point x="306" y="390"/>
      <point x="310" y="412"/>
      <point x="320" y="448" type="curve" smooth="yes"/>
      <point x="327" y="469"/>
      <point x="343" y="540"/>
      <point x="358" y="578" type="curve"/>
      <point x="368" y="610"/>
      <point x="374" y="636"/>
      <point x="388" y="658" type="curve" smooth="yes"/>
      <point x="402" y="679"/>
      <point x="418" y="691"/>
      <point x="443" y="691" type="curve" smooth="yes"/>
      <point x="444" y="691"/>
      <point x="445" y="691"/>
      <point x="446" y="690" type="curve" smooth="yes"/>
      <point x="476" y="677"/>
      <point x="526" y="481"/>
      <point x="552" y="428" type="curve"/>
      <point x="566" y="394"/>
      <point x="582" y="336"/>
      <point x="594" y="300" type="curve"/>
      <point x="604" y="274"/>
      <point x="628" y="232"/>
      <point x="636" y="214" type="curve"/>
      <point x="650" y="176"/>
      <point x="670" y="142"/>
      <point x="680" y="136" type="curve"/>
      <point x="688" y="190"/>
      <point x="680" y="218"/>
      <point x="690" y="318" type="curve" smooth="yes"/>
      <point x="696" y="372"/>
      <point x="710" y="478"/>
      <point x="718" y="564" type="curve" smooth="yes"/>
      <point x="726" y="644"/>
      <point x="722" y="688"/>
      <point x="724" y="764" type="curve" smooth="yes"/>
      <point x="728" y="868"/>
      <point x="724" y="874"/>
      <point x="768" y="896" type="curve" smooth="yes"/>
      <point x="782" y="904"/>
      <point x="798" y="906"/>
      <point x="808" y="906" type="curve" smooth="yes"/>
      <point x="814" y="906"/>
      <point x="816" y="906"/>
      <point x="818" y="904" type="curve" smooth="yes"/>
      <point x="830" y="884"/>
      <point x="838" y="868"/>
      <point x="838" y="862" type="curve" smooth="yes"/>
      <point x="838" y="856"/>
      <point x="836" y="844"/>
      <point x="826" y="828" type="curve"/>
      <point x="801" y="779"/>
      <point x="784" y="581"/>
      <point x="782" y="528" type="curve" smooth="yes"/>
      <point x="782" y="524"/>
      <point x="758" y="294"/>
    </contour>
  </outline>
</glyph>
<glyph name="X" format="2">
  <advance width="738"/>
  <unicode hex="0058"/>
  <anchor x="430" y="41" name="bottom"/>
  <anchor x="392" y="933" name="top"/>
  <outline>
    <contour>
      <point x="72" y="906" type="curve" smooth="yes"/>
      <point x="145" y="906"/>
      <point x="313" y="584"/>
      <point x="398" y="488" type="curve"/>
      <point x="400" y="491"/>
      <point x="518" y="714"/>
      <point x="554" y="776" type="curve"/>
      <point x="564" y="790"/>
      <point x="584" y="818"/>
      <point x="606" y="854" type="curve" smooth="yes"/>
      <point x="626" y="886"/>
      <point x="642" y="908"/>
      <point x="666" y="908" type="curve" smooth="yes"/>
      <point x="682" y="908"/>
      <point x="692" y="892"/>
      <point x="692" y="880" type="curve" smooth="yes"/>
      <point x="692" y="876"/>
      <point x="693" y="869"/>
      <point x="693" y="862" type="curve" smooth="yes"/>
      <point x="693" y="829"/>
      <point x="676" y="817"/>
      <point x="662" y="808" type="curve" smooth="yes"/>
      <point x="658" y="806"/>
      <point x="502" y="504"/>
      <point x="488" y="476" type="curve" smooth="yes"/>
      <point x="478" y="458"/>
      <point x="462" y="428"/>
      <point x="458" y="420" type="curve"/>
      <point x="468" y="410"/>
      <point x="466" y="412"/>
      <point x="502" y="366" type="curve" smooth="yes"/>
      <point x="504" y="364"/>
      <point x="506" y="364"/>
      <point x="510" y="358" type="curve" smooth="yes"/>
      <point x="522" y="342"/>
      <point x="577" y="250"/>
      <point x="606" y="218" type="curve" smooth="yes"/>
      <point x="670" y="148"/>
      <point x="664" y="168"/>
      <point x="690" y="140" type="curve" smooth="yes"/>
      <point x="700" y="130"/>
      <point x="704" y="114"/>
      <point x="704" y="92" type="curve" smooth="yes"/>
      <point x="704" y="63"/>
      <point x="693" y="28"/>
      <point x="658" y="28" type="curve" smooth="yes"/>
      <point x="636" y="28"/>
      <point x="614" y="52"/>
      <point x="580" y="106" type="curve" smooth="yes"/>
      <point x="567" y="126"/>
      <point x="455" y="293"/>
      <point x="412" y="342" type="curve"/>
      <point x="348" y="250"/>
      <point x="272" y="134"/>
      <point x="216" y="30" type="curve"/>
      <point x="208" y="18"/>
      <point x="208" y="10"/>
      <point x="208" y="6" type="curve" smooth="yes"/>
      <point x="208" y="2"/>
      <point x="214" y="-4"/>
      <point x="224" y="-10" type="curve"/>
      <point x="236" y="-20"/>
      <point x="234" y="-22"/>
      <point x="234" y="-32" type="curve" smooth="yes"/>
      <point x="234" y="-46"/>
      <point x="202" y="-78"/>
      <point x="188" y="-78" type="curve" smooth="yes"/>
      <point x="178" y="-78"/>
      <point x="128" y="-55"/>
      <point x="128" y="-48" type="curve" smooth="yes"/>
      <point x="128" y="-36"/>
      <point x="120" y="-8"/>
      <point x="120" y="2" type="curve" smooth="yes"/>
      <point x="120" y="12"/>
      <point x="122" y="20"/>
      <point x="128" y="30" type="curve" smooth="yes"/>
      <point x="146" y="62"/>
      <point x="144" y="62"/>
      <point x="166" y="106" type="curve" smooth="yes"/>
      <point x="210" y="198"/>
      <point x="230" y="232"/>
      <point x="296" y="328" type="curve"/>
      <point x="313" y="349"/>
      <point x="336" y="392"/>
      <point x="346" y="416" type="curve"/>
      <point x="336" y="430"/>
      <point x="324" y="446"/>
      <point x="312" y="468" type="curve"/>
      <point x="266" y="542"/>
      <point x="234" y="568"/>
      <point x="188" y="642" type="curve" smooth="yes"/>
      <point x="142" y="718"/>
      <point x="110" y="752"/>
      <point x="70" y="796" type="curve" smooth="yes"/>
      <point x="52" y="816"/>
      <point x="26" y="830"/>
      <point x="26" y="852" type="curve" smooth="yes"/>
      <point x="26" y="860"/>
      <point x="30" y="866"/>
      <point x="38" y="874" type="curve"/>
      <point x="48" y="888"/>
      <point x="60" y="906"/>
    </contour>
  </outline>
</glyph>
<glyph name="Y" format="2">
  <advance width="710"/>
  <unicode hex="0059"/>
  <anchor x="380" y="41" name="bottom"/>
  <anchor x="364" y="937" name="top"/>
  <outline>
    <contour>
      <point x="336" y="88" type="curve" smooth="yes"/>
      <point x="336" y="102"/>
      <point x="350" y="314"/>
      <point x="350" y="316" type="curve" smooth="yes"/>
      <point x="350" y="344"/>
      <point x="354" y="354"/>
      <point x="358" y="380" type="curve"/>
      <point x="351" y="378"/>
      <point x="345" y="378"/>
      <point x="339" y="378" type="curve" smooth="yes"/>
      <point x="318" y="378"/>
      <point x="302" y="389"/>
      <point x="286" y="406" type="curve"/>
      <point x="252" y="446"/>
      <point x="242" y="470"/>
      <point x="212" y="510" type="curve" smooth="yes"/>
      <point x="182" y="548"/>
      <point x="172" y="582"/>
      <point x="148" y="626" type="curve" smooth="yes"/>
      <point x="142" y="636"/>
      <point x="134" y="662"/>
      <point x="110" y="708" type="curve" smooth="yes"/>
      <point x="72" y="782"/>
      <point x="38" y="816"/>
      <point x="38" y="864" type="curve" smooth="yes"/>
      <point x="38" y="890"/>
      <point x="52" y="902"/>
      <point x="82" y="902" type="curve" smooth="yes"/>
      <point x="102" y="902"/>
      <point x="108" y="898"/>
      <point x="110" y="890" type="curve" smooth="yes"/>
      <point x="112" y="884"/>
      <point x="116" y="878"/>
      <point x="126" y="862" type="curve"/>
      <point x="134" y="852"/>
      <point x="154" y="818"/>
      <point x="164" y="792" type="curve" smooth="yes"/>
      <point x="174" y="768"/>
      <point x="204" y="720"/>
      <point x="222" y="684" type="curve"/>
      <point x="254" y="624"/>
      <point x="256" y="624"/>
      <point x="296" y="550" type="curve" smooth="yes"/>
      <point x="308" y="528"/>
      <point x="324" y="510"/>
      <point x="340" y="496" type="curve"/>
      <point x="356" y="480"/>
      <point x="372" y="460"/>
      <point x="374" y="450" type="curve"/>
      <point x="392" y="508"/>
      <point x="410" y="550"/>
      <point x="434" y="608" type="curve" smooth="yes"/>
      <point x="460" y="670"/>
      <point x="488" y="752"/>
      <point x="510" y="800" type="curve" smooth="yes"/>
      <point x="534" y="854"/>
      <point x="540" y="880"/>
      <point x="574" y="914" type="curve" smooth="yes"/>
      <point x="598" y="938"/>
      <point x="620" y="950"/>
      <point x="640" y="950" type="curve"/>
      <point x="662" y="948"/>
      <point x="674" y="940"/>
      <point x="674" y="928" type="curve" smooth="yes"/>
      <point x="674" y="916"/>
      <point x="666" y="902"/>
      <point x="652" y="888" type="curve"/>
      <point x="640" y="874"/>
      <point x="624" y="854"/>
      <point x="610" y="830" type="curve" smooth="yes"/>
      <point x="566" y="754"/>
      <point x="553" y="680"/>
      <point x="504" y="574" type="curve"/>
      <point x="494" y="548"/>
      <point x="484" y="524"/>
      <point x="476" y="496" type="curve" smooth="yes"/>
      <point x="472" y="480"/>
      <point x="470" y="460"/>
      <point x="464" y="442" type="curve" smooth="yes"/>
      <point x="447" y="392"/>
      <point x="447" y="392"/>
      <point x="438" y="322" type="curve" smooth="yes"/>
      <point x="432" y="266"/>
      <point x="420" y="188"/>
      <point x="420" y="118" type="curve" smooth="yes"/>
      <point x="420" y="80"/>
      <point x="426" y="54"/>
      <point x="436" y="44" type="curve" smooth="yes"/>
      <point x="446" y="34"/>
      <point x="452" y="24"/>
      <point x="452" y="14" type="curve" smooth="yes"/>
      <point x="452" y="-8"/>
      <point x="413" y="-38"/>
      <point x="392" y="-38" type="curve" smooth="yes"/>
      <point x="382" y="-38"/>
      <point x="376" y="-36"/>
      <point x="370" y="-30" type="curve" smooth="yes"/>
      <point x="364" y="-24"/>
      <point x="360" y="-12"/>
      <point x="352" y="4" type="curve"/>
      <point x="342" y="28"/>
      <point x="336" y="56"/>
    </contour>
  </outline>
</glyph>
<glyph name="Z" format="2">
  <advance width="786"/>
  <unicode hex="005A"/>
  <anchor x="420" y="41" name="bottom"/>
  <anchor x="386" y="935" name="top"/>
  <outline>
    <contour>
      <point x="293" y="880" type="curve" smooth="yes"/>
      <point x="480" y="880"/>
      <point x="470" y="902"/>
      <point x="558" y="906" type="curve" smooth="yes"/>
      <point x="568" y="906"/>
      <point x="578" y="907"/>
      <point x="587" y="907" type="curve" smooth="yes"/>
      <point x="644" y="907"/>
      <point x="674" y="899"/>
      <point x="683" y="896" type="curve" smooth="yes"/>
      <point x="690" y="893"/>
      <point x="695" y="882"/>
      <point x="695" y="874" type="curve" smooth="yes"/>
      <point x="695" y="859"/>
      <point x="693" y="846"/>
      <point x="686" y="834" type="curve" smooth="yes"/>
      <point x="668" y="804"/>
      <point x="659" y="789"/>
      <point x="639" y="751" type="curve"/>
      <point x="569" y="638"/>
      <point x="504" y="555"/>
      <point x="424" y="445" type="curve" smooth="yes"/>
      <point x="422" y="442"/>
      <point x="245" y="198"/>
      <point x="185" y="96" type="curve"/>
      <point x="201" y="88"/>
      <point x="229" y="82"/>
      <point x="255" y="82" type="curve" smooth="yes"/>
      <point x="461" y="82"/>
      <point x="523" y="110"/>
      <point x="641" y="110" type="curve" smooth="yes"/>
      <point x="657" y="110"/>
      <point x="681" y="104"/>
      <point x="698" y="101" type="curve" smooth="yes"/>
      <point x="748" y="95"/>
      <point x="764" y="83"/>
      <point x="764" y="66" type="curve" smooth="yes"/>
      <point x="764" y="36"/>
      <point x="720" y="19"/>
      <point x="696" y="17" type="curve" smooth="yes"/>
      <point x="536" y="7"/>
      <point x="376" y="0"/>
      <point x="208" y="0" type="curve"/>
      <point x="157" y="2"/>
      <point x="125" y="4"/>
      <point x="113" y="6" type="curve" smooth="yes"/>
      <point x="91" y="10"/>
      <point x="61" y="37"/>
      <point x="61" y="59" type="curve" smooth="yes"/>
      <point x="61" y="112"/>
      <point x="159" y="187"/>
      <point x="235" y="311" type="curve"/>
      <point x="273" y="365"/>
      <point x="306" y="417"/>
      <point x="348" y="479" type="curve" smooth="yes"/>
      <point x="434" y="606"/>
      <point x="543" y="728"/>
      <point x="582" y="826" type="curve"/>
      <point x="475" y="820"/>
      <point x="419" y="796"/>
      <point x="263" y="796" type="curve" smooth="yes"/>
      <point x="208" y="796"/>
      <point x="38" y="796"/>
      <point x="38" y="862" type="curve" smooth="yes"/>
      <point x="38" y="870"/>
      <point x="53" y="892"/>
      <point x="60" y="896" type="curve"/>
      <point x="66" y="897"/>
      <point x="76" y="899"/>
      <point x="93" y="899" type="curve" smooth="yes"/>
      <point x="121" y="899"/>
      <point x="128" y="892"/>
      <point x="145" y="889" type="curve" smooth="yes"/>
      <point x="175" y="882"/>
      <point x="201" y="880"/>
    </contour>
  </outline>
</glyph>
<glyph name="bracketleft" format="2">
  <advance width="456"/>
  <unicode hex="005B"/>
  <outline>
    <contour>
      <point x="418" y="882" type="curve" smooth="yes"/>
      <point x="418" y="852"/>
      <point x="386" y="846"/>
      <point x="284" y="846" type="curve" smooth="yes"/>
      <point x="210" y="846" type="line" smooth="yes"/>
      <point x="181" y="846"/>
      <point x="164" y="846"/>
      <point x="163" y="842" type="curve"/>
      <point x="161" y="839"/>
      <point x="160" y="833"/>
      <point x="160" y="825" type="curve" smooth="yes"/>
      <point x="160" y="810"/>
      <point x="163" y="787"/>
      <point x="163" y="766" type="curve" smooth="yes"/>
      <point x="163" y="713"/>
      <point x="161" y="640"/>
      <point x="161" y="568" type="curve" smooth="yes"/>
      <point x="161" y="509"/>
      <point x="162" y="449"/>
      <point x="167" y="402" type="curve" smooth="yes"/>
      <point x="173" y="340"/>
      <point x="179" y="32"/>
      <point x="179" y="-84" type="curve" smooth="yes"/>
      <point x="179" y="-138"/>
      <point x="177" y="-192"/>
      <point x="175" y="-230" type="curve"/>
      <point x="205" y="-228"/>
      <point x="252" y="-222"/>
      <point x="296" y="-222" type="curve" smooth="yes"/>
      <point x="322" y="-222"/>
      <point x="382" y="-222"/>
      <point x="396" y="-226" type="curve" smooth="yes"/>
      <point x="404" y="-228"/>
      <point x="408" y="-230"/>
      <point x="410" y="-238" type="curve"/>
      <point x="414" y="-248"/>
      <point x="416" y="-256"/>
      <point x="416" y="-262" type="curve" smooth="yes"/>
      <point x="416" y="-272"/>
      <point x="412" y="-283"/>
      <point x="402" y="-287" type="curve" smooth="yes"/>
      <point x="392" y="-291"/>
      <point x="374" y="-299"/>
      <point x="344" y="-303" type="curve" smooth="yes"/>
      <point x="292" y="-309"/>
      <point x="238" y="-311"/>
      <point x="192" y="-315" type="curve" smooth="yes"/>
      <point x="159" y="-318"/>
      <point x="140" y="-324"/>
      <point x="130" y="-324" type="curve" smooth="yes"/>
      <point x="112" y="-324"/>
      <point x="78" y="-291"/>
      <point x="78" y="-272" type="curve" smooth="yes"/>
      <point x="78" y="-270"/>
      <point x="78" y="-268"/>
      <point x="80" y="-266" type="curve"/>
      <point x="94" y="-232"/>
      <point x="100" y="-164"/>
      <point x="100" y="-66" type="curve" smooth="yes"/>
      <point x="100" y="48"/>
      <point x="96" y="308"/>
      <point x="90" y="384" type="curve" smooth="yes"/>
      <point x="86" y="440"/>
      <point x="76" y="690"/>
      <point x="76" y="754" type="curve" smooth="yes"/>
      <point x="76" y="770"/>
      <point x="75" y="786"/>
      <point x="75" y="803" type="curve" smooth="yes"/>
      <point x="75" y="860"/>
      <point x="94" y="916"/>
      <point x="104" y="926" type="curve" smooth="yes"/>
      <point x="109" y="931"/>
      <point x="115" y="933"/>
      <point x="123" y="933" type="curve" smooth="yes"/>
      <point x="129" y="933"/>
      <point x="136" y="932"/>
      <point x="144" y="930" type="curve" smooth="yes"/>
      <point x="166" y="924"/>
      <point x="210" y="924"/>
      <point x="280" y="924" type="curve" smooth="yes"/>
      <point x="391" y="924"/>
      <point x="418" y="919"/>
    </contour>
  </outline>
</glyph>
<glyph name="backslash" format="2">
  <advance width="616"/>
  <unicode hex="005C"/>
  <outline>
    <contour>
      <point x="410" y="324" type="curve" smooth="yes"/>
      <point x="442" y="274"/>
      <point x="468" y="220"/>
      <point x="518" y="172" type="curve" smooth="yes"/>
      <point x="574" y="118"/>
      <point x="604" y="84"/>
      <point x="604" y="68" type="curve" smooth="yes"/>
      <point x="604" y="52"/>
      <point x="586" y="36"/>
      <point x="576" y="36" type="curve" smooth="yes"/>
      <point x="548" y="36"/>
      <point x="546" y="38"/>
      <point x="536" y="48" type="curve" smooth="yes"/>
      <point x="526" y="58"/>
      <point x="524" y="70"/>
      <point x="496" y="92" type="curve" smooth="yes"/>
      <point x="422" y="152"/>
      <point x="388" y="220"/>
      <point x="360" y="266" type="curve" smooth="yes"/>
      <point x="344" y="294"/>
      <point x="268" y="396"/>
      <point x="248" y="424" type="curve"/>
      <point x="222" y="458"/>
      <point x="186" y="528"/>
      <point x="152" y="602" type="curve" smooth="yes"/>
      <point x="146" y="614"/>
      <point x="132" y="654"/>
      <point x="100" y="716" type="curve" smooth="yes"/>
      <point x="68" y="778"/>
      <point x="44" y="820"/>
      <point x="32" y="834" type="curve" smooth="yes"/>
      <point x="26" y="840"/>
      <point x="24" y="844"/>
      <point x="24" y="852" type="curve" smooth="yes"/>
      <point x="24" y="871"/>
      <point x="49" y="902"/>
      <point x="68" y="902" type="curve" smooth="yes"/>
      <point x="89" y="902"/>
      <point x="132" y="841"/>
      <point x="144" y="824" type="curve"/>
      <point x="156" y="798"/>
      <point x="174" y="764"/>
      <point x="192" y="722" type="curve" smooth="yes"/>
      <point x="242" y="600"/>
      <point x="248" y="586"/>
      <point x="310" y="478" type="curve"/>
      <point x="344" y="424"/>
      <point x="378" y="374"/>
    </contour>
  </outline>
</glyph>
<glyph name="bracketright" format="2">
  <advance width="502"/>
  <unicode hex="005D"/>
  <outline>
    <contour>
      <point x="40" y="856" type="curve" smooth="yes"/>
      <point x="40" y="905"/>
      <point x="44" y="914"/>
      <point x="64" y="914" type="curve" smooth="yes"/>
      <point x="80" y="914"/>
      <point x="96" y="898"/>
      <point x="126" y="896" type="curve" smooth="yes"/>
      <point x="148" y="894"/>
      <point x="252" y="894"/>
      <point x="270" y="894" type="curve" smooth="yes"/>
      <point x="271" y="894"/>
      <point x="363" y="902"/>
      <point x="366" y="902" type="curve" smooth="yes"/>
      <point x="411" y="902"/>
      <point x="414" y="874"/>
      <point x="414" y="792" type="curve" smooth="yes"/>
      <point x="414" y="787"/>
      <point x="406" y="528"/>
      <point x="406" y="336" type="curve" smooth="yes"/>
      <point x="406" y="262"/>
      <point x="412" y="63"/>
      <point x="412" y="-43" type="curve" smooth="yes"/>
      <point x="412" y="-151"/>
      <point x="414" y="-183"/>
      <point x="422" y="-217" type="curve" smooth="yes"/>
      <point x="426" y="-231"/>
      <point x="432" y="-241"/>
      <point x="432" y="-259" type="curve" smooth="yes"/>
      <point x="432" y="-314"/>
      <point x="416" y="-325"/>
      <point x="320" y="-325" type="curve" smooth="yes"/>
      <point x="172" y="-325" type="line" smooth="yes"/>
      <point x="116" y="-325"/>
      <point x="76" y="-315"/>
      <point x="58" y="-299" type="curve" smooth="yes"/>
      <point x="42" y="-285"/>
      <point x="32" y="-279"/>
      <point x="32" y="-265" type="curve" smooth="yes"/>
      <point x="32" y="-245"/>
      <point x="46" y="-231"/>
      <point x="58" y="-231" type="curve" smooth="yes"/>
      <point x="80" y="-231"/>
      <point x="32" y="-243"/>
      <point x="244" y="-243" type="curve" smooth="yes"/>
      <point x="278" y="-243"/>
      <point x="328" y="-243"/>
      <point x="334" y="-241" type="curve"/>
      <point x="334" y="-225"/>
      <point x="332" y="-215"/>
      <point x="332" y="-167" type="curve" smooth="yes"/>
      <point x="332" y="-23"/>
      <point x="331" y="-33"/>
      <point x="325" y="145" type="curve"/>
      <point x="325" y="241"/>
      <point x="327" y="452"/>
      <point x="327" y="558" type="curve" smooth="yes"/>
      <point x="327" y="624"/>
      <point x="333" y="681"/>
      <point x="335" y="753" type="curve"/>
      <point x="335" y="817" type="line"/>
      <point x="286" y="817" type="line"/>
      <point x="236" y="814"/>
      <point x="191" y="808"/>
      <point x="151" y="808" type="curve" smooth="yes"/>
      <point x="49" y="808"/>
      <point x="40" y="855"/>
    </contour>
  </outline>
</glyph>
<glyph name="asciicircum" format="2">
  <advance width="470"/>
  <unicode hex="005E"/>
  <outline>
    <contour>
      <point x="224" y="886" type="curve" smooth="yes"/>
      <point x="224" y="908"/>
      <point x="260" y="928"/>
      <point x="278" y="928" type="curve" smooth="yes"/>
      <point x="298" y="928"/>
      <point x="300" y="910"/>
      <point x="308" y="892" type="curve" smooth="yes"/>
      <point x="308" y="892"/>
      <point x="348" y="795"/>
      <point x="360" y="746" type="curve" smooth="yes"/>
      <point x="365" y="727"/>
      <point x="394" y="639"/>
      <point x="404" y="624" type="curve"/>
      <point x="416" y="602"/>
      <point x="428" y="586"/>
      <point x="438" y="574" type="curve"/>
      <point x="454" y="550"/>
      <point x="462" y="540"/>
      <point x="462" y="516" type="curve" smooth="yes"/>
      <point x="462" y="496"/>
      <point x="454" y="484"/>
      <point x="428" y="484" type="curve" smooth="yes"/>
      <point x="414" y="484"/>
      <point x="404" y="484"/>
      <point x="398" y="488" type="curve" smooth="yes"/>
      <point x="392" y="492"/>
      <point x="386" y="502"/>
      <point x="376" y="514" type="curve"/>
      <point x="360" y="540"/>
      <point x="348" y="552"/>
      <point x="346" y="556" type="curve" smooth="yes"/>
      <point x="336" y="580"/>
      <point x="328" y="600"/>
      <point x="310" y="648" type="curve"/>
      <point x="284" y="712"/>
      <point x="280" y="730"/>
      <point x="258" y="778" type="curve"/>
      <point x="252" y="772"/>
      <point x="248" y="762"/>
      <point x="238" y="750" type="curve"/>
      <point x="161" y="639"/>
      <point x="144" y="614"/>
      <point x="124" y="520" type="curve" smooth="yes"/>
      <point x="122" y="510"/>
      <point x="120" y="494"/>
      <point x="116" y="488" type="curve" smooth="yes"/>
      <point x="112" y="482"/>
      <point x="86" y="476"/>
      <point x="70" y="476" type="curve" smooth="yes"/>
      <point x="36" y="476"/>
      <point x="18" y="490"/>
      <point x="18" y="524" type="curve" smooth="yes"/>
      <point x="18" y="548"/>
      <point x="48" y="604"/>
      <point x="68" y="636" type="curve" smooth="yes"/>
      <point x="102" y="690"/>
      <point x="90" y="688"/>
      <point x="130" y="746" type="curve" smooth="yes"/>
      <point x="170" y="806"/>
      <point x="156" y="784"/>
      <point x="198" y="842" type="curve"/>
      <point x="214" y="866"/>
      <point x="224" y="880"/>
    </contour>
  </outline>
</glyph>
<glyph name="underscore" format="2">
  <advance width="624"/>
  <unicode hex="005F"/>
  <outline>
    <contour>
      <point x="54" y="81" type="curve" smooth="yes"/>
      <point x="75" y="81"/>
      <point x="85" y="73"/>
      <point x="142" y="73" type="curve" smooth="yes"/>
      <point x="210" y="73"/>
      <point x="288" y="79"/>
      <point x="347" y="79" type="curve" smooth="yes"/>
      <point x="369" y="79"/>
      <point x="447" y="75"/>
      <point x="471" y="75" type="curve" smooth="yes"/>
      <point x="509" y="75"/>
      <point x="529" y="85"/>
      <point x="549" y="85" type="curve" smooth="yes"/>
      <point x="567" y="85"/>
      <point x="595" y="79"/>
      <point x="595" y="57" type="curve" smooth="yes"/>
      <point x="595" y="23"/>
      <point x="589" y="22"/>
      <point x="573" y="12" type="curve" smooth="yes"/>
      <point x="553" y="0"/>
      <point x="537" y="-2"/>
      <point x="527" y="-2" type="curve" smooth="yes"/>
      <point x="497" y="-2"/>
      <point x="427" y="-1"/>
      <point x="331" y="-1" type="curve" smooth="yes"/>
      <point x="271" y="-1"/>
      <point x="167" y="-8"/>
      <point x="66" y="-8" type="curve" smooth="yes"/>
      <point x="50" y="-8"/>
      <point x="34" y="-6"/>
      <point x="28" y="-2" type="curve" smooth="yes"/>
      <point x="18" y="6"/>
      <point x="12" y="29"/>
      <point x="12" y="43" type="curve" smooth="yes"/>
      <point x="12" y="75"/>
      <point x="26" y="81"/>
    </contour>
  </outline>
</glyph>
<glyph name="grave" format="2">
  <advance width="326"/>
  <unicode hex="0060"/>
  <outline>
    <contour>
      <point x="38" y="910" type="curve"/>
      <point x="48" y="916"/>
      <point x="54" y="920"/>
      <point x="64" y="920" type="curve" smooth="yes"/>
      <point x="80" y="920"/>
      <point x="92" y="914"/>
      <point x="100" y="902" type="curve" smooth="yes"/>
      <point x="102" y="900"/>
      <point x="108" y="892"/>
      <point x="120" y="878" type="curve" smooth="yes"/>
      <point x="132" y="864"/>
      <point x="146" y="850"/>
      <point x="156" y="838" type="curve" smooth="yes"/>
      <point x="182" y="806"/>
      <point x="198" y="796"/>
      <point x="230" y="774" type="curve" smooth="yes"/>
      <point x="246" y="764"/>
      <point x="282" y="738"/>
      <point x="296" y="728" type="curve" smooth="yes"/>
      <point x="314" y="714"/>
      <point x="320" y="700"/>
      <point x="320" y="694" type="curve" smooth="yes"/>
      <point x="320" y="675"/>
      <point x="285" y="658"/>
      <point x="268" y="658" type="curve" smooth="yes"/>
      <point x="256" y="658"/>
      <point x="238" y="664"/>
      <point x="222" y="676" type="curve"/>
      <point x="168" y="712"/>
      <point x="124" y="744"/>
      <point x="98" y="772" type="curve" smooth="yes"/>
      <point x="46" y="826"/>
      <point x="18" y="860"/>
      <point x="18" y="880" type="curve" smooth="yes"/>
      <point x="18" y="890"/>
      <point x="26" y="900"/>
    </contour>
  </outline>
</glyph>
